<svg width="34" height="34" viewBox="0 0 34 34" fill="none" xmlns="http://www.w3.org/2000/svg">
<path d="M16.6142 11.6438L16.6139 11.6438C15.4053 11.644 14.2238 12.0025 13.2189 12.6741C12.214 13.3458 11.4308 14.3003 10.9684 15.417C10.506 16.5337 10.385 17.7625 10.6209 18.9479C10.8568 20.1333 11.439 21.2222 12.2937 22.0768C13.1484 22.9314 14.2373 23.5134 15.4228 23.7491C16.6082 23.9848 17.837 23.8638 18.9536 23.4012C20.0703 22.9386 21.0247 22.1553 21.6962 21.1503C22.3677 20.1453 22.7261 18.9638 22.7261 17.7551V17.7548C22.7242 16.1345 22.0796 14.5812 20.9338 13.4355C19.788 12.2899 18.2345 11.6455 16.6142 11.6438ZM16.6138 22.0516C15.7641 22.0514 14.9336 21.7993 14.2272 21.3271C13.5208 20.8549 12.9702 20.1839 12.6452 19.3988C12.3201 18.6137 12.2351 17.7499 12.401 16.9165C12.5668 16.0831 12.9761 15.3176 13.577 14.7168C14.1779 14.116 14.9434 13.7069 15.7768 13.5412C16.6102 13.3755 17.4741 13.4606 18.2591 13.7858C19.0441 14.111 19.7151 14.6617 20.1872 15.3682C20.6592 16.0747 20.9111 16.9052 20.9112 17.7548C20.9098 18.8941 20.4566 19.9863 19.651 20.7918C18.8453 21.5974 17.753 22.0504 16.6138 22.0516Z" fill="white" stroke="white" stroke-width="0.5"/>
<path d="M21.3389 1.46655L21.339 1.46655C28.1444 1.46655 33.6822 7.00356 33.6822 13.8089M21.3389 1.46655L33.6822 13.8089M21.3389 1.46655C19.3749 1.46763 17.4394 1.93683 15.693 2.83525C13.9662 3.72356 12.4733 5.00618 11.3352 6.5788C9.04592 7.64502 7.1063 9.34005 5.74291 11.4669C4.36759 13.6123 3.6363 16.107 3.63574 18.6554V18.6555M21.3389 1.46655L3.63574 18.6555M33.6822 13.8089C33.6889 16.1706 33.0132 18.4828 31.7379 20.4682M33.6822 13.8089C33.6822 13.8087 33.6822 13.8085 33.6822 13.8082L31.7379 20.4682M31.7379 20.4682C32.4731 22.0488 32.7043 23.8187 32.3983 25.5371C32.084 27.3022 31.219 28.9225 29.9273 30.1659C28.6356 31.4092 26.9835 32.2117 25.2076 32.4584C23.4638 32.7007 21.6885 32.3948 20.1273 31.5843C19.0866 31.8388 18.0189 31.9674 16.9473 31.967L31.7379 20.4682ZM3.63574 18.6555C3.63574 25.996 9.60664 31.967 16.9472 31.967L3.63574 18.6555ZM20.0067 29.7349L20.0076 29.7346C20.0854 29.7136 20.1656 29.7028 20.2463 29.7027C20.2464 29.7027 20.2465 29.7027 20.2467 29.7027L20.2469 29.9527L20.0067 29.7349ZM20.0067 29.7349C19.01 30.0086 17.981 30.1471 16.9474 30.1467H16.9472M20.0067 29.7349L16.9472 30.1467M16.9472 30.1467C10.6083 30.1482 5.45064 24.9913 5.45064 18.6555C5.45061 16.4265 6.09797 14.2455 7.31406 12.3775C8.53014 10.5095 10.2626 9.0349 12.3009 8.1329L12.3009 8.13291M16.9472 30.1467L12.3009 8.13291M12.3009 8.13291L12.3027 8.13209M12.3009 8.13291L12.3027 8.13209M12.3027 8.13209C12.4534 8.06397 12.5827 7.95608 12.6767 7.82003M12.3027 8.13209L12.6767 7.82003M31.8673 13.8095V13.8089C31.8673 8.00451 27.1436 3.28149 21.3391 3.28145L31.8673 13.8095ZM31.8673 13.8095C31.8721 15.9818 31.2001 18.1017 29.9448 19.8746L29.9444 19.8751M31.8673 13.8095L29.9444 19.8751M29.9444 19.8751C29.8465 20.0142 29.7896 20.1779 29.7801 20.3478M29.9444 19.8751L29.7801 20.3478M12.6767 7.82003C13.6466 6.42008 14.9412 5.27595 16.4498 4.48554M12.6767 7.82003L16.4498 4.48554M16.4498 4.48554C17.9584 3.69515 19.636 3.282 21.339 3.28145L16.4498 4.48554ZM29.7801 20.3478C29.7707 20.5174 29.8091 20.6864 29.8909 20.8353L29.7801 20.3478ZM24.0353 30.7191C22.8649 30.7186 21.7153 30.4101 20.7018 29.8246L24.0353 30.7191ZM29.8911 20.8357C30.4478 21.8523 30.7304 22.9963 30.7108 24.1553C30.6913 25.3143 30.3702 26.4483 29.7794 27.4457C29.1885 28.443 28.3482 29.2693 27.341 29.8433C26.3338 30.4172 25.1946 30.7191 24.0354 30.7191L29.8911 20.8357Z" fill="white" stroke="white" stroke-width="0.5"/>
<path d="M13.5139 18.6555C13.4939 18.5865 13.4473 18.5282 13.3844 18.4936C13.3214 18.4589 13.2473 18.4507 13.1782 18.4707C13.1092 18.4907 13.0509 18.5373 13.0163 18.6002C12.9816 18.6632 12.9734 18.7373 12.9934 18.8064C13.1952 19.4973 13.5902 20.1162 14.1319 20.5903C14.6735 21.0644 15.3393 21.374 16.0509 21.4825L16.0797 20.6867M13.5139 18.6555C13.6862 19.2475 14.0241 19.778 14.4878 20.1843C14.8876 20.5345 15.3664 20.7799 15.8813 20.9006V20.6722L16.0797 20.6867M13.5139 18.6555L13.754 18.586C13.754 18.5859 13.754 18.5859 13.754 18.5858M13.5139 18.6555L13.754 18.5857C13.754 18.5857 13.754 18.5858 13.754 18.5858M16.0797 20.6867L16.1495 20.6918C16.2874 20.7018 16.4157 20.7663 16.5061 20.8709C16.5966 20.9755 16.6417 21.1118 16.6317 21.2497C16.6216 21.3876 16.5572 21.5159 16.4525 21.6064C16.3521 21.6931 16.2225 21.7382 16.0903 21.7328C16.0725 21.7334 16.0547 21.7332 16.0369 21.7322L16.025 21.7315L16.0132 21.7297C15.2545 21.6139 14.5447 21.2839 13.9672 20.7784C13.3897 20.273 12.9686 19.6131 12.7534 18.8765L12.7532 18.8759L12.7532 18.8759C12.7148 18.7432 12.7306 18.6007 12.7973 18.4796C12.8639 18.3586 12.9759 18.269 13.1087 18.2305C13.2414 18.1921 13.3839 18.2079 13.505 18.2746C13.6259 18.3412 13.7155 18.4532 13.754 18.5858M16.0797 20.6867C15.551 20.5895 15.0577 20.3512 14.6526 19.9962C14.2247 19.6214 13.913 19.132 13.754 18.5858" fill="white" stroke="white" stroke-width="0.5"/>
</svg>
