<svg width="36" height="36" viewBox="0 0 36 36" fill="none" xmlns="http://www.w3.org/2000/svg">
<path d="M6 12.25L10.0828 15.6523C10.3524 15.877 10.6922 16 11.0431 16H27.9568C28.3078 16 28.6476 15.877 28.9171 15.6523L33 12.25M11.25 21.25H11.265M27.75 21.25H27.765M13.741 7H25.2591C26.3357 7 27.3297 7.57686 27.8637 8.51158L32.2095 16.1165C32.7274 17.0231 33 18.0491 33 19.0934V28C33 28.8284 32.3284 29.5 31.5 29.5H30C29.1716 29.5 28.5 28.8284 28.5 28V26.5H10.5V28C10.5 28.8284 9.82842 29.5 9 29.5H7.5C6.67158 29.5 6 28.8284 6 28V19.0934C6 18.0491 6.27249 17.0231 6.79054 16.1165L11.1362 8.51158C11.6704 7.57686 12.6644 7 13.741 7ZM12 21.25C12 21.6642 11.6642 22 11.25 22C10.8358 22 10.5 21.6642 10.5 21.25C10.5 20.8358 10.8358 20.5 11.25 20.5C11.6642 20.5 12 20.8358 12 21.25ZM28.5 21.25C28.5 21.6642 28.1642 22 27.75 22C27.3358 22 27 21.6642 27 21.25C27 20.8358 27.3358 20.5 27.75 20.5C28.1642 20.5 28.5 20.8358 28.5 21.25Z" stroke="white" stroke-width="2" stroke-linecap="round" stroke-linejoin="round"/>
</svg>
