<svg width="36" height="36" viewBox="0 0 36 36" fill="none" xmlns="http://www.w3.org/2000/svg">
<g clip-path="url(#clip0_1437_2366)">
<mask id="path-1-outside-1_1437_2366" maskUnits="userSpaceOnUse" x="2" y="4" width="30" height="28" fill="black">
<rect fill="white" x="2" y="4" width="30" height="28"/>
<path d="M5.41561 19.5615C5.77565 19.2605 6.19983 19.0435 6.6566 18.9265C7.11337 18.8095 7.59099 18.7957 8.05394 18.8859C8.77023 19.0238 9.41198 19.4122 9.86119 19.9797L10.3945 18.695C10.1221 18.4535 9.81978 18.2472 9.49465 18.081C9.99546 17.6677 10.3553 17.1124 10.5253 16.4905C10.6953 15.8685 10.6673 15.21 10.4451 14.6043C10.2228 13.9986 9.81713 13.475 9.28299 13.1046C8.74885 12.7341 8.11214 12.5348 7.45925 12.5336C6.80637 12.5324 6.16891 12.7294 5.63337 13.0978C5.09783 13.4663 4.69014 13.9884 4.46561 14.5933C4.24108 15.1982 4.21058 15.8566 4.37825 16.4791C4.54592 17.1017 4.90364 17.6583 5.40288 18.0735C5.11651 18.2189 4.8472 18.3949 4.5998 18.5984C4.09854 19.0102 3.69535 19.5259 3.41886 20.1089C3.14237 20.6918 2.99937 21.3276 3 21.9713V23.8549H4.27271V21.9713C4.27206 21.5114 4.37414 21.0571 4.57168 20.6406C4.76921 20.2241 5.05736 19.8556 5.41561 19.5615ZM5.54543 15.6926C5.54543 15.32 5.65739 14.9559 5.86716 14.6461C6.07693 14.3363 6.37509 14.0949 6.72392 13.9524C7.07276 13.8098 7.45661 13.7725 7.82693 13.8452C8.19726 13.9178 8.53742 14.0972 8.80441 14.3607C9.0714 14.6241 9.25322 14.9597 9.32688 15.3251C9.40054 15.6905 9.36273 16.0692 9.21824 16.4134C9.07375 16.7576 8.82906 17.0518 8.51511 17.2587C8.20117 17.4657 7.83207 17.5762 7.45449 17.5762C6.94838 17.5755 6.4632 17.3769 6.10532 17.0238C5.74745 16.6707 5.5461 16.1919 5.54543 15.6926ZM28.5853 18.081C29.0863 17.6679 29.4463 17.1127 29.6165 16.4908C29.7867 15.8689 29.7589 15.2104 29.5369 14.6046C29.3148 13.9988 28.9093 13.4751 28.3752 13.1045C27.8412 12.7339 27.2046 12.5344 26.5517 12.533C25.8988 12.5316 25.2613 12.7284 24.7256 13.0967C24.19 13.465 23.7821 13.9869 23.5574 14.5917C23.3327 15.1966 23.302 15.8549 23.4694 16.4776C23.6369 17.1002 23.9944 17.6569 24.4936 18.0722C24.2071 18.218 23.9378 18.3944 23.6905 18.5984C23.6574 18.6247 23.6345 18.6611 23.6014 18.6888L24.1257 19.952C24.48 19.5165 24.9496 19.1863 25.4825 18.9982C26.0154 18.81 26.5907 18.7711 27.1446 18.8859C27.891 19.0534 28.5559 19.4703 29.0265 20.066C29.4971 20.6616 29.7445 21.3995 29.7269 22.1546V23.8549H30.9997V22.1546C31.0099 21.3233 30.7905 20.505 30.3652 19.7874C29.9399 19.0697 29.3246 18.4798 28.5853 18.081ZM24.6361 15.6926C24.6361 15.32 24.7481 14.9559 24.9578 14.6461C25.1676 14.3363 25.4658 14.0949 25.8146 13.9524C26.1634 13.8098 26.5473 13.7725 26.9176 13.8452C27.2879 13.9178 27.6281 14.0972 27.8951 14.3607C28.1621 14.6241 28.3439 14.9597 28.4176 15.3251C28.4912 15.6905 28.4534 16.0692 28.3089 16.4134C28.1644 16.7576 27.9197 17.0518 27.6058 17.2587C27.2918 17.4657 26.9227 17.5762 26.5452 17.5762C26.0391 17.5755 25.5539 17.3769 25.196 17.0238C24.8381 16.6707 24.6368 16.1919 24.6361 15.6926ZM14.4544 15.0647V13.809C14.4535 13.4286 14.5407 13.0531 14.7092 12.711C14.8777 12.3689 15.1231 12.0693 15.4268 11.835C15.7356 11.5967 16.0956 11.4313 16.4793 11.3515C16.8629 11.2716 17.2599 11.2793 17.64 11.3741C18.2028 11.536 18.6951 11.8775 19.0399 12.3452C19.3848 12.8129 19.5625 13.3803 19.5453 13.9584V15.0647H20.818V13.9597C20.8215 13.292 20.655 12.6341 20.3337 12.0465C20.0123 11.4589 19.5465 10.9604 18.9789 10.5968C19.4963 10.191 19.8727 9.6363 20.056 9.00974C20.2392 8.38318 20.2202 7.71586 20.0015 7.10048C19.7827 6.48509 19.3752 5.95218 18.8355 5.57577C18.2958 5.19936 17.6506 4.99812 16.9897 5.00001C16.3288 5.00191 15.6848 5.20683 15.1473 5.58633C14.6098 5.96583 14.2055 6.50107 13.9904 7.11769C13.7753 7.73432 13.7601 8.40173 13.9471 9.02723C14.134 9.65273 14.5137 10.2053 15.0335 10.6081C14.8971 10.6804 14.7653 10.7609 14.639 10.8492C14.1838 11.2006 13.816 11.6499 13.5634 12.1628C13.3109 12.6757 13.1803 13.2387 13.1817 13.809V15.0647H14.4544ZM15.0908 8.15816C15.0908 7.78562 15.2027 7.42145 15.4125 7.11169C15.6223 6.80193 15.9204 6.56051 16.2693 6.41794C16.6181 6.27538 17.002 6.23807 17.3723 6.31075C17.7426 6.38343 18.0828 6.56283 18.3497 6.82626C18.6167 7.08968 18.7986 7.42531 18.8722 7.79069C18.9459 8.15607 18.9081 8.5348 18.7636 8.87899C18.6191 9.22317 18.3744 9.51735 18.0605 9.72432C17.7465 9.9313 17.3774 10.0418 16.9998 10.0418C16.4937 10.0411 16.0085 9.84244 15.6507 9.48934C15.2928 9.13624 15.0914 8.65752 15.0908 8.15816ZM27.1344 30.5228L25.9559 31L20.3903 17.5762H13.6093L8.04376 31L6.86523 30.5228L12.4308 17.1015C12.5259 16.8702 12.689 16.6723 12.899 16.5331C13.109 16.394 13.3564 16.3199 13.6093 16.3204H20.3903C20.6428 16.3198 20.8898 16.3935 21.0995 16.5322C21.3093 16.6709 21.4723 16.8683 21.5676 17.099L27.1344 30.5228Z"/>
</mask>
<path d="M5.41561 19.5615C5.77565 19.2605 6.19983 19.0435 6.6566 18.9265C7.11337 18.8095 7.59099 18.7957 8.05394 18.8859C8.77023 19.0238 9.41198 19.4122 9.86119 19.9797L10.3945 18.695C10.1221 18.4535 9.81978 18.2472 9.49465 18.081C9.99546 17.6677 10.3553 17.1124 10.5253 16.4905C10.6953 15.8685 10.6673 15.21 10.4451 14.6043C10.2228 13.9986 9.81713 13.475 9.28299 13.1046C8.74885 12.7341 8.11214 12.5348 7.45925 12.5336C6.80637 12.5324 6.16891 12.7294 5.63337 13.0978C5.09783 13.4663 4.69014 13.9884 4.46561 14.5933C4.24108 15.1982 4.21058 15.8566 4.37825 16.4791C4.54592 17.1017 4.90364 17.6583 5.40288 18.0735C5.11651 18.2189 4.8472 18.3949 4.5998 18.5984C4.09854 19.0102 3.69535 19.5259 3.41886 20.1089C3.14237 20.6918 2.99937 21.3276 3 21.9713V23.8549H4.27271V21.9713C4.27206 21.5114 4.37414 21.0571 4.57168 20.6406C4.76921 20.2241 5.05736 19.8556 5.41561 19.5615ZM5.54543 15.6926C5.54543 15.32 5.65739 14.9559 5.86716 14.6461C6.07693 14.3363 6.37509 14.0949 6.72392 13.9524C7.07276 13.8098 7.45661 13.7725 7.82693 13.8452C8.19726 13.9178 8.53742 14.0972 8.80441 14.3607C9.0714 14.6241 9.25322 14.9597 9.32688 15.3251C9.40054 15.6905 9.36273 16.0692 9.21824 16.4134C9.07375 16.7576 8.82906 17.0518 8.51511 17.2587C8.20117 17.4657 7.83207 17.5762 7.45449 17.5762C6.94838 17.5755 6.4632 17.3769 6.10532 17.0238C5.74745 16.6707 5.5461 16.1919 5.54543 15.6926ZM28.5853 18.081C29.0863 17.6679 29.4463 17.1127 29.6165 16.4908C29.7867 15.8689 29.7589 15.2104 29.5369 14.6046C29.3148 13.9988 28.9093 13.4751 28.3752 13.1045C27.8412 12.7339 27.2046 12.5344 26.5517 12.533C25.8988 12.5316 25.2613 12.7284 24.7256 13.0967C24.19 13.465 23.7821 13.9869 23.5574 14.5917C23.3327 15.1966 23.302 15.8549 23.4694 16.4776C23.6369 17.1002 23.9944 17.6569 24.4936 18.0722C24.2071 18.218 23.9378 18.3944 23.6905 18.5984C23.6574 18.6247 23.6345 18.6611 23.6014 18.6888L24.1257 19.952C24.48 19.5165 24.9496 19.1863 25.4825 18.9982C26.0154 18.81 26.5907 18.7711 27.1446 18.8859C27.891 19.0534 28.5559 19.4703 29.0265 20.066C29.4971 20.6616 29.7445 21.3995 29.7269 22.1546V23.8549H30.9997V22.1546C31.0099 21.3233 30.7905 20.505 30.3652 19.7874C29.9399 19.0697 29.3246 18.4798 28.5853 18.081ZM24.6361 15.6926C24.6361 15.32 24.7481 14.9559 24.9578 14.6461C25.1676 14.3363 25.4658 14.0949 25.8146 13.9524C26.1634 13.8098 26.5473 13.7725 26.9176 13.8452C27.2879 13.9178 27.6281 14.0972 27.8951 14.3607C28.1621 14.6241 28.3439 14.9597 28.4176 15.3251C28.4912 15.6905 28.4534 16.0692 28.3089 16.4134C28.1644 16.7576 27.9197 17.0518 27.6058 17.2587C27.2918 17.4657 26.9227 17.5762 26.5452 17.5762C26.0391 17.5755 25.5539 17.3769 25.196 17.0238C24.8381 16.6707 24.6368 16.1919 24.6361 15.6926ZM14.4544 15.0647V13.809C14.4535 13.4286 14.5407 13.0531 14.7092 12.711C14.8777 12.3689 15.1231 12.0693 15.4268 11.835C15.7356 11.5967 16.0956 11.4313 16.4793 11.3515C16.8629 11.2716 17.2599 11.2793 17.64 11.3741C18.2028 11.536 18.6951 11.8775 19.0399 12.3452C19.3848 12.8129 19.5625 13.3803 19.5453 13.9584V15.0647H20.818V13.9597C20.8215 13.292 20.655 12.6341 20.3337 12.0465C20.0123 11.4589 19.5465 10.9604 18.9789 10.5968C19.4963 10.191 19.8727 9.6363 20.056 9.00974C20.2392 8.38318 20.2202 7.71586 20.0015 7.10048C19.7827 6.48509 19.3752 5.95218 18.8355 5.57577C18.2958 5.19936 17.6506 4.99812 16.9897 5.00001C16.3288 5.00191 15.6848 5.20683 15.1473 5.58633C14.6098 5.96583 14.2055 6.50107 13.9904 7.11769C13.7753 7.73432 13.7601 8.40173 13.9471 9.02723C14.134 9.65273 14.5137 10.2053 15.0335 10.6081C14.8971 10.6804 14.7653 10.7609 14.639 10.8492C14.1838 11.2006 13.816 11.6499 13.5634 12.1628C13.3109 12.6757 13.1803 13.2387 13.1817 13.809V15.0647H14.4544ZM15.0908 8.15816C15.0908 7.78562 15.2027 7.42145 15.4125 7.11169C15.6223 6.80193 15.9204 6.56051 16.2693 6.41794C16.6181 6.27538 17.002 6.23807 17.3723 6.31075C17.7426 6.38343 18.0828 6.56283 18.3497 6.82626C18.6167 7.08968 18.7986 7.42531 18.8722 7.79069C18.9459 8.15607 18.9081 8.5348 18.7636 8.87899C18.6191 9.22317 18.3744 9.51735 18.0605 9.72432C17.7465 9.9313 17.3774 10.0418 16.9998 10.0418C16.4937 10.0411 16.0085 9.84244 15.6507 9.48934C15.2928 9.13624 15.0914 8.65752 15.0908 8.15816ZM27.1344 30.5228L25.9559 31L20.3903 17.5762H13.6093L8.04376 31L6.86523 30.5228L12.4308 17.1015C12.5259 16.8702 12.689 16.6723 12.899 16.5331C13.109 16.394 13.3564 16.3199 13.6093 16.3204H20.3903C20.6428 16.3198 20.8898 16.3935 21.0995 16.5322C21.3093 16.6709 21.4723 16.8683 21.5676 17.099L27.1344 30.5228Z" fill="white"/>
<path d="M5.41561 19.5615C5.77565 19.2605 6.19983 19.0435 6.6566 18.9265C7.11337 18.8095 7.59099 18.7957 8.05394 18.8859C8.77023 19.0238 9.41198 19.4122 9.86119 19.9797L10.3945 18.695C10.1221 18.4535 9.81978 18.2472 9.49465 18.081C9.99546 17.6677 10.3553 17.1124 10.5253 16.4905C10.6953 15.8685 10.6673 15.21 10.4451 14.6043C10.2228 13.9986 9.81713 13.475 9.28299 13.1046C8.74885 12.7341 8.11214 12.5348 7.45925 12.5336C6.80637 12.5324 6.16891 12.7294 5.63337 13.0978C5.09783 13.4663 4.69014 13.9884 4.46561 14.5933C4.24108 15.1982 4.21058 15.8566 4.37825 16.4791C4.54592 17.1017 4.90364 17.6583 5.40288 18.0735C5.11651 18.2189 4.8472 18.3949 4.5998 18.5984C4.09854 19.0102 3.69535 19.5259 3.41886 20.1089C3.14237 20.6918 2.99937 21.3276 3 21.9713V23.8549H4.27271V21.9713C4.27206 21.5114 4.37414 21.0571 4.57168 20.6406C4.76921 20.2241 5.05736 19.8556 5.41561 19.5615ZM5.54543 15.6926C5.54543 15.32 5.65739 14.9559 5.86716 14.6461C6.07693 14.3363 6.37509 14.0949 6.72392 13.9524C7.07276 13.8098 7.45661 13.7725 7.82693 13.8452C8.19726 13.9178 8.53742 14.0972 8.80441 14.3607C9.0714 14.6241 9.25322 14.9597 9.32688 15.3251C9.40054 15.6905 9.36273 16.0692 9.21824 16.4134C9.07375 16.7576 8.82906 17.0518 8.51511 17.2587C8.20117 17.4657 7.83207 17.5762 7.45449 17.5762C6.94838 17.5755 6.4632 17.3769 6.10532 17.0238C5.74745 16.6707 5.5461 16.1919 5.54543 15.6926ZM28.5853 18.081C29.0863 17.6679 29.4463 17.1127 29.6165 16.4908C29.7867 15.8689 29.7589 15.2104 29.5369 14.6046C29.3148 13.9988 28.9093 13.4751 28.3752 13.1045C27.8412 12.7339 27.2046 12.5344 26.5517 12.533C25.8988 12.5316 25.2613 12.7284 24.7256 13.0967C24.19 13.465 23.7821 13.9869 23.5574 14.5917C23.3327 15.1966 23.302 15.8549 23.4694 16.4776C23.6369 17.1002 23.9944 17.6569 24.4936 18.0722C24.2071 18.218 23.9378 18.3944 23.6905 18.5984C23.6574 18.6247 23.6345 18.6611 23.6014 18.6888L24.1257 19.952C24.48 19.5165 24.9496 19.1863 25.4825 18.9982C26.0154 18.81 26.5907 18.7711 27.1446 18.8859C27.891 19.0534 28.5559 19.4703 29.0265 20.066C29.4971 20.6616 29.7445 21.3995 29.7269 22.1546V23.8549H30.9997V22.1546C31.0099 21.3233 30.7905 20.505 30.3652 19.7874C29.9399 19.0697 29.3246 18.4798 28.5853 18.081ZM24.6361 15.6926C24.6361 15.32 24.7481 14.9559 24.9578 14.6461C25.1676 14.3363 25.4658 14.0949 25.8146 13.9524C26.1634 13.8098 26.5473 13.7725 26.9176 13.8452C27.2879 13.9178 27.6281 14.0972 27.8951 14.3607C28.1621 14.6241 28.3439 14.9597 28.4176 15.3251C28.4912 15.6905 28.4534 16.0692 28.3089 16.4134C28.1644 16.7576 27.9197 17.0518 27.6058 17.2587C27.2918 17.4657 26.9227 17.5762 26.5452 17.5762C26.0391 17.5755 25.5539 17.3769 25.196 17.0238C24.8381 16.6707 24.6368 16.1919 24.6361 15.6926ZM14.4544 15.0647V13.809C14.4535 13.4286 14.5407 13.0531 14.7092 12.711C14.8777 12.3689 15.1231 12.0693 15.4268 11.835C15.7356 11.5967 16.0956 11.4313 16.4793 11.3515C16.8629 11.2716 17.2599 11.2793 17.64 11.3741C18.2028 11.536 18.6951 11.8775 19.0399 12.3452C19.3848 12.8129 19.5625 13.3803 19.5453 13.9584V15.0647H20.818V13.9597C20.8215 13.292 20.655 12.6341 20.3337 12.0465C20.0123 11.4589 19.5465 10.9604 18.9789 10.5968C19.4963 10.191 19.8727 9.6363 20.056 9.00974C20.2392 8.38318 20.2202 7.71586 20.0015 7.10048C19.7827 6.48509 19.3752 5.95218 18.8355 5.57577C18.2958 5.19936 17.6506 4.99812 16.9897 5.00001C16.3288 5.00191 15.6848 5.20683 15.1473 5.58633C14.6098 5.96583 14.2055 6.50107 13.9904 7.11769C13.7753 7.73432 13.7601 8.40173 13.9471 9.02723C14.134 9.65273 14.5137 10.2053 15.0335 10.6081C14.8971 10.6804 14.7653 10.7609 14.639 10.8492C14.1838 11.2006 13.816 11.6499 13.5634 12.1628C13.3109 12.6757 13.1803 13.2387 13.1817 13.809V15.0647H14.4544ZM15.0908 8.15816C15.0908 7.78562 15.2027 7.42145 15.4125 7.11169C15.6223 6.80193 15.9204 6.56051 16.2693 6.41794C16.6181 6.27538 17.002 6.23807 17.3723 6.31075C17.7426 6.38343 18.0828 6.56283 18.3497 6.82626C18.6167 7.08968 18.7986 7.42531 18.8722 7.79069C18.9459 8.15607 18.9081 8.5348 18.7636 8.87899C18.6191 9.22317 18.3744 9.51735 18.0605 9.72432C17.7465 9.9313 17.3774 10.0418 16.9998 10.0418C16.4937 10.0411 16.0085 9.84244 15.6507 9.48934C15.2928 9.13624 15.0914 8.65752 15.0908 8.15816ZM27.1344 30.5228L25.9559 31L20.3903 17.5762H13.6093L8.04376 31L6.86523 30.5228L12.4308 17.1015C12.5259 16.8702 12.689 16.6723 12.899 16.5331C13.109 16.394 13.3564 16.3199 13.6093 16.3204H20.3903C20.6428 16.3198 20.8898 16.3935 21.0995 16.5322C21.3093 16.6709 21.4723 16.8683 21.5676 17.099L27.1344 30.5228Z" stroke="white" stroke-width="0.6" mask="url(#path-1-outside-1_1437_2366)"/>
</g>
<defs>
<clipPath id="clip0_1437_2366">
<rect width="36" height="36" fill="white"/>
</clipPath>
</defs>
</svg>
