<svg width="20" height="21" viewBox="0 0 20 21" fill="none" xmlns="http://www.w3.org/2000/svg">
<path d="M18.5 3.76147H18.35V3.91147V4.69897H14.125H13.975V4.84897V6.57397H9.75H9.6V6.72397V9.07397H5.375H5.225V9.22397V11.574H1.625H1.475V11.724V16.4906H1H0.85V16.6406V17.2656V17.4156H1H19.2292H19.3803L19.3792 17.2645L19.275 3.9103L19.2738 3.76147H19.125H18.5ZM14.9 7.34897V5.62397H18.35V15.9906H2.4V12.499H6H6.15V12.349V9.99897H10.375H10.525V9.84897V7.49897H14.75H14.9V7.34897Z" fill="#8C331B" stroke="#8C331B" stroke-width="0.3"/>
<path d="M2.06653 6.34399L3.66094 5.14887V9.22397V9.37397H3.81094H4.43594H4.58594V9.22397V5.14887L6.18035 6.34399L6.30034 6.43394L6.39031 6.31397L6.76531 5.81397L6.85533 5.69394L6.73529 5.60395L4.21341 3.71333L4.12344 3.64587L4.03346 3.71333L1.51159 5.60395L1.39154 5.69394L1.48156 5.81397L1.85656 6.31397L1.94654 6.43394L2.06653 6.34399Z" fill="#8C331B" stroke="#8C331B" stroke-width="0.3"/>
</svg>
