<svg width="37" height="38" viewBox="0 0 37 38" fill="none" xmlns="http://www.w3.org/2000/svg">
<path d="M32.4197 25.2318C32.949 24.7502 33.2862 24.0295 33.2862 23.2248V22.3989L31.1567 20.0522H7.36322L5.23378 22.3989V23.2248C5.23378 23.8903 5.46466 24.4983 5.84382 24.9612L4 26.855V27.6953C4 29.1419 5.14579 30.3186 6.55425 30.3186H31.4457C32.8542 30.3186 34 29.1419 34 27.6953V26.855L32.4197 25.2318ZM6.60231 22.9523L7.95853 21.4579H30.5614L31.9177 22.9523V23.2249C31.9177 23.8964 31.4428 24.4427 30.859 24.4427H7.66091C7.07719 24.4427 6.60239 23.8964 6.60239 23.2249L6.60231 22.9523ZM32.6315 27.6953C32.6315 28.3668 32.0997 28.9131 31.4458 28.9131H6.55425C5.90041 28.9131 5.36854 28.3668 5.36854 27.6953V27.4371L6.8377 25.9282H31.1624L32.6315 27.4371V27.6953Z" fill="white"/>
<path d="M11.5162 18.4561C11.5162 18.8442 11.8226 19.1589 12.2005 19.1589H26.2044C26.5823 19.1589 26.8887 18.8442 26.8887 18.4561C26.8887 18.2401 26.7936 18.0471 26.6443 17.9182C26.9393 17.604 27.1218 17.1779 27.1218 16.7081V13.4298V12.943V8.70276C27.1218 8.31467 26.8154 8 26.4375 8H18.3046C17.9267 8 17.6203 8.31467 17.6203 8.70276C17.6203 9.09085 17.9267 9.40552 18.3046 9.40552H25.7532V11.2309C25.6459 11.209 25.5352 11.1971 25.4218 11.1971H24.0696C24.0184 10.8609 23.7361 10.6034 23.3945 10.6034H20.3515C20.0098 10.6034 19.7275 10.8609 19.6763 11.1971H17.598C15.8632 11.1971 14.3602 11.6578 13.2516 12.5295C12.011 13.5049 11.3552 14.9263 11.3552 16.6398V17.7511C11.3552 17.9417 11.4294 18.1142 11.5492 18.2408C11.528 18.3087 11.5162 18.3809 11.5162 18.4561ZM12.7238 16.6398C12.7238 13.6632 15.2416 12.6026 17.598 12.6026H25.4218C25.6047 12.6026 25.7533 12.7553 25.7533 12.9429V13.4297V16.708C25.7533 16.8957 25.6046 17.0483 25.4218 17.0483H12.7238V16.6398Z" fill="white"/>
<path d="M28.2128 13.9256C28.3196 13.9256 28.4272 13.8894 28.5166 13.8148L30.0072 12.5738C30.2144 12.4012 30.2463 12.0889 30.0783 11.8761C29.9104 11.6633 29.6061 11.6306 29.3989 11.8031L27.9083 13.0441C27.7011 13.2167 27.6693 13.5291 27.8373 13.7419C27.9328 13.8628 28.0722 13.9256 28.2128 13.9256Z" fill="white"/>
<path d="M27.9083 16.8878L29.3989 18.1288C29.4884 18.2032 29.5959 18.2395 29.7027 18.2395C29.8434 18.2395 29.9828 18.1768 30.0783 18.0558C30.2462 17.8431 30.2144 17.5306 30.0072 17.3581L28.5166 16.117C28.3094 15.9446 28.0052 15.9772 27.8373 16.19C27.6693 16.4029 27.7011 16.7152 27.9083 16.8878Z" fill="white"/>
<path d="M28.5283 14.8252C28.5283 15.0991 28.7446 15.3212 29.0113 15.3212H31.2988C31.5655 15.3212 31.7818 15.0991 31.7818 14.8252C31.7818 14.5513 31.5655 14.3291 31.2988 14.3291H29.0113C28.7445 14.3291 28.5283 14.5512 28.5283 14.8252Z" fill="white"/>
</svg>
