<svg width="36" height="36" viewBox="0 0 36 36" fill="none" xmlns="http://www.w3.org/2000/svg">
<path d="M7.56241 31C6.69954 31 6 30.2725 6 29.3751V6.6249C6 5.72752 6.69954 5 7.56241 5H29.4382C30.3005 5 31 5.72752 31 6.6249V29.3751C31 30.2725 30.3005 31 29.4382 31H7.56241Z" stroke="white" stroke-width="0.600238"/>
<path d="M25.2648 23.9377C24.5428 23.9377 23.958 23.3434 23.958 22.6125C23.958 21.8796 24.5427 21.2866 25.2648 21.2866C25.9857 21.2866 26.5717 21.8796 26.5717 22.6125C26.5717 23.3434 25.9856 23.9377 25.2648 23.9377ZM15.7297 23.9377C15.0082 23.9377 14.4228 23.3434 14.4228 22.6125C14.4228 21.8796 15.0082 21.2866 15.7297 21.2866C16.4517 21.2866 17.0365 21.8796 17.0365 22.6125C17.0365 23.3434 16.4518 23.9377 15.7297 23.9377ZM15.8813 17.0189L15.9206 17.0144C17.4334 16.855 18.9731 16.774 20.4971 16.774C22.0218 16.774 23.562 16.855 25.0754 17.0151L25.1147 17.0195L26.0128 20.1888H14.9789L15.8813 17.0189ZM26.8044 20.1888L25.706 16.3082C23.9979 16.1044 22.2591 16 20.4976 16C18.7352 16 16.9971 16.1044 15.2892 16.3082L14.1902 20.1888C13.5311 20.1888 13 20.7305 13 21.3988V25.9091H14.1814L14.1808 27.8355C14.4697 27.9411 14.7743 28 15.1 28C15.4202 28 15.7341 27.9443 16.0187 27.8405V25.9085L24.9757 25.9066V27.8355C25.2653 27.9411 25.5692 28 25.895 28C26.2151 28 26.5284 27.9443 26.8136 27.8405L26.8142 25.9066H28V21.3988C28 20.7305 27.4641 20.1888 26.8044 20.1888Z" fill="white"/>
<path d="M11.7814 12.6131H12.499C13.4563 12.6131 14.2189 12.2835 14.2189 11.2378C14.2189 10.2204 13.4563 9.89081 12.499 9.89081H11.7814V12.6131ZM9 8H12.3195C15.5046 8 17 9.03171 17 11.2807C17 13.3009 15.46 14.5042 12.8579 14.5042H11.7814V18H9V8Z" fill="white"/>
</svg>
