<svg width="36" height="36" viewBox="0 0 36 36" fill="none" xmlns="http://www.w3.org/2000/svg">
<path d="M11.85 20.35H12.5H15.0035C15.2193 20.3485 15.4457 20.323 15.6846 20.2832C16.0753 20.2181 16.6057 20.0866 17.1433 19.8179L11.85 20.35ZM11.85 20.35V21M11.85 20.35V21M11.85 21V24.75C11.85 25.0814 11.5814 25.35 11.25 25.35C10.9186 25.35 10.65 25.0814 10.65 24.75V14.75C10.65 13.0379 12.0379 11.65 13.75 11.65L14.9997 11.65C14.9997 11.65 14.9998 11.65 14.9998 11.65C14.9999 11.65 14.9999 11.65 15 11.65C15.2145 11.6501 15.4417 11.6763 15.6846 11.7168L15.6846 11.7168C16.0754 11.7819 16.6057 11.9133 17.1433 12.1821C17.6834 12.4521 18.2415 12.8666 18.6633 13.4992L18.6633 13.4992M11.85 21L18.6633 13.4992M18.6633 13.4992C19.0876 14.1356 19.35 14.9573 19.35 15.9999C19.35 17.0425 19.0876 17.8642 18.6633 18.5007C18.2415 19.1333 17.6835 19.5477 17.1434 19.8178L18.6633 13.4992ZM11.85 18.5V19.1501L12.5001 19.15L15.0004 19.1497L15.0112 19.1497L15.022 19.1494C15.5684 19.1312 16.1242 18.9857 16.6067 18.7445L16.6068 18.7445C17.0044 18.5456 17.3837 18.2569 17.6649 17.835C17.9434 17.4171 18.15 16.8328 18.15 15.9999C18.15 15.1672 17.9434 14.5828 17.6649 14.1649L17.6648 14.1648C17.3837 13.7432 17.0046 13.4544 16.6067 13.2554C16.1242 13.0142 15.5683 12.8688 15.0222 12.8506L15.0114 12.8502L15.0006 12.8502L13.7501 12.85H13.75C12.7006 12.85 11.85 13.7007 11.85 14.75V18.5Z" stroke="white" stroke-width="1.3"/>
<path d="M25.1818 4.5C27.0145 4.5 28.5 5.9856 28.5 7.81818V28.1818C28.5 30.0145 27.0145 31.5 25.1818 31.5H4.81818C2.9856 31.5 1.5 30.0145 1.5 28.1818V7.81818C1.5 5.98561 2.98561 4.5 4.81818 4.5H25.1818ZM26.9545 7.81818C26.9545 6.83914 26.1609 6.04545 25.1818 6.04545H4.81818C3.83914 6.04545 3.04545 6.83914 3.04545 7.81818V28.1818C3.04545 29.1609 3.83914 29.9545 4.81818 29.9545H25.1818C26.1609 29.9545 26.9545 29.1609 26.9545 28.1818V7.81818Z" stroke="white"/>
</svg>
