<svg width="38" height="38" viewBox="0 0 38 38" fill="none" xmlns="http://www.w3.org/2000/svg">
<path d="M21.0793 16.5388C19.9357 16.5388 18.8605 17.0243 18.0027 17.9025C17.1472 17.0153 16.0845 16.5388 14.9203 16.5388C12.8877 16.5388 11.0921 18.0133 10.5538 20.1243C10.2718 21.2301 10.2128 22.9902 11.5325 25.0948C12.7113 26.9745 14.736 28.706 17.5502 30.2412C17.6901 30.3175 17.8445 30.3557 17.999 30.3557C18.1534 30.3557 18.3079 30.3175 18.4478 30.2413C21.2628 28.7061 23.2881 26.9746 24.4674 25.0949C25.7878 22.9903 25.7289 21.2303 25.447 20.1245C24.9085 18.0133 23.1125 16.5388 21.0793 16.5388ZM17.9989 28.3451C11.8473 24.83 12.1292 21.5315 12.3701 20.5874C12.6912 19.3276 13.7638 18.4133 14.9202 18.4133C15.7999 18.4133 16.6087 18.9486 17.1971 19.9207C17.3668 20.2011 17.6709 20.3724 17.9988 20.3726C18.3266 20.3726 18.6307 20.2014 18.8004 19.9211C19.3896 18.9487 20.1988 18.4133 21.0791 18.4133C22.2363 18.4133 23.3092 19.3276 23.6304 20.5874C23.8712 21.5314 24.1526 24.8298 17.9989 28.3451Z" fill="#EDE8E5"/>
<path d="M13.9572 14.9318C15.9721 14.9318 17.6113 13.2926 17.6113 11.2778C17.6113 9.26281 15.9721 7.62354 13.9572 7.62354C11.9421 7.62354 10.3027 9.26293 10.3027 11.2778C10.3027 13.2926 11.9421 14.9318 13.9572 14.9318ZM13.9572 9.49799C14.9386 9.49799 15.7369 10.2965 15.7369 11.2778C15.7369 12.2591 14.9385 13.0573 13.9572 13.0573C12.9757 13.0573 12.1772 12.2591 12.1772 11.2778C12.1772 10.2964 12.9756 9.49799 13.9572 9.49799Z" fill="#EDE8E5"/>
<path d="M22.0441 14.9318C24.059 14.9318 25.6983 13.2926 25.6983 11.2778C25.6983 9.26281 24.059 7.62354 22.0441 7.62354C20.0292 7.62354 18.3899 9.26293 18.3899 11.2778C18.3898 13.2926 20.029 14.9318 22.0441 14.9318ZM22.0441 9.49799C23.0254 9.49799 23.8238 10.2965 23.8238 11.2778C23.8238 12.2591 23.0254 13.0573 22.0441 13.0573C21.0626 13.0573 20.2643 12.2591 20.2643 11.2778C20.2642 10.2964 21.0626 9.49799 22.0441 9.49799Z" fill="#EDE8E5"/>
<path d="M7.38226 13.1643C5.51731 13.1643 4 14.6817 4 16.5469C4 18.4119 5.51731 19.9291 7.38226 19.9291C9.24747 19.9291 10.7648 18.4118 10.7648 16.5469C10.7649 14.6817 9.24747 13.1643 7.38226 13.1643ZM7.38226 18.0546C6.55088 18.0546 5.87445 17.3783 5.87445 16.5469C5.87445 15.7154 6.55088 15.0389 7.38226 15.0389C8.21377 15.0389 8.89032 15.7154 8.89032 16.5469C8.89045 17.3783 8.21389 18.0546 7.38226 18.0546Z" fill="#EDE8E5"/>
<path d="M28.6176 13.1641C26.7525 13.1641 25.2354 14.6815 25.2354 16.5466C25.2354 18.4115 26.7527 19.9287 28.6176 19.9287C30.4828 19.9287 32.0001 18.4114 32.0001 16.5466C32.0001 14.6815 30.4828 13.1641 28.6176 13.1641ZM28.6176 18.0544C27.7862 18.0544 27.1098 17.378 27.1098 16.5467C27.1098 15.7152 27.7862 15.0386 28.6176 15.0386C29.4491 15.0386 30.1257 15.7152 30.1257 16.5467C30.1257 17.3781 29.4491 18.0544 28.6176 18.0544Z" fill="#EDE8E5"/>
</svg>
