<svg width="36" height="36" viewBox="0 0 36 36" fill="none" xmlns="http://www.w3.org/2000/svg">
<path d="M36 29.9233H5V32.7673H36V29.9233Z" fill="white"/>
<path d="M15.8379 10.5789C15.8379 10.5789 18.6636 11.1444 22.3363 7.47101C24.0317 9.73183 25.1621 10.8616 25.1621 10.8616V14.2533C26.2969 13.0835 26.9985 11.4904 26.9985 9.73177C26.9985 6.14225 24.0889 3.23267 20.5 3.23267C16.9111 3.23267 14.0015 6.14225 14.0015 9.73177C14.0015 11.4904 14.703 13.0835 15.8379 14.2533V10.5789Z" fill="white"/>
<path d="M24.8583 18.0767C24.4021 18.326 20.4998 26.8931 20.4998 26.8931C20.4998 26.8931 16.5979 18.326 16.1415 18.0767C11.7488 19.6614 11.5527 23.2115 11.5527 28.7856H29.4474C29.4474 23.2114 29.2513 19.6614 24.8583 18.0767Z" fill="white"/>
<path d="M18.5544 17.6938V20.2879L20.5 19.6264L22.4455 20.2879V17.6938L20.5 18.3554L18.5544 17.6938Z" fill="white"/>
</svg>
