<svg width="36" height="36" viewBox="0 0 36 36" fill="none" xmlns="http://www.w3.org/2000/svg">
<path d="M22.9283 17.5417C23.4647 17.5481 23.997 17.4504 24.4938 17.2543C24.9906 17.0581 25.4418 16.7675 25.8208 16.3997L29.6106 12.727C29.86 12.4839 30 12.1549 30 11.8121C30 11.4692 29.86 11.1403 29.6106 10.8972C29.4861 10.7755 29.338 10.679 29.1748 10.6131C29.0116 10.5472 28.8366 10.5133 28.6598 10.5133C28.483 10.5133 28.308 10.5472 28.1448 10.6131C27.9816 10.679 27.8335 10.7755 27.709 10.8972L23.8791 14.5569C23.7546 14.6785 23.6065 14.775 23.4433 14.8409C23.2801 14.9068 23.1051 14.9407 22.9283 14.9407C22.7515 14.9407 22.5765 14.9068 22.4133 14.8409C22.2501 14.775 22.102 14.6785 21.9775 14.5569L26.7181 9.97575C26.8429 9.85475 26.942 9.7111 27.0095 9.553C27.0771 9.3949 27.1119 9.22546 27.1119 9.05433C27.1119 8.88321 27.0771 8.71377 27.0095 8.55567C26.942 8.39757 26.8429 8.25392 26.7181 8.13292C26.5932 8.01192 26.445 7.91594 26.2818 7.85045C26.1187 7.78497 25.9439 7.75126 25.7673 7.75126C25.5907 7.75126 25.4158 7.78497 25.2527 7.85045C25.0896 7.91594 24.9413 8.01192 24.8165 8.13292L20.0893 12.727C19.8399 12.4839 19.6999 12.1549 19.6999 11.8121C19.6999 11.4692 19.8399 11.1403 20.0893 10.8972L23.8791 7.22449C24.004 7.10349 24.103 6.95984 24.1706 6.80174C24.2381 6.64364 24.2729 6.4742 24.2729 6.30307C24.2729 6.13195 24.2381 5.96251 24.1706 5.80441C24.103 5.64631 24.004 5.50266 23.8791 5.38166C23.7542 5.26066 23.606 5.16468 23.4429 5.09919C23.2797 5.03371 23.1049 5 22.9283 5C22.7517 5 22.5769 5.03371 22.4138 5.09919C22.2506 5.16468 22.1024 5.26066 21.9775 5.38166L18.1878 9.05433C17.4355 9.78433 17.0129 10.7739 17.0129 11.8056C17.0129 12.8373 17.4355 13.8269 18.1878 14.5569L16.4469 16.231L5.37226 5.45953L5.23835 5.38166C5.16989 5.32378 5.09323 5.27571 5.0107 5.23891L4.76965 5.14806L4.60896 5.04424H4.51522H4.24739C4.16755 5.03187 4.08619 5.03187 4.00635 5.04424C3.92528 5.07284 3.84867 5.11214 3.77869 5.16104L3.56443 5.29082H3.47069L3.39035 5.42059C3.33367 5.48912 3.28431 5.56303 3.24304 5.64121C3.20382 5.72035 3.17244 5.80291 3.1493 5.88779C3.1493 5.88779 3.1493 5.97863 3.1493 6.03054C2.82434 8.2256 3.03153 10.4638 3.75443 12.5678C4.47733 14.6717 5.69606 16.5836 7.31401 18.1517L10.8493 21.5648L3.60461 28.5727C3.47909 28.6934 3.37947 28.8369 3.31148 28.995C3.2435 29.1532 3.20849 29.3228 3.20849 29.4941C3.20849 29.6654 3.2435 29.8351 3.31148 29.9932C3.37947 30.1514 3.47909 30.2949 3.60461 30.4155C3.72974 30.5358 3.87813 30.631 4.04129 30.6956C4.20445 30.7601 4.37915 30.7929 4.55539 30.7919C4.73163 30.7929 4.90634 30.7601 5.06949 30.6956C5.23265 30.631 5.38105 30.5358 5.50618 30.4155L13.6347 22.6549L17.4245 18.9822L20.1027 16.3867C20.85 17.1186 21.8659 17.5339 22.9283 17.5417ZM12.6839 19.9036L9.16201 16.4775C7.2316 14.5812 6.02288 12.1057 5.73383 9.45664L14.5855 18.0219L12.6839 19.9036ZM21.0401 20.6434C20.788 20.3973 20.4453 20.2583 20.0874 20.2571C19.7295 20.2559 19.3858 20.3925 19.1319 20.6369C18.8779 20.8813 18.7346 21.2134 18.7333 21.5602C18.732 21.907 18.873 22.2401 19.1252 22.4862L27.5617 30.6621C27.8175 30.8877 28.1534 31.0086 28.4991 30.9995C28.6753 31.0005 28.8501 30.9678 29.0132 30.9032C29.1764 30.8386 29.3248 30.7435 29.4499 30.6232C29.5754 30.5025 29.675 30.359 29.743 30.2009C29.811 30.0427 29.846 29.8731 29.846 29.7018C29.846 29.5304 29.811 29.3608 29.743 29.2027C29.675 29.0445 29.5754 28.901 29.4499 28.7804L21.0401 20.6434Z" fill="white"/>
</svg>
