<svg width="36" height="36" viewBox="0 0 36 36" fill="none" xmlns="http://www.w3.org/2000/svg">
<path d="M33 21.6735V16.5332H32.3843C30.5041 16.5332 28.7965 17.2712 27.5229 18.4665H18.9833V10.7332H31.2677C31.6283 10.7332 31.9366 10.4877 32.0173 10.1358C32.0981 9.78398 31.9269 9.42873 31.6017 9.27161L18.7102 3.04822C18.5773 2.98393 18.4227 2.98393 18.2903 3.04822L5.39829 9.27161C5.07351 9.42867 4.9024 9.78392 4.98311 10.1358C5.06337 10.4877 5.37172 10.7332 5.73275 10.7332H18.0167V18.4665H9.4776C8.20353 17.2712 6.49638 16.5332 4.61574 16.5332H4V21.6735C4 22.9987 5.0039 24.0829 6.28856 24.2356L4.49781 31.3996C4.43307 31.6582 4.59059 31.9207 4.84967 31.9854C4.8888 31.9951 4.92845 31.9999 4.96714 31.9999C5.18368 31.9999 5.3809 31.8534 5.43595 31.6336L7.16678 24.7098L9.33889 31.6606C9.40363 31.868 9.59411 31.9999 9.8 31.9999C9.84786 31.9999 9.89669 31.9927 9.94449 31.9776C10.1988 31.8984 10.3408 31.6272 10.2616 31.3725L8.04069 24.2666H11.7334V23.6508C11.7334 22.8509 11.5952 22.0848 11.3506 21.3666H15.6V23.2999H17.05V27.1666C17.05 29.2986 15.3153 31.0333 13.1833 31.0333H12.2166C11.9499 31.0333 11.7333 31.2493 11.7333 31.5166C11.7333 31.7839 11.9499 31.9999 12.2166 31.9999H13.1833H23.8166H24.7833C25.0506 31.9999 25.2666 31.7839 25.2666 31.5166C25.2666 31.2493 25.0506 31.0333 24.7833 31.0333H23.8166C21.6846 31.0333 19.9499 29.2986 19.9499 27.1666V23.2999H21.3999V21.3666H25.6494C25.4053 22.0848 25.2666 22.8509 25.2666 23.6508V24.2666H28.5146L26.7311 31.3996C26.6664 31.6582 26.8239 31.9207 27.083 31.9854C27.1221 31.9951 27.1618 31.9999 27.2005 31.9999C27.417 31.9999 27.6142 31.8534 27.6693 31.6336L29.4001 24.7098L31.5722 31.6606C31.6369 31.868 31.8274 31.9999 32.0333 31.9999C32.0812 31.9999 32.13 31.9927 32.1778 31.9776C32.4325 31.8984 32.5741 31.6272 32.4949 31.3725L30.2739 24.2665H30.4069C31.8366 24.2666 33 23.1032 33 21.6735ZM26.563 19.5686C26.5093 19.6445 26.4581 19.7218 26.4073 19.7996C26.3551 19.8818 26.3049 19.9649 26.256 20.049C26.1917 20.1583 26.1284 20.267 26.07 20.3796C26.0661 20.3864 26.0618 20.3932 26.0584 20.3999H21.4H15.6H10.9421C10.9383 20.3932 10.9339 20.3864 10.9305 20.3796C10.872 20.267 10.8087 20.1583 10.7444 20.049C10.6951 19.9649 10.6454 19.8818 10.5926 19.7996C10.5424 19.7218 10.4906 19.6445 10.4375 19.5686C10.4061 19.5241 10.3785 19.4768 10.3466 19.4333H26.6538C26.6219 19.4767 26.5939 19.5241 26.563 19.5686Z" fill="white"/>
</svg>
