<svg width="36" height="36" viewBox="0 0 36 36" fill="none" xmlns="http://www.w3.org/2000/svg">
<path fill-rule="evenodd" clip-rule="evenodd" d="M16.875 7.875C16.875 9.11764 15.8676 10.125 14.625 10.125C13.3824 10.125 12.375 9.11764 12.375 7.875C12.375 6.63235 13.3824 5.625 14.625 5.625C15.8676 5.625 16.875 6.63235 16.875 7.875ZM19.125 7.875C19.125 9.97182 17.6909 11.7337 15.75 12.2332V14.625H23.0625V16.875H15.75V21.375H26.7974L27.9224 27H29.25V29.25H26.0776L24.9526 23.625H23.625C23.625 28.5956 19.5955 32.625 14.625 32.625C9.65444 32.625 5.625 28.5956 5.625 23.625C5.625 19.0354 9.06041 15.2483 13.5 14.6946V12.2332C11.5591 11.7337 10.125 9.97182 10.125 7.875C10.125 5.38972 12.1397 3.375 14.625 3.375C17.1103 3.375 19.125 5.38972 19.125 7.875ZM13.5 23.625H21.375C21.375 27.353 18.353 30.375 14.625 30.375C10.8971 30.375 7.875 27.353 7.875 23.625C7.875 20.2804 10.3076 17.5039 13.5 16.9683V23.625Z" fill="white"/>
</svg>
