<svg width="38" height="38" viewBox="0 0 38 38" fill="none" xmlns="http://www.w3.org/2000/svg">
<path d="M33.9695 29.1317L33.9695 29.1317C33.7384 28.9126 33.3762 28.9256 33.1608 29.159L33.1603 29.1595L33.158 29.1619L33.1496 29.1707C33.1423 29.1783 33.1316 29.1892 33.1177 29.2032C33.0898 29.2312 33.0486 29.2716 32.9941 29.323C32.8852 29.4259 32.723 29.5724 32.507 29.7506C32.1137 30.0751 31.5422 30.5045 30.7894 30.9655V27.3012C31.6379 27.0795 32.2641 26.2973 32.2641 25.3713V22.2974C32.2641 21.3713 31.6379 20.589 30.7894 20.3674V6.91792C31.6416 6.66623 32.2641 5.86729 32.2641 4.92513C32.2641 3.78298 31.3485 2.85 30.2181 2.85C29.0877 2.85 28.1722 3.78298 28.1722 4.92513C28.1722 5.86729 28.7946 6.66623 29.6468 6.91792V7.64144H8.35352V6.91792C9.20567 6.66623 9.82815 5.86729 9.82815 4.92513C9.82815 3.78299 8.91275 2.85 7.7822 2.85C6.65164 2.85 5.73625 3.78299 5.73625 4.92513C5.73625 5.86729 6.35872 6.66623 7.21087 6.91792V20.3672C6.36247 20.589 5.73625 21.3711 5.73625 22.2972V25.3711C5.73625 26.2676 6.32309 27.029 7.12981 27.278V30.8523C6.40664 30.413 5.85311 30.0083 5.47015 29.7033C5.25919 29.5353 5.10002 29.3976 4.9928 29.3011C4.93918 29.2528 4.89857 29.2148 4.87096 29.1885C4.85716 29.1754 4.84662 29.1652 4.83934 29.158L4.83091 29.1497L4.82858 29.1474L4.82828 29.1471C4.82812 29.1469 4.82795 29.1468 4.82779 29.1466C4.60558 28.9192 4.24332 28.9172 4.01884 29.1425C3.79554 29.3667 3.79343 29.7314 4.01432 29.958H4.01432C4.23602 30.1855 9.19421 35.15 19.1416 35.15C29.0972 35.15 33.7863 30.1757 33.9974 29.9459L33.9975 29.9459C34.2113 29.7131 34.1988 29.3493 33.9695 29.1317ZM19.1416 33.9944C14.2915 33.9944 10.6627 32.7303 8.27229 31.4933L8.27246 27.928C8.32391 27.8411 8.35352 27.7394 8.35352 27.6311V27.3639H29.6468V31.6083C27.3279 32.8064 23.8434 33.9944 19.1416 33.9944ZM29.6468 26.2083H8.35352V21.4602H29.6468V26.2083ZM30.7893 26.0427V21.6256C30.9904 21.7782 31.1213 22.0222 31.1213 22.2972V25.3711C31.1213 25.6461 30.9903 25.8901 30.7893 26.0427ZM6.87889 22.2972C6.87889 22.0222 7.00985 21.7782 7.21087 21.6256V26.0427C7.00985 25.8901 6.87889 25.6461 6.87889 25.3711V22.2972ZM29.6466 8.79706V20.3045H27.7871V8.79706H29.6466ZM26.6445 8.79706V20.3045H24.5008V8.79706H26.6445ZM23.3581 8.79706V20.3045H21.2145V8.79706H23.3581ZM20.0718 8.79706V20.3045H17.9282V8.79706H20.0718ZM16.7855 8.79706V20.3045H14.6418V8.79706H16.7855ZM13.4992 20.3045H11.3555V8.79706H13.4992V20.3045ZM10.2129 8.79706V20.3045H8.35352V8.79706H10.2129ZM29.3146 4.92513C29.3146 4.41612 29.7222 4.00561 30.218 4.00561C30.7139 4.00561 31.1213 4.4161 31.1213 4.92513C31.1213 5.43415 30.7137 5.84465 30.218 5.84465C29.7222 5.84465 29.3146 5.43415 29.3146 4.92513ZM6.87889 4.92513C6.87889 4.41612 7.28644 4.00561 7.7822 4.00561C8.27795 4.00561 8.6855 4.41612 8.6855 4.92513C8.6855 5.43415 8.27795 5.84465 7.7822 5.84465C7.28644 5.84465 6.87889 5.43415 6.87889 4.92513Z" fill="#EDE8E5" stroke="#EDE8E5" stroke-width="0.3"/>
</svg>
