<svg width="36" height="36" viewBox="0 0 36 36" fill="none" xmlns="http://www.w3.org/2000/svg">
<mask id="path-1-inside-1_1143_596" fill="white">
<path d="M32.5271 27.3989H29.2076V15.8582H30.7587V23.552C30.7587 23.8947 31.0366 24.1725 31.3792 24.1725C31.7218 24.1725 31.9997 23.8947 31.9997 23.552V15.8582H32.527C32.8697 15.8582 33.1475 15.5804 33.1475 15.2377C33.1475 14.8951 32.8697 14.6173 32.527 14.6173H26.4464V5.62046C26.4464 5.27777 26.1686 5 25.826 5H9.32156C8.97894 5 8.7011 5.27777 8.7011 5.62046V14.6172H2.62046C2.27783 14.6172 2 14.8951 2 15.2377C2 15.5804 2.27783 15.8582 2.62046 15.8582H3.14784V27.3989H2.62046C2.27783 27.3989 2 27.6767 2 28.0194V30.4392C2 30.7819 2.27783 31.0597 2.62046 31.0597H32.5271C32.8697 31.0597 33.1475 30.7819 33.1475 30.4392V28.0194C33.1475 27.6767 32.8697 27.3989 32.5271 27.3989ZM26.4465 15.8582H27.9667V27.3989H26.4465V15.8582ZM9.94202 6.24091H25.2055V14.6172H23.7126V8.47459C23.7126 8.13191 23.4347 7.85414 23.0921 7.85414H12.0554C11.7128 7.85414 11.435 8.13191 11.435 8.47459V14.6172H9.94202V6.24091ZM25.2055 15.8582V27.3989H23.7126V15.8582H25.2055ZM18.1632 14.6172V9.09505H22.4716V14.6172H18.1632ZM22.4716 15.8582V27.3989H20.9553V15.8582H22.4716ZM19.7144 15.8582V27.3989H18.1632V15.8582H19.7144ZM12.6759 14.6172V9.09505H16.9223V14.6172H12.6759ZM16.9223 15.8582V27.3989H15.4332V15.8582H16.9223ZM14.1922 15.8582V27.3989H12.6759V15.8582H14.1922ZM9.94202 15.8582H11.435V27.3989H9.94202V15.8582ZM7.11884 15.8582H8.70104V27.3989H7.11884V15.8582ZM4.38881 15.8582H5.87793V27.3989H4.38881V15.8582ZM31.9066 29.8188H3.24091V28.6399H31.9066L31.9066 29.8188Z"/>
</mask>
<path d="M32.5271 27.3989H29.2076V15.8582H30.7587V23.552C30.7587 23.8947 31.0366 24.1725 31.3792 24.1725C31.7218 24.1725 31.9997 23.8947 31.9997 23.552V15.8582H32.527C32.8697 15.8582 33.1475 15.5804 33.1475 15.2377C33.1475 14.8951 32.8697 14.6173 32.527 14.6173H26.4464V5.62046C26.4464 5.27777 26.1686 5 25.826 5H9.32156C8.97894 5 8.7011 5.27777 8.7011 5.62046V14.6172H2.62046C2.27783 14.6172 2 14.8951 2 15.2377C2 15.5804 2.27783 15.8582 2.62046 15.8582H3.14784V27.3989H2.62046C2.27783 27.3989 2 27.6767 2 28.0194V30.4392C2 30.7819 2.27783 31.0597 2.62046 31.0597H32.5271C32.8697 31.0597 33.1475 30.7819 33.1475 30.4392V28.0194C33.1475 27.6767 32.8697 27.3989 32.5271 27.3989ZM26.4465 15.8582H27.9667V27.3989H26.4465V15.8582ZM9.94202 6.24091H25.2055V14.6172H23.7126V8.47459C23.7126 8.13191 23.4347 7.85414 23.0921 7.85414H12.0554C11.7128 7.85414 11.435 8.13191 11.435 8.47459V14.6172H9.94202V6.24091ZM25.2055 15.8582V27.3989H23.7126V15.8582H25.2055ZM18.1632 14.6172V9.09505H22.4716V14.6172H18.1632ZM22.4716 15.8582V27.3989H20.9553V15.8582H22.4716ZM19.7144 15.8582V27.3989H18.1632V15.8582H19.7144ZM12.6759 14.6172V9.09505H16.9223V14.6172H12.6759ZM16.9223 15.8582V27.3989H15.4332V15.8582H16.9223ZM14.1922 15.8582V27.3989H12.6759V15.8582H14.1922ZM9.94202 15.8582H11.435V27.3989H9.94202V15.8582ZM7.11884 15.8582H8.70104V27.3989H7.11884V15.8582ZM4.38881 15.8582H5.87793V27.3989H4.38881V15.8582ZM31.9066 29.8188H3.24091V28.6399H31.9066L31.9066 29.8188Z" fill="white"/>
<path d="M29.2076 27.3989H26.2076V30.3989H29.2076V27.3989ZM29.2076 15.8582V12.8582H26.2076V15.8582H29.2076ZM30.7587 15.8582H33.7587V12.8582H30.7587V15.8582ZM31.9997 15.8582V12.8582H28.9997V15.8582H31.9997ZM26.4464 14.6173H23.4464V17.6173H26.4464V14.6173ZM8.7011 14.6172V17.6172H11.7011V14.6172H8.7011ZM3.14784 15.8582H6.14784V12.8582H3.14784V15.8582ZM3.14784 27.3989V30.3989H6.14784V27.3989H3.14784ZM2.62046 27.3989V30.3989V27.3989ZM26.4465 15.8582V12.8582H23.4465V15.8582H26.4465ZM27.9667 15.8582H30.9667V12.8582H27.9667V15.8582ZM27.9667 27.3989V30.3989H30.9667V27.3989H27.9667ZM26.4465 27.3989H23.4465V30.3989H26.4465V27.3989ZM9.94202 6.24091V3.24091H6.94202V6.24091H9.94202ZM25.2055 6.24091H28.2055V3.24091H25.2055V6.24091ZM25.2055 14.6172V17.6172H28.2055V14.6172H25.2055ZM23.7126 14.6172H20.7126V17.6172H23.7126V14.6172ZM11.435 14.6172V17.6172H14.435V14.6172H11.435ZM9.94202 14.6172H6.94202V17.6172H9.94202V14.6172ZM25.2055 15.8582H28.2055V12.8582H25.2055V15.8582ZM25.2055 27.3989V30.3989H28.2055V27.3989H25.2055ZM23.7126 27.3989H20.7126V30.3989H23.7126V27.3989ZM23.7126 15.8582V12.8582H20.7126V15.8582H23.7126ZM18.1632 14.6172H15.1632V17.6172H18.1632V14.6172ZM18.1632 9.09505V6.09505H15.1632V9.09505H18.1632ZM22.4716 9.09505H25.4716V6.09505H22.4716V9.09505ZM22.4716 14.6172V17.6172H25.4716V14.6172H22.4716ZM22.4716 15.8582H25.4716V12.8582H22.4716V15.8582ZM22.4716 27.3989V30.3989H25.4716V27.3989H22.4716ZM20.9553 27.3989H17.9553V30.3989H20.9553V27.3989ZM20.9553 15.8582V12.8582H17.9553V15.8582H20.9553ZM19.7144 15.8582H22.7144V12.8582H19.7144V15.8582ZM19.7144 27.3989V30.3989H22.7144V27.3989H19.7144ZM18.1632 27.3989H15.1632V30.3989H18.1632V27.3989ZM18.1632 15.8582V12.8582H15.1632V15.8582H18.1632ZM12.6759 14.6172H9.67594V17.6172H12.6759V14.6172ZM12.6759 9.09505V6.09505H9.67594V9.09505H12.6759ZM16.9223 9.09505H19.9223V6.09505H16.9223V9.09505ZM16.9223 14.6172V17.6172H19.9223V14.6172H16.9223ZM16.9223 15.8582H19.9223V12.8582H16.9223V15.8582ZM16.9223 27.3989V30.3989H19.9223V27.3989H16.9223ZM15.4332 27.3989H12.4332V30.3989H15.4332V27.3989ZM15.4332 15.8582V12.8582H12.4332V15.8582H15.4332ZM14.1922 15.8582H17.1922V12.8582H14.1922V15.8582ZM14.1922 27.3989V30.3989H17.1922V27.3989H14.1922ZM12.6759 27.3989H9.67594V30.3989H12.6759V27.3989ZM12.6759 15.8582V12.8582H9.67594V15.8582H12.6759ZM9.94202 15.8582V12.8582H6.94202V15.8582H9.94202ZM11.435 15.8582H14.435V12.8582H11.435V15.8582ZM11.435 27.3989V30.3989H14.435V27.3989H11.435ZM9.94202 27.3989H6.94202V30.3989H9.94202V27.3989ZM7.11884 15.8582V12.8582H4.11884V15.8582H7.11884ZM8.70104 15.8582H11.701V12.8582H8.70104V15.8582ZM8.70104 27.3989V30.3989H11.701V27.3989H8.70104ZM7.11884 27.3989H4.11884V30.3989H7.11884V27.3989ZM4.38881 15.8582V12.8582H1.38881V15.8582H4.38881ZM5.87793 15.8582H8.87793V12.8582H5.87793V15.8582ZM5.87793 27.3989V30.3989H8.87793V27.3989H5.87793ZM4.38881 27.3989H1.38881V30.3989H4.38881V27.3989ZM31.9066 29.8188V32.8188H34.9068L34.9066 29.8186L31.9066 29.8188ZM3.24091 29.8188H0.240914V32.8188H3.24091V29.8188ZM3.24091 28.6399V25.6399H0.240914V28.6399H3.24091ZM31.9066 28.6399L34.9066 28.6397L34.9064 25.6399H31.9066V28.6399ZM32.5271 24.3989H29.2076V30.3989H32.5271V24.3989ZM32.2076 27.3989V15.8582H26.2076V27.3989H32.2076ZM29.2076 18.8582H30.7587V12.8582H29.2076V18.8582ZM27.7587 15.8582V23.552H33.7587V15.8582H27.7587ZM27.7587 23.552C27.7587 25.5518 29.3799 27.1725 31.3792 27.1725V21.1725C32.6932 21.1725 33.7587 22.2376 33.7587 23.552H27.7587ZM31.3792 27.1725C33.3785 27.1725 34.9997 25.5518 34.9997 23.552H28.9997C28.9997 22.2376 30.0652 21.1725 31.3792 21.1725V27.1725ZM34.9997 23.552V15.8582H28.9997V23.552H34.9997ZM31.9997 18.8582H32.527V12.8582H31.9997V18.8582ZM32.527 18.8582C34.5263 18.8582 36.1475 17.2375 36.1475 15.2377H30.1475C30.1475 13.9234 31.213 12.8582 32.527 12.8582V18.8582ZM36.1475 15.2377C36.1475 13.238 34.5263 11.6173 32.527 11.6173V17.6173C31.213 17.6173 30.1475 16.5521 30.1475 15.2377H36.1475ZM32.527 11.6173H26.4464V17.6173H32.527V11.6173ZM29.4464 14.6173V5.62046H23.4464V14.6173H29.4464ZM29.4464 5.62046C29.4464 3.62073 27.8253 2 25.826 2V8C24.5119 8 23.4464 6.93482 23.4464 5.62046H29.4464ZM25.826 2H9.32156V8H25.826V2ZM9.32156 2C7.32227 2 5.7011 3.62073 5.7011 5.62046H11.7011C11.7011 6.93482 10.6356 8 9.32156 8V2ZM5.7011 5.62046V14.6172H11.7011V5.62046H5.7011ZM8.7011 11.6172H2.62046V17.6172H8.7011V11.6172ZM2.62046 11.6172C0.620787 11.6172 -1 13.2384 -1 15.2377H5C5 16.5517 3.93488 17.6172 2.62046 17.6172V11.6172ZM-1 15.2377C-1 17.2375 0.621171 18.8582 2.62046 18.8582V12.8582C3.9345 12.8582 5 13.9234 5 15.2377H-1ZM2.62046 18.8582H3.14784V12.8582H2.62046V18.8582ZM0.147836 15.8582V27.3989H6.14784V15.8582H0.147836ZM3.14784 24.3989H2.62046V30.3989H3.14784V24.3989ZM2.62046 24.3989C0.621147 24.3989 -1 26.0197 -1 28.0194H5C5 29.3337 3.93452 30.3989 2.62046 30.3989V24.3989ZM-1 28.0194V30.4392H5V28.0194H-1ZM-1 30.4392C-1 32.4389 0.621159 34.0597 2.62046 34.0597V28.0597C3.93451 28.0597 5 29.1249 5 30.4392H-1ZM2.62046 34.0597H32.5271V28.0597H2.62046V34.0597ZM32.5271 34.0597C34.5264 34.0597 36.1475 32.4389 36.1475 30.4392H30.1475C30.1475 29.1249 31.213 28.0597 32.5271 28.0597V34.0597ZM36.1475 30.4392V28.0194H30.1475V30.4392H36.1475ZM36.1475 28.0194C36.1475 26.0197 34.5264 24.3989 32.5271 24.3989V30.3989C31.213 30.3989 30.1475 29.3337 30.1475 28.0194H36.1475ZM26.4465 18.8582H27.9667V12.8582H26.4465V18.8582ZM24.9667 15.8582V27.3989H30.9667V15.8582H24.9667ZM27.9667 24.3989H26.4465V30.3989H27.9667V24.3989ZM29.4465 27.3989V15.8582H23.4465V27.3989H29.4465ZM9.94202 9.24091H25.2055V3.24091H9.94202V9.24091ZM22.2055 6.24091V14.6172H28.2055V6.24091H22.2055ZM25.2055 11.6172H23.7126V17.6172H25.2055V11.6172ZM26.7126 14.6172V8.47459H20.7126V14.6172H26.7126ZM26.7126 8.47459C26.7126 6.47485 25.0914 4.85414 23.0921 4.85414V10.8541C21.7781 10.8541 20.7126 9.78897 20.7126 8.47459H26.7126ZM23.0921 4.85414H12.0554V10.8541H23.0921V4.85414ZM12.0554 4.85414C10.0561 4.85414 8.43497 6.47487 8.43497 8.47459H14.435C14.435 9.78895 13.3695 10.8541 12.0554 10.8541V4.85414ZM8.43497 8.47459V14.6172H14.435V8.47459H8.43497ZM11.435 11.6172H9.94202V17.6172H11.435V11.6172ZM12.942 14.6172V6.24091H6.94202V14.6172H12.942ZM22.2055 15.8582V27.3989H28.2055V15.8582H22.2055ZM25.2055 24.3989H23.7126V30.3989H25.2055V24.3989ZM26.7126 27.3989V15.8582H20.7126V27.3989H26.7126ZM23.7126 18.8582H25.2055V12.8582H23.7126V18.8582ZM21.1632 14.6172V9.09505H15.1632V14.6172H21.1632ZM18.1632 12.0951H22.4716V6.09505H18.1632V12.0951ZM19.4716 9.09505V14.6172H25.4716V9.09505H19.4716ZM22.4716 11.6172H18.1632V17.6172H22.4716V11.6172ZM19.4716 15.8582V27.3989H25.4716V15.8582H19.4716ZM22.4716 24.3989H20.9553V30.3989H22.4716V24.3989ZM23.9553 27.3989V15.8582H17.9553V27.3989H23.9553ZM20.9553 18.8582H22.4716V12.8582H20.9553V18.8582ZM16.7144 15.8582V27.3989H22.7144V15.8582H16.7144ZM19.7144 24.3989H18.1632V30.3989H19.7144V24.3989ZM21.1632 27.3989V15.8582H15.1632V27.3989H21.1632ZM18.1632 18.8582H19.7144V12.8582H18.1632V18.8582ZM15.6759 14.6172V9.09505H9.67594V14.6172H15.6759ZM12.6759 12.0951H16.9223V6.09505H12.6759V12.0951ZM13.9223 9.09505V14.6172H19.9223V9.09505H13.9223ZM16.9223 11.6172H12.6759V17.6172H16.9223V11.6172ZM13.9223 15.8582V27.3989H19.9223V15.8582H13.9223ZM16.9223 24.3989H15.4332V30.3989H16.9223V24.3989ZM18.4332 27.3989V15.8582H12.4332V27.3989H18.4332ZM15.4332 18.8582H16.9223V12.8582H15.4332V18.8582ZM11.1922 15.8582V27.3989H17.1922V15.8582H11.1922ZM14.1922 24.3989H12.6759V30.3989H14.1922V24.3989ZM15.6759 27.3989V15.8582H9.67594V27.3989H15.6759ZM12.6759 18.8582H14.1922V12.8582H12.6759V18.8582ZM9.94202 18.8582H11.435V12.8582H9.94202V18.8582ZM8.43497 15.8582V27.3989H14.435V15.8582H8.43497ZM11.435 24.3989H9.94202V30.3989H11.435V24.3989ZM12.942 27.3989V15.8582H6.94202V27.3989H12.942ZM7.11884 18.8582H8.70104V12.8582H7.11884V18.8582ZM5.70104 15.8582V27.3989H11.701V15.8582H5.70104ZM8.70104 24.3989H7.11884V30.3989H8.70104V24.3989ZM10.1188 27.3989V15.8582H4.11884V27.3989H10.1188ZM4.38881 18.8582H5.87793V12.8582H4.38881V18.8582ZM2.87793 15.8582V27.3989H8.87793V15.8582H2.87793ZM5.87793 24.3989H4.38881V30.3989H5.87793V24.3989ZM7.38881 27.3989V15.8582H1.38881V27.3989H7.38881ZM31.9066 26.8188H3.24091V32.8188H31.9066V26.8188ZM6.24091 29.8188V28.6399H0.240914V29.8188H6.24091ZM3.24091 31.6399H31.9066V25.6399H3.24091V31.6399ZM28.9066 28.6401L28.9066 29.8189L34.9066 29.8186L34.9066 28.6397L28.9066 28.6401Z" fill="white" mask="url(#path-1-inside-1_1143_596)"/>
<path d="M31.3792 24.9172C31.0366 24.9172 30.7588 25.195 30.7588 25.5377V25.972C30.7588 26.3147 31.0366 26.5925 31.3792 26.5925C31.7219 26.5925 31.9997 26.3147 31.9997 25.972V25.5377C31.9997 25.195 31.7219 24.9172 31.3792 24.9172Z" fill="white"/>
</svg>
