<svg width="48" height="48" viewBox="0 0 38 38" fill="none" xmlns="http://www.w3.org/2000/svg">
<path d="M11 29H26" stroke="#EDE8E5" stroke-width="2" stroke-miterlimit="10" stroke-linecap="round" stroke-linejoin="round"/>
<path d="M11 15V19.96C11 23.8 14.1111 27 18 27C21.8889 27 25 23.8 25 19.96V15H11Z" stroke="#EDE8E5" stroke-width="2" stroke-miterlimit="10" stroke-linecap="round" stroke-linejoin="round"/>
<path d="M27.5 23C26.0833 23 25 21.9889 25 20.6667V18.3333C25 17.0889 26.0833 16 27.5 16C28.8333 16 30 17.0111 30 18.3333V20.6667C30 21.9889 28.9167 23 27.5 23Z" stroke="#EDE8E5" stroke-width="2" stroke-miterlimit="10" stroke-linecap="round" stroke-linejoin="round"/>
<path d="M18 8C18 9.5 18 11.5 18 13" stroke="#EDE8E5" stroke-width="2" stroke-miterlimit="10" stroke-linecap="round" stroke-linejoin="round"/>
<path d="M15 8C15 9.5 15 11.5 15 13" stroke="#EDE8E5" stroke-width="2" stroke-miterlimit="10" stroke-linecap="round" stroke-linejoin="round"/>
<path d="M21 8C21 9.5 21 11.5 21 13" stroke="#EDE8E5" stroke-width="2" stroke-miterlimit="10" stroke-linecap="round" stroke-linejoin="round"/>
</svg>
