<svg width="38" height="38" viewBox="0 0 38 38" fill="none" xmlns="http://www.w3.org/2000/svg">
<path d="M32.6739 10.1601L32.6676 10.141L32.6564 10.1243C32.595 10.0322 32.5069 9.96048 32.4165 9.91183C32.3269 9.86355 32.2235 9.83184 32.1254 9.83184H26.4381C25.3061 7.73193 23.9032 6.24561 22.2275 5.24927L22.2275 5.24926L22.226 5.24838C21.7695 4.98412 21.1897 4.85604 20.6178 4.85021C20.0459 4.84437 19.4673 4.96064 19.0119 5.20033L19.0119 5.20031L19.0099 5.20138C17.0245 6.28434 15.6132 7.63917 14.5211 9.78671H14.433H9.91958C9.82145 9.78671 9.7181 9.81842 9.62844 9.8667C9.53809 9.91535 9.44997 9.98707 9.38857 10.0792L9.38835 10.079L9.38389 10.0867C4.84996 17.8397 4.85 27.4857 4.85 27.5839V27.584L4.85 27.5861C4.84999 27.6089 4.84998 27.6439 4.85855 27.6868C4.86709 27.7294 4.88281 27.7744 4.90837 27.8264C5.1202 28.342 5.39593 28.6714 5.69535 28.871C5.99568 29.0712 6.3083 29.1332 6.57968 29.1332C6.99742 29.1332 7.37242 28.9862 7.64425 28.8385C7.91517 28.6913 8.09632 28.5362 8.13003 28.5025C8.25027 28.3823 8.30936 28.2079 8.30936 28.0805L8.30936 28.0803L8.30937 28.0798L8.30938 28.078L8.30943 28.0718L8.30971 28.0505C8.30998 28.0323 8.31043 28.0064 8.31116 27.9731C8.31262 27.9066 8.3152 27.8105 8.31967 27.6875C8.32861 27.4414 8.3451 27.0876 8.3753 26.6465C8.43572 25.7641 8.55097 24.5329 8.77022 23.1161C9.20534 20.3046 10.0485 16.7732 11.6783 13.7877H13.1855C10.7487 21.003 9.85985 28.1499 9.85985 32.5487C9.85985 32.7104 9.93915 32.8594 10.0448 32.9651C10.1505 33.0708 10.2996 33.1501 10.4612 33.1501H30.7263C30.8957 33.1501 31.0486 33.0929 31.1595 32.982C31.2704 32.8711 31.3276 32.7182 31.3276 32.5487C31.3276 28.9829 30.7432 22.9948 29.3058 17.4455L32.6659 10.6804L32.6706 10.6711L32.6739 10.6611C32.7293 10.495 32.7293 10.3263 32.6739 10.1601ZM21.4937 6.2328C22.8485 6.95254 24.0074 8.122 25.0064 9.83184H15.9006C16.8199 8.14871 18.0656 7.13297 19.6931 6.23316C19.9371 6.11191 20.2723 6.04724 20.6106 6.04724C20.951 6.04724 21.2735 6.11268 21.4923 6.23203L21.4937 6.2328ZM14.5743 13.3267L14.5744 13.3267L14.5753 13.324C14.6313 13.1558 14.6344 12.9699 14.5126 12.7872C14.3869 12.5986 14.1967 12.5399 14.0268 12.5399H11.3187C11.08 12.5399 10.901 12.6624 10.7877 12.8323L10.7874 12.8321L10.782 12.8417C7.52061 18.6049 7.16283 26.1145 7.10916 27.7305C6.94732 27.8389 6.73547 27.9305 6.53455 27.9305H6.53396C6.49769 27.9305 6.43054 27.9305 6.34834 27.8796C6.26738 27.8295 6.15458 27.7188 6.05274 27.4655C6.0572 26.3962 6.31496 17.9606 10.3219 11.0345H25.7144C28.7123 17.0031 30.0561 26.3243 30.1673 31.9474H11.0644C11.1288 27.4413 12.0809 20.3619 14.5743 13.3267ZM31.1615 11.0345L28.8204 15.757C28.3204 14.1085 27.7148 12.5023 27.0353 11.0345H31.1615Z" fill="white" stroke="white" stroke-width="0.3"/>
<path d="M24.4852 12.6942C24.2987 12.3941 23.9351 12.3469 23.6529 12.5161C23.3468 12.6998 23.2958 13.0645 23.463 13.3486C23.4767 13.376 23.4928 13.4072 23.5105 13.4415C23.6172 13.6489 23.783 13.9712 23.8554 14.2608C23.9177 14.5099 24.1596 14.6904 24.4071 14.6904C24.4084 14.6904 24.4097 14.6904 24.4111 14.6904C24.4555 14.6905 24.5415 14.6906 24.6238 14.6237C24.7556 14.5648 24.8657 14.4663 24.9306 14.3367C24.9982 14.2013 25.0117 14.0416 24.9606 13.8767C24.9345 13.6595 24.863 13.4257 24.7769 13.2189C24.6908 13.0123 24.5854 12.8216 24.4852 12.6942Z" fill="white" stroke="white" stroke-width="0.3"/>
<path d="M25.1954 15.2499L25.1954 15.2499L25.1907 15.2508C25.0248 15.284 24.9018 15.3979 24.8294 15.5282C24.7572 15.6581 24.7269 15.8183 24.7571 15.9689L24.7567 15.969L24.7597 15.9799C25.773 19.6053 26.4489 23.2772 26.8715 26.0551C27.0828 27.4438 27.2306 28.6084 27.3257 29.4313C27.3732 29.8427 27.4075 30.1686 27.4299 30.3942C27.4411 30.5071 27.4493 30.5947 27.4547 30.6554C27.4583 30.6958 27.4603 30.7208 27.4613 30.7334C27.4619 30.7415 27.4622 30.7446 27.4622 30.7434C27.4622 30.9084 27.5446 31.0488 27.655 31.1445C27.7649 31.2398 27.9121 31.2996 28.0635 31.2996H28.1087C28.4753 31.2996 28.718 30.9897 28.6643 30.6375C28.6631 30.6167 28.6603 30.5813 28.6567 30.5384C28.6516 30.4758 28.6437 30.3861 28.633 30.2712C28.6116 30.0412 28.5787 29.7098 28.5328 29.2919C28.4409 28.456 28.2968 27.2736 28.0878 25.8639C27.6697 23.045 26.9916 19.3147 25.9512 15.628L25.9473 15.6143L25.941 15.6016C25.8205 15.3606 25.5294 15.1943 25.1954 15.2499Z" fill="white" stroke="white" stroke-width="0.3"/>
</svg>
