<svg width="38" height="38" viewBox="0 0 38 38" fill="none" xmlns="http://www.w3.org/2000/svg">
<path d="M17.3202 8.70569C17.5595 8.09506 17.2585 7.40606 16.6478 7.16675C16.0373 6.92745 15.3482 7.22847 15.1089 7.83908L17.3202 8.70569ZM21.3782 17.0235C22.034 17.0224 22.5647 16.4899 22.5638 15.8341C22.5627 15.1782 22.0302 14.6474 21.3744 14.6485L21.3782 17.0235ZM16.2146 8.27238L15.9174 7.12266L15.9152 7.12326L16.2146 8.27238ZM29.7109 16.14L28.564 16.4479C28.6591 16.8021 28.9126 17.0925 29.2508 17.2347C29.5889 17.3769 29.9738 17.3547 30.2934 17.1748L29.7109 16.14ZM29.9944 20.415L30.4352 19.3123C30.0939 19.1759 29.7089 19.2052 29.3922 19.3914C29.0755 19.5777 28.8629 19.8999 28.8164 20.2644L29.9944 20.415ZM8.00655 20.415L9.18447 20.2644C9.13789 19.8999 8.92526 19.5777 8.60861 19.3914C8.29195 19.2052 7.90691 19.1759 7.56578 19.3123L8.00655 20.415ZM8.28997 16.14L7.70749 17.1748C8.02717 17.3547 8.41206 17.3769 8.75021 17.2347C9.08838 17.0925 9.34184 16.802 9.4369 16.4478L8.28997 16.14ZM15.1089 7.83908C13.8774 10.9815 15.1642 14.55 18.1178 16.1832L19.2682 14.1055C17.3571 13.0487 16.5233 10.739 17.3202 8.70569L15.1089 7.83908ZM18.1178 16.1832C19.1156 16.7366 20.2371 17.0254 21.3782 17.0235L21.3744 14.6485C20.6375 14.6496 19.9126 14.4628 19.2682 14.1055L18.1178 16.1832ZM16.5116 9.42212C21.7762 8.0617 27.1538 11.1966 28.564 16.4479L30.8577 15.832C29.1096 9.32227 22.4434 5.43626 15.9174 7.12266L16.5116 9.42212ZM30.2934 17.1748C30.7756 16.9033 31.3813 17.001 31.7539 17.4101L33.51 15.8111C32.3923 14.5837 30.575 14.2909 29.1284 15.1051L30.2934 17.1748ZM31.7539 17.4101C32.1265 17.8193 32.167 18.4315 31.8518 18.8863L33.8035 20.2394C34.7494 18.8752 34.6277 17.0385 33.51 15.8111L31.7539 17.4101ZM31.8518 18.8863C31.5365 19.341 30.9489 19.5177 30.4352 19.3123L29.5536 21.5176C31.0949 22.1338 32.8577 21.6036 33.8035 20.2394L31.8518 18.8863ZM28.8164 20.2644C28.1849 25.2044 23.9807 28.9054 19.0005 28.9054V31.2804C25.176 31.2804 30.3892 26.6912 31.1722 20.5656L28.8164 20.2644ZM19.0005 28.9054C14.0202 28.9054 9.81595 25.2044 9.18447 20.2644L6.82865 20.5656C7.61167 26.6912 12.825 31.2804 19.0005 31.2804V28.9054ZM7.56578 19.3123C7.05198 19.5177 6.4644 19.341 6.14913 18.8863L4.19734 20.2394C5.14317 21.6036 6.90588 22.1338 8.44732 21.5176L7.56578 19.3123ZM6.14913 18.8863C5.83384 18.4315 5.87444 17.8193 6.24698 17.4101L4.49092 15.8111C3.37326 17.0385 3.2515 18.8752 4.19734 20.2394L6.14913 18.8863ZM6.24698 17.4101C6.61954 17.001 7.22529 16.9033 7.70749 17.1748L8.87245 15.1051C7.42583 14.2909 5.60856 14.5837 4.49092 15.8111L6.24698 17.4101ZM9.4369 16.4478C10.361 13.0035 13.0632 10.3207 16.514 9.42151L15.9152 7.12326C11.6379 8.23785 8.28846 11.5632 7.14303 15.8322L9.4369 16.4478Z" fill="#EDE8E5"/>
<path d="M14.2516 19.7943C13.8151 19.7943 13.46 19.4391 13.46 19.0026C13.46 18.5661 13.8151 18.2109 14.2516 18.2109C14.6882 18.2109 15.0433 18.5661 15.0433 19.0026C15.0433 19.4391 14.6882 19.7943 14.2516 19.7943Z" fill="#EDE8E5"/>
<path d="M14.2512 20.5861C13.3767 20.5861 12.6678 19.8772 12.6678 19.0028C12.6678 18.1283 13.3767 17.4194 14.2512 17.4194C15.1256 17.4194 15.8344 18.1283 15.8344 19.0028C15.8344 19.8772 15.1256 20.5861 14.2512 20.5861Z" fill="#EDE8E5"/>
<path d="M23.7507 19.7943C23.3141 19.7943 22.959 19.4391 22.959 19.0026C22.959 18.5661 23.3141 18.2109 23.7507 18.2109C24.1872 18.2109 24.5423 18.5661 24.5423 19.0026C24.5423 19.4391 24.1872 19.7943 23.7507 19.7943Z" fill="#EDE8E5"/>
<path d="M23.7511 20.5861C22.8768 20.5861 22.1678 19.8772 22.1678 19.0028C22.1678 18.1283 22.8768 17.4194 23.7511 17.4194C24.6256 17.4194 25.3344 18.1283 25.3344 19.0028C25.3344 19.8772 24.6256 20.5861 23.7511 20.5861Z" fill="#EDE8E5"/>
</svg>
