<svg width="24" height="31" viewBox="0 0 24 31" fill="none" xmlns="http://www.w3.org/2000/svg">
<path d="M1.77668 8.95848L1.77668 8.95848C0.741116 7.90997 0.741107 6.21513 1.77665 5.16661L1.77668 8.95848ZM1.77668 8.95848L6.41666 13.6564V27.3125C6.41666 28.785 7.5989 30 9.08333 30H9.91666C10.7642 30 11.5133 29.6039 12 28.9899C12.4867 29.6039 13.2358 30 14.0833 30H14.9167C16.4011 30 17.5833 28.785 17.5833 27.3125V13.6564L22.2233 8.95842C23.2589 7.90991 23.2589 6.21509 22.2233 5.16658C21.181 4.11116 19.4857 4.11116 18.4434 5.16657C18.4434 5.16658 18.4433 5.1666 18.4433 5.16661L16.587 7.04609C16.6934 6.6474 16.75 6.22854 16.75 5.79688C16.75 3.15935 14.6351 1 12 1C9.36494 1 7.24999 3.15935 7.24999 5.79688M1.77668 8.95848L7.24999 5.79688M7.24999 5.79688C7.24999 6.22855 7.30665 6.64742 7.41297 7.04612M7.24999 5.79688L7.41297 7.04612M7.41297 7.04612L5.55666 5.16661C5.55665 5.1666 5.55664 5.16659 5.55663 5.16658C4.51429 4.11116 2.81902 4.11116 1.77668 5.16658L7.41297 7.04612Z" stroke="#EDE8E5" stroke-width="2"/>
</svg>
