<svg width="36" height="36" viewBox="0 0 36 36" fill="none" xmlns="http://www.w3.org/2000/svg">
<path d="M18 3.375C14.9062 3.375 12.375 5.90625 12.375 9C12.375 10.7666 13.2363 12.3267 14.5195 13.3594C12.5728 14.5459 11.25 16.686 11.25 19.125V22.957L11.5664 23.3086L13.5 25.2422V32.625H15.75V27H20.25V32.625H22.5V25.2422L24.4336 23.3086L24.75 22.957V19.125C24.75 16.686 23.4272 14.5459 21.4805 13.3594C22.7637 12.3267 23.625 10.7666 23.625 9C23.625 5.90625 21.0938 3.375 18 3.375ZM18 5.625C19.8765 5.625 21.375 7.12353 21.375 9C21.375 10.8765 19.8765 12.375 18 12.375C16.1235 12.375 14.625 10.8765 14.625 9C14.625 7.12353 16.1235 5.625 18 5.625ZM18 14.625C20.4961 14.625 22.5 16.6289 22.5 19.125V22.0078L22.0078 22.5H13.9922L13.5 22.0078V19.125C13.5 16.6289 15.5039 14.625 18 14.625Z" fill="#EDE8E5"/>
</svg>
