<svg width="38" height="38" viewBox="0 0 38 38" fill="none" xmlns="http://www.w3.org/2000/svg">
<path d="M28.5 20.5833H25.3333M28.5 12.6666H15.8333M28.5 25.3333H25.3333M16.15 31.6666H28.1833C29.9568 31.6666 30.8437 31.6666 31.521 31.3214C32.1168 31.0179 32.6013 30.5334 32.9048 29.9376C33.25 29.2602 33.25 28.3734 33.25 26.5999V11.3999C33.25 9.62643 33.25 8.73967 32.9048 8.06228C32.6013 7.46643 32.1168 6.98199 31.521 6.6784C30.8437 6.33325 29.9568 6.33325 28.1833 6.33325H16.15C14.3765 6.33325 13.4897 6.33325 12.8124 6.6784C12.2165 6.98199 11.7321 7.46643 11.4285 8.06228C11.0833 8.73967 11.0833 9.62641 11.0833 11.3999V26.5999C11.0833 28.3734 11.0833 29.2602 11.4285 29.9376C11.7321 30.5334 12.2165 31.0179 12.8124 31.3214C13.4897 31.6666 14.3765 31.6666 16.15 31.6666ZM20.5833 22.9583C20.5833 24.2699 19.52 25.3333 18.2083 25.3333C16.8967 25.3333 15.8333 24.2699 15.8333 22.9583C15.8333 21.6466 16.8967 20.5833 18.2083 20.5833C19.52 20.5833 20.5833 21.6466 20.5833 22.9583ZM7.91667 31.6666C6.16776 31.6666 4.75 30.2489 4.75 28.4999V9.49992C4.75 7.75102 6.16776 6.33325 7.91667 6.33325C9.66557 6.33325 11.0833 7.75102 11.0833 9.49992V28.4999C11.0833 30.2489 9.66557 31.6666 7.91667 31.6666Z" stroke="white" stroke-width="2" stroke-linecap="round" stroke-linejoin="round"/>
</svg>
    