<svg width="37" height="38" viewBox="0 0 37 38" fill="none" xmlns="http://www.w3.org/2000/svg">
<path d="M18.6307 13.3938C15.8221 13.3938 13.5096 15.574 13.2079 18.3765H11.9591V19.6222H13.2079C13.5096 22.4247 15.8221 24.605 18.6307 24.605C21.645 24.605 24.0893 22.0958 24.0893 18.9988C24.0893 15.9018 21.6462 13.3926 18.6307 13.3926V13.3938ZM18.6307 23.3605C16.4962 23.3605 14.7306 21.7324 14.4335 19.6234H18.6307V18.3777H14.4335C14.7295 16.2687 16.4962 14.6406 18.6307 14.6406C20.9709 14.6406 22.8764 16.5965 22.8764 19.0011C22.8764 21.4058 20.9721 23.3605 18.6307 23.3605Z" fill="white"/>
<path d="M7.1075 24.6834V20.9463H5.89459V25.929H7.1075V24.6834Z" fill="white"/>
<path d="M7.1075 15.8853V12.1482H5.89459V17.1309H7.1075V15.8853Z" fill="white"/>
<path d="M8.32037 8.41113V29.589H28.9398V8.41113H8.32037ZM27.7269 28.3433H9.53328V9.65801H27.7269V28.3433Z" fill="white"/>
<path d="M3.46875 4.67407V33.3261H33.7926V4.67407H3.46875ZM32.5797 32.0804H4.68166V5.92095H32.5797V32.0804Z" fill="white"/>
</svg>
