<svg width="36" height="36" viewBox="0 0 36 36" fill="none" xmlns="http://www.w3.org/2000/svg">
<path d="M8.08614 18.6788C8.02171 18.0963 7.98951 17.805 8.00305 17.5649C8.07412 16.306 8.95239 15.2629 10.127 15.0421C10.3511 15 10.6285 15 11.1834 15H24.8166C25.3715 15 25.649 15 25.8731 15.0421C27.0477 15.2629 27.926 16.306 27.9969 17.5649C28.0105 17.805 27.9784 18.0963 27.9139 18.6788L27.3971 23.3534C27.1637 25.463 26.0972 27.3701 24.4609 28.6032C23.2554 29.5117 21.8118 30 20.3311 30H15.6689C14.1883 30 12.7446 29.5117 11.5391 28.6032C9.90286 27.3701 8.83633 25.463 8.60305 23.3534L8.08614 18.6788Z" stroke="#FFFFFF" stroke-width="2"/>
<path d="M28 24H30.4C32.3883 24 34 22.433 34 20.5C34 18.5669 32.3883 17 30.4 17H28.6" stroke="#FFFFFF" stroke-width="2"/>
<path d="M18.5001 5C17.8333 5.69035 17.8333 6.80965 18.5001 7.5C19.1666 8.19035 19.1666 9.30965 18.5001 10" stroke="#FFFFFF" stroke-width="2" stroke-linecap="round" stroke-linejoin="round"/>
<path d="M12.0664 12L12.2678 11.8549C13.1475 11.2209 13.2464 10.2173 12.5 9.5C11.7536 8.78275 11.8525 7.77911 12.7322 7.14515L12.9336 7" stroke="#FFFFFF" stroke-width="2" stroke-linecap="round" stroke-linejoin="round"/>
<path d="M24.0664 12L24.2678 11.8549C25.1475 11.2209 25.2464 10.2173 24.5 9.5C23.7535 8.78275 23.8526 7.77911 24.7323 7.14515L24.9337 7" stroke="#FFFFFF" stroke-width="2" stroke-linecap="round" stroke-linejoin="round"/>
</svg>
