<svg width="38" height="38" viewBox="0 0 38 38" fill="none" xmlns="http://www.w3.org/2000/svg">
<path d="M32.4249 26.9298C33.35 26.9331 34.1253 26.2032 34.1282 25.2909L34.15 18.8039C34.1507 18.5917 34.0605 18.4235 33.9668 18.2628C33.8683 18.0938 33.737 17.9113 33.5849 17.7193C33.2803 17.335 32.8834 16.9026 32.4898 16.4947C31.8318 15.8129 31.222 15.2391 31.0325 15.0624L31.0104 12.4878C31.0104 12.4876 31.0104 12.4874 31.0104 12.4872C31.01 8.79729 27.6801 5.85 23.6369 5.85C21.5963 5.85 19.6056 6.45112 18.3329 7.87774L18.3329 7.87777L27.2752 25.2681L27.1252 25.2675C27.1217 26.1791 27.8911 26.9145 28.8161 26.9178H28.8162L32.4249 26.9298ZM32.4249 26.9298L32.4254 26.7798L32.4249 26.9298H32.4249ZM30.2868 15.0637L30.2874 15.1304L30.4374 15.1292L30.3362 15.0184C30.3255 15.0282 30.3089 15.0434 30.2868 15.0637ZM17.0252 11.3898V11.2398H16.8946C16.8882 11.2836 16.8822 11.3271 16.8765 11.3703L17.0252 11.3898ZM17.6622 11.2398C17.8161 10.2729 18.1588 9.18915 18.8919 8.36694L17.6622 11.2398ZM15.16 14.7479L14.1025 12.4168H16.7954C16.787 12.7405 16.7945 12.9638 16.8054 13.1292H16.2027H16.0527V13.2792V13.7177V13.8677H16.2027H18.2116H18.3616V13.7177V13.2792V13.1292H18.2116H17.5566C17.5477 12.9756 17.5412 12.7488 17.5524 12.4168H20.4443L19.3438 14.7479H15.16ZM24.8934 15.8311V24.8715L12.7315 21.0868L12.7431 20.9373C12.7431 20.9373 12.7431 20.9373 12.7431 20.9373C11.8292 20.8661 10.9248 20.8762 10.0413 20.9532V16.0051L13.4953 12.8807L14.6377 15.3984L14.6777 15.4864H14.7743H19.7235H19.8186L19.8591 15.4004L21.1041 12.7623L24.8934 15.8311ZM33.3826 25.2882V25.2882C33.381 25.7798 32.9601 26.1932 32.4277 26.1913H32.4277L28.819 26.1793C28.2864 26.1774 27.869 25.7609 27.8708 25.2704V25.2703L27.8925 18.8006C27.8953 18.7914 27.8998 18.7775 27.9065 18.7598C27.9205 18.7228 27.9432 18.6714 27.977 18.6144C28.0493 18.4923 28.1621 18.3359 28.3034 18.16C28.5855 17.8089 28.9707 17.3929 29.3591 16.9958C29.9414 16.4007 30.4347 15.941 30.6595 15.7342C30.8826 15.9425 31.3721 16.4055 31.9502 17.0045C32.3359 17.4042 32.7185 17.8226 32.9981 18.1754C33.1381 18.3521 33.2496 18.5096 33.3212 18.6323C33.3545 18.6895 33.3769 18.7411 33.3906 18.7782C33.3972 18.796 33.4016 18.81 33.4043 18.8192L33.3826 25.2882ZM12.685 21.6731L12.685 21.6732C15.1905 21.8681 17.1092 22.6906 19.1091 23.6702C20.6977 24.4486 22.7977 25.4287 24.8934 25.6147V29.6267C24.8934 30.3334 24.236 30.973 23.3505 30.973H11.5851C10.6994 30.973 10.0413 30.3333 10.0413 29.6267V21.695C10.6364 21.6404 11.2399 21.6157 11.8504 21.6307C12.1276 21.6375 12.4061 21.6514 12.685 21.6731ZM30.6198 17.0844C30.0748 17.0825 29.6112 17.5145 29.6093 18.0604C29.6074 18.6065 30.0679 19.0398 30.6127 19.0417C31.158 19.0435 31.6196 18.6122 31.6214 18.0665C31.6234 17.521 31.1652 17.0862 30.6198 17.0844ZM30.6171 17.8229C30.7713 17.8234 30.8762 17.9371 30.8758 18.0646C30.8754 18.1915 30.7705 18.3037 30.6155 18.3031C30.4599 18.3026 30.3546 18.1886 30.355 18.0623C30.3554 17.9358 30.4616 17.8224 30.6171 17.8229Z" fill="white" stroke="white" stroke-width="0.3"/>
</svg>
