<svg width="38" height="38" viewBox="0 0 38 38" fill="none" xmlns="http://www.w3.org/2000/svg">
<path d="M33.6056 11.7823H20.8381L27.1306 3.84421C27.2337 3.71467 27.2785 3.54829 27.2542 3.38456C27.2376 3.22524 27.1551 3.08004 27.0269 2.98405C26.9009 2.88232 26.7394 2.83554 26.5785 2.85407C26.4176 2.87261 26.2711 2.95514 26.1716 3.08291L19.4492 11.56L14.2246 5.58885C14.1083 5.45402 13.938 5.37789 13.7599 5.3812C13.6105 5.38076 13.4662 5.43549 13.3545 5.53456C13.1025 5.75656 13.0761 6.14009 13.2952 6.39453L18.0058 11.7824H4.78858C4.52643 11.7824 4.27486 11.8865 4.0895 12.0721C3.90415 12.2575 3.79999 12.5088 3.79999 12.771V31.1786C3.79999 31.4407 3.90415 31.6923 4.0895 31.8776C4.27486 32.063 4.52643 32.1672 4.78858 32.1672H33.6058C33.868 32.1672 34.1195 32.063 34.3049 31.8776C34.4902 31.6923 34.5944 31.4407 34.5944 31.1786V12.7907C34.5997 12.525 34.498 12.2686 34.3119 12.0788C34.1259 11.889 33.8715 11.7822 33.6058 11.7822L33.6056 11.7823ZM16.4583 31.2328C16.1772 31.2328 15.9492 31.0048 15.9492 30.7237C15.9492 30.4426 16.1772 30.2146 16.4583 30.2146C16.7397 30.2146 16.9676 30.4426 16.9676 30.7237C16.9676 31.0048 16.7397 31.2328 16.4583 31.2328ZM19.2067 31.2328C18.9256 31.2328 18.6976 31.0048 18.6976 30.7237C18.6976 30.4426 18.9256 30.2146 19.2067 30.2146C19.4879 30.2146 19.7158 30.4426 19.7158 30.7237C19.7158 31.0048 19.4878 31.2328 19.2067 31.2328ZM21.9549 31.2328C21.6738 31.2328 21.4458 31.0048 21.4458 30.7237C21.4458 30.4426 21.6738 30.2146 21.9549 30.2146C22.236 30.2146 22.464 30.4426 22.464 30.7237C22.464 31.0048 22.236 31.2328 21.9549 31.2328ZM32.1027 28.7613H32.103C32.103 28.8924 32.0509 29.0181 31.9582 29.1108C31.8655 29.2035 31.7397 29.2556 31.6087 29.2556H6.76558C6.49261 29.2556 6.27128 29.0345 6.27128 28.7613V14.5798C6.27128 14.3068 6.49261 14.0855 6.76558 14.0855H31.6284C31.7595 14.0855 31.8853 14.1376 31.978 14.2302C32.0706 14.3229 32.1227 14.4487 32.1227 14.5798L32.1027 28.7613Z" fill="white"/>
<path d="M6.37012 33.0522H32.0193V34.4906H6.37012V33.0522Z" fill="white"/>
</svg>
