<svg width="36" height="36" viewBox="0 0 36 36" fill="none" xmlns="http://www.w3.org/2000/svg">
<path d="M18 4H6V31H18V4Z" stroke="white" stroke-width="2" stroke-miterlimit="10"/>
<path d="M31 4H18V31H31V4Z" stroke="white" stroke-width="2" stroke-miterlimit="10"/>
<path d="M8 33V31" stroke="white" stroke-width="2" stroke-miterlimit="10"/>
<path d="M28 33V31" stroke="white" stroke-width="2" stroke-miterlimit="10"/>
<path d="M13 17V19" stroke="white" stroke-width="2" stroke-miterlimit="10"/>
<path d="M24.4935 27C24.4952 26.6668 24.432 26.3365 24.3074 26.0282C24.1829 25.7198 23.9995 25.4395 23.7678 25.2032C23.5361 24.967 23.2606 24.7795 22.9572 24.6516C22.6539 24.5237 22.3285 24.4578 22 24.4578V10.5289C22.3279 10.5307 22.653 10.4665 22.9563 10.34C23.2596 10.2135 23.5351 10.0273 23.767 9.79213C23.9989 9.55695 24.1825 9.27746 24.3072 8.96985C24.4319 8.66223 24.4952 8.33259 24.4935 8C24.4935 8.33322 24.5584 8.66315 24.6845 8.97084C24.8106 9.27853 24.9955 9.55791 25.2284 9.79291C25.4613 10.0279 25.7377 10.2139 26.0418 10.3402C26.3458 10.4665 26.6715 10.5307 27 10.5289V24.4578C26.3352 24.4578 25.6977 24.7257 25.2276 25.2024C24.7576 25.6792 24.4935 26.3258 24.4935 27Z" stroke="white" stroke-width="2" stroke-miterlimit="10"/>
</svg>
