<svg width="16" height="15" viewBox="0 0 16 15" fill="none" xmlns="http://www.w3.org/2000/svg">
<g clip-path="url(#clip0_4220_13489)">
<path d="M5.33398 8.66668C5.70217 8.66668 6.00065 8.3682 6.00065 8.00001C6.00065 7.63182 5.70217 7.33334 5.33398 7.33334C4.96579 7.33334 4.66732 7.63182 4.66732 8.00001C4.66732 8.3682 4.96579 8.66668 5.33398 8.66668Z" fill="#ECECEC"/>
<path d="M8.66732 8.00001C8.66732 8.3682 8.36884 8.66668 8.00065 8.66668C7.63246 8.66668 7.33398 8.3682 7.33398 8.00001C7.33398 7.63182 7.63246 7.33334 8.00065 7.33334C8.36884 7.33334 8.66732 7.63182 8.66732 8.00001Z" fill="#ECECEC"/>
<path d="M10.6673 8.66668C11.0355 8.66668 11.334 8.3682 11.334 8.00001C11.334 7.63182 11.0355 7.33334 10.6673 7.33334C10.2991 7.33334 10.0007 7.63182 10.0007 8.00001C10.0007 8.3682 10.2991 8.66668 10.6673 8.66668Z" fill="#ECECEC"/>
<path d="M6.00065 10.6667C6.00065 11.0349 5.70217 11.3333 5.33398 11.3333C4.96579 11.3333 4.66732 11.0349 4.66732 10.6667C4.66732 10.2985 4.96579 10 5.33398 10C5.70217 10 6.00065 10.2985 6.00065 10.6667Z" fill="#ECECEC"/>
<path d="M8.00065 11.3333C8.36884 11.3333 8.66732 11.0349 8.66732 10.6667C8.66732 10.2985 8.36884 10 8.00065 10C7.63246 10 7.33398 10.2985 7.33398 10.6667C7.33398 11.0349 7.63246 11.3333 8.00065 11.3333Z" fill="#ECECEC"/>
<path fill-rule="evenodd" clip-rule="evenodd" d="M5.33398 2.00001C5.33398 1.63182 5.03551 1.33334 4.66732 1.33334C4.29913 1.33334 4.00065 1.63182 4.00065 2.00001H2.66732C1.93094 2.00001 1.33398 2.59696 1.33398 3.33334V12.6667C1.33398 13.4031 1.93094 14 2.66732 14H13.334C14.0704 14 14.6673 13.4031 14.6673 12.6667V3.33334C14.6673 2.59696 14.0704 2.00001 13.334 2.00001H12.0007C12.0007 1.63182 11.7022 1.33334 11.334 1.33334C10.9658 1.33334 10.6673 1.63182 10.6673 2.00001H5.33398ZM2.66732 4.66668V3.33334H13.334V4.66668H2.66732ZM2.66732 6.00001V12.6667H9.44838L13.334 8.78108V6.00001H2.66732ZM13.334 10.6667L11.334 12.6667H13.334V10.6667Z" fill="#ECECEC"/>
</g>
<defs>
<clipPath id="clip0_4220_13489">
<rect width="16" height="15" fill="white"/>
</clipPath>
</defs>
</svg>
