<svg width="37" height="37" viewBox="0 0 37 37" fill="none" xmlns="http://www.w3.org/2000/svg">
<path d="M36.9974 18.5054C36.9974 27.8515 30.0716 35.5781 21.0743 36.832C20.2331 36.9487 19.3724 37.0096 18.4987 37.0096C17.4902 37.0096 16.4999 36.9292 15.5355 36.7736C6.72751 35.3551 0 27.7154 0 18.5054C0 8.28544 8.283 0 18.5 0C28.717 0 37 8.28544 37 18.5054H36.9974Z" fill="white"/>
<path d="M21.0741 14.859V18.8902H26.0595L25.2701 24.3204H21.0741V36.8316C20.2329 36.9483 19.3722 37.0092 18.4985 37.0092C17.49 37.0092 16.4997 36.9288 15.5353 36.7732V24.3204H10.9375V18.8902H15.5353V13.9578C15.5353 10.8978 18.015 8.41602 21.0754 8.41602V8.41861C21.0845 8.41861 21.0923 8.41602 21.1014 8.41602H26.0608V13.1124H22.8202C21.8571 13.1124 21.0754 13.8943 21.0754 14.8577L21.0741 14.859Z" fill="#44525F"/>
</svg>
