<svg width="49" height="30" viewBox="0 0 49 30" fill="none" xmlns="http://www.w3.org/2000/svg">
<path fill-rule="evenodd" clip-rule="evenodd" d="M24.5 26.4167C21.905 28.6511 18.5389 30 14.8607 30C6.65334 30 0 23.2843 0 15C0 6.71573 6.65334 0 14.8607 0C18.5389 0 21.905 1.34887 24.5 3.5833C27.095 1.34887 30.4611 0 34.1393 0C42.3466 0 49 6.71573 49 15C49 23.2843 42.3466 30 34.1393 30C30.4611 30 27.095 28.6511 24.5 26.4167Z" fill="#ED0006"/>
<path fill-rule="evenodd" clip-rule="evenodd" d="M24.5 26.4167C27.6952 23.6654 29.7213 19.5715 29.7213 15C29.7213 10.4285 27.6952 6.33457 24.5 3.5833C27.095 1.34887 30.4611 0 34.1393 0C42.3467 0 49 6.71573 49 15C49 23.2843 42.3467 30 34.1393 30C30.4611 30 27.095 28.6511 24.5 26.4167Z" fill="#F9A000"/>
<path fill-rule="evenodd" clip-rule="evenodd" d="M24.5001 26.4163C27.6953 23.665 29.7213 19.5712 29.7213 14.9997C29.7213 10.4281 27.6953 6.33428 24.5001 3.58301C21.3049 6.33428 19.2788 10.4281 19.2788 14.9997C19.2788 19.5712 21.3049 23.665 24.5001 26.4163Z" fill="#FF5E00"/>
</svg>
