<svg width="16" height="15" viewBox="0 0 16 15" fill="none" xmlns="http://www.w3.org/2000/svg">
<g clip-path="url(#clip0_4220_13484)">
<path fill-rule="evenodd" clip-rule="evenodd" d="M4.79427 13.5193L4.64193 9.9231L6.36719 9.8584C7.10417 9.95361 7.85026 10.2991 8.60026 10.7031L9.9401 10.6531C10.5482 10.6653 10.8906 11.2292 10.3164 11.6296C9.86068 11.9702 9.23958 11.9751 8.60156 11.9446C8.16276 11.9409 8.16667 12.4939 8.6237 12.478C8.78255 12.4841 8.95443 12.4426 9.10417 12.4365C9.89714 12.406 10.5443 12.24 10.9193 11.637L11.1016 11.1902L13.056 10.1892C14.0404 9.84375 14.7031 10.7141 13.9974 11.4221C12.5951 12.4609 11.237 13.4082 9.75 14.1187C8.67708 14.7864 7.57552 14.8071 6.45052 14.2419L4.79427 13.5193ZM3.8724 8.03955H15.8385C15.9271 8.03955 16 8.10913 16 8.19092V8.85132C16 8.93311 15.9271 9.00269 15.8385 9.00269H3.8724C3.78385 9.00269 3.71094 8.93433 3.71094 8.85132V8.19092C3.71094 8.10791 3.78385 8.03955 3.8724 8.03955ZM10.3203 1.72363C13.5964 1.96899 16.3555 4.55078 15.9479 7.59033H3.76432C3.36198 4.53125 6.13151 1.9458 9.43099 1.71997V1.22437H8.91016C8.81901 1.22437 8.74349 1.15356 8.74349 1.06812V0.509033C8.74349 0.423584 8.81771 0.352783 8.91016 0.352783H10.8268C10.918 0.352783 10.9935 0.423584 10.9935 0.509033V1.06812C10.9935 1.15356 10.918 1.22437 10.8268 1.22437H10.3203V1.72363ZM0 9.7998L4.10807 9.59717L4.29037 13.9001L0.182292 14.1016L0 9.7998Z" fill="#EDE8E5"/>
</g>
<defs>
<clipPath id="clip0_4220_13484">
<rect width="16" height="15" fill="white"/>
</clipPath>
</defs>
</svg>
