<svg width="16" height="15" viewBox="0 0 16 15" fill="none" xmlns="http://www.w3.org/2000/svg">
<path d="M10.5513 10.0847L11.4379 9.25341C11.5744 9.12397 11.7369 9.0211 11.9159 8.95097C12.0951 8.88085 12.2872 8.84479 12.4813 8.84479C12.6754 8.84479 12.8675 8.88085 13.0467 8.95097C13.2257 9.0211 13.3882 9.12397 13.5246 9.25341L14.5646 10.2285C14.7027 10.3563 14.8123 10.5085 14.8871 10.6765C14.9619 10.8443 15.0005 11.0246 15.0005 11.2065C15.0005 11.3885 14.9619 11.5687 14.8871 11.7367C14.8123 11.9045 14.7027 12.0567 14.5646 12.1846L14.0913 12.6346C13.7651 12.9433 13.3433 13.1477 12.886 13.2184C12.4287 13.2891 11.9592 13.2227 11.5446 13.0284C7.97679 11.3066 5.07078 8.58435 3.23128 5.24097C3.0239 4.85186 2.95349 4.41111 3.03015 3.98212C3.10682 3.55312 3.32662 3.15792 3.65796 2.85342L4.13127 2.40344C4.40855 2.14506 4.78364 2 5.1746 2C5.56556 2 5.94065 2.14506 6.21793 2.40344L7.26461 3.38473C7.54022 3.64469 7.69493 3.99629 7.69493 4.36282C7.69493 4.72935 7.54022 5.08095 7.26461 5.34091L6.37793 6.17221C6.9642 6.91566 7.60817 7.61748 8.30459 8.2721C8.99699 8.92235 9.74139 9.5221 10.5313 10.066L10.5513 10.0847Z" stroke="#EDE8E5" stroke-linecap="round" stroke-linejoin="round"/>
</svg>
