<svg width="47" height="47" viewBox="0 0 47 47" fill="none" xmlns="http://www.w3.org/2000/svg">
<path d="M0 7V47H40C43.866 47 47 43.866 47 40V7C47 3.13401 43.866 0 40 0H7C3.13401 0 0 3.13401 0 7Z" fill="#006CE3"/>
<path d="M22.1606 17.792C22.1606 19.072 21.8326 20.208 21.1766 21.2L16.0406 29H11.6246L15.2726 23.696C13.6086 23.568 12.2566 22.96 11.2166 21.872C10.1926 20.8 9.68062 19.44 9.68062 17.792C9.68062 16.048 10.2566 14.624 11.4086 13.52C12.5926 12.416 14.0966 11.864 15.9206 11.864C17.7766 11.864 19.2806 12.416 20.4326 13.52C21.5846 14.624 22.1606 16.048 22.1606 17.792ZM14.2166 16.112C13.7526 16.528 13.5206 17.088 13.5206 17.792C13.5206 18.496 13.7526 19.064 14.2166 19.496C14.6806 19.912 15.2486 20.12 15.9206 20.12C16.5926 20.12 17.1606 19.912 17.6246 19.496C18.0886 19.08 18.3206 18.512 18.3206 17.792C18.3206 17.072 18.0886 16.504 17.6246 16.088C17.1606 15.672 16.5926 15.464 15.9206 15.464C15.2486 15.464 14.6806 15.68 14.2166 16.112ZM22.7588 25.28H26.5988L24.6788 32.36H21.7988L22.7588 25.28ZM29.3597 13.784L33.7517 12.2H37.1117V29H33.2717V16.256L30.2957 17.072L29.3597 13.784Z" fill="white"/>
<path d="M17.6174 41.69C17.3641 41.9433 17.0508 42.07 16.6774 42.07C16.3041 42.07 15.9908 41.9433 15.7374 41.69C15.4808 41.4333 15.3524 41.12 15.3524 40.75C15.3524 40.3833 15.4808 40.0717 15.7374 39.815C15.9941 39.5583 16.3074 39.43 16.6774 39.43C17.0474 39.43 17.3608 39.5583 17.6174 39.815C17.8741 40.0717 18.0024 40.3833 18.0024 40.75C18.0024 41.12 17.8741 41.4333 17.6174 41.69ZM16.1024 40.75C16.1024 40.9233 16.1574 41.065 16.2674 41.175C16.3774 41.285 16.5141 41.34 16.6774 41.34C16.8408 41.34 16.9774 41.285 17.0874 41.175C17.1974 41.065 17.2524 40.9233 17.2524 40.75C17.2524 40.5767 17.1974 40.435 17.0874 40.325C16.9774 40.215 16.8408 40.16 16.6774 40.16C16.5141 40.16 16.3774 40.215 16.2674 40.325C16.1574 40.435 16.1024 40.5767 16.1024 40.75ZM19.7417 40.865V39.5H20.4917V42H19.7417V41.765C19.5917 41.9683 19.3533 42.07 19.0267 42.07C18.76 42.07 18.5367 41.9783 18.3567 41.795C18.18 41.6083 18.0917 41.355 18.0917 41.035V39.5H18.8417V40.925C18.8417 41.0683 18.8817 41.18 18.9617 41.26C19.0417 41.34 19.1467 41.38 19.2767 41.38C19.4233 41.38 19.5367 41.3367 19.6167 41.25C19.7 41.16 19.7417 41.0317 19.7417 40.865ZM22.2067 39.5V40.22H21.6917V41.105C21.6917 41.2017 21.73 41.265 21.8067 41.295C21.8834 41.3217 22.0167 41.33 22.2067 41.32V42C21.7334 42.05 21.4034 42.005 21.2167 41.865C21.0334 41.7217 20.9417 41.4683 20.9417 41.105V40.22H20.5417V39.5H20.9417V39.025L21.6917 38.8V39.5H22.2067ZM25.4702 41.69C25.2168 41.9433 24.9035 42.07 24.5302 42.07C24.1568 42.07 23.8435 41.9433 23.5902 41.69C23.3335 41.4333 23.2052 41.12 23.2052 40.75C23.2052 40.3833 23.3335 40.0717 23.5902 39.815C23.8468 39.5583 24.1602 39.43 24.5302 39.43C24.9002 39.43 25.2135 39.5583 25.4702 39.815C25.7268 40.0717 25.8552 40.3833 25.8552 40.75C25.8552 41.12 25.7268 41.4333 25.4702 41.69ZM23.9552 40.75C23.9552 40.9233 24.0102 41.065 24.1202 41.175C24.2302 41.285 24.3668 41.34 24.5302 41.34C24.6935 41.34 24.8302 41.285 24.9402 41.175C25.0502 41.065 25.1052 40.9233 25.1052 40.75C25.1052 40.5767 25.0502 40.435 24.9402 40.325C24.8302 40.215 24.6935 40.16 24.5302 40.16C24.3668 40.16 24.2302 40.215 24.1202 40.325C24.0102 40.435 23.9552 40.5767 23.9552 40.75ZM27.2812 38.43V39.15C26.9712 39.1233 26.8162 39.24 26.8162 39.5H27.2812V40.22H26.8162V42H26.0662V40.22H25.7312V39.5H26.0662C26.0662 39.1367 26.1695 38.8617 26.3762 38.675C26.5828 38.4883 26.8845 38.4067 27.2812 38.43ZM27.9815 38.83L28.8965 38.5H29.5965V42H28.7965V39.345L28.1765 39.515L27.9815 38.83ZM32.2681 41.575C32.0181 41.905 31.6698 42.07 31.2231 42.07C30.7798 42.07 30.4298 41.905 30.1731 41.575C29.9231 41.2417 29.7981 40.8 29.7981 40.25C29.7981 39.7 29.9231 39.26 30.1731 38.93C30.4265 38.5967 30.7765 38.43 31.2231 38.43C31.6698 38.43 32.0181 38.5967 32.2681 38.93C32.5215 39.2567 32.6481 39.6967 32.6481 40.25C32.6481 40.8 32.5215 41.2417 32.2681 41.575ZM31.2231 39.21C30.8065 39.21 30.5981 39.5567 30.5981 40.25C30.5981 40.9433 30.8065 41.29 31.2231 41.29C31.6398 41.29 31.8481 40.9433 31.8481 40.25C31.8481 39.5567 31.6398 39.21 31.2231 39.21Z" fill="white"/>
</svg>
