<svg width="135" height="18" viewBox="0 0 135 18" fill="none" xmlns="http://www.w3.org/2000/svg">
<g clip-path="url(#clip0_1909_1480)">
<path d="M15.1758 17.683L10.9754 12.0738H4.77641V17.683H0V0H13.3804C18.7663 0 20.3923 3.77106 20.3923 6.02094C20.3923 7.73204 19.275 10.2675 16.0565 11.4403L20.6635 17.683H15.1758ZM4.77641 3.80295V8.2713H12.1608C14.8706 8.2713 15.4129 6.84531 15.4129 6.02141C15.4129 5.19752 14.8711 3.80295 12.1608 3.80295H4.77641Z" fill="white"/>
<path d="M54.9062 0H59.6485V9.25369C59.6485 15.3065 55.0415 18 48.9779 18C42.9143 18 38.375 15.3061 38.375 9.25369V0H43.1173V9.25369C43.1173 13.0247 45.997 14.2289 48.9779 14.2289C51.9589 14.2289 54.9057 13.0243 54.9057 9.25369V0H54.9062Z" fill="white"/>
<path d="M83.4943 11.6302V17.683H78.752V0H97.9929V3.80295H83.5284V7.8277H95.0461V11.6306H83.4948L83.4943 11.6302Z" fill="white"/>
<path d="M120.414 11.6302V17.683H115.672V0H134.913V3.80295H120.448V7.8277H131.966V11.6306H120.415L120.414 11.6302Z" fill="white"/>
</g>
<defs>
<clipPath id="clip0_1909_1480">
<rect width="135" height="18" fill="white"/>
</clipPath>
</defs>
</svg>
