<svg width="26" height="26" viewBox="0 0 24 20" fill="currentColor" xmlns="http://www.w3.org/2000/svg">
<path d="M1.10114 9.11393C1.15368 9.08765 1.20625 9.06268 1.25748 9.03903C2.14813 8.62642 3.05061 8.2401 3.95177 7.85378C4.00038 7.85378 4.0818 7.79728 4.12778 7.77888C4.1974 7.74866 4.26704 7.71975 4.33666 7.68953C4.47065 7.63171 4.60465 7.5752 4.73733 7.51739C5.00531 7.40307 5.27196 7.28874 5.53995 7.17442L7.1439 6.48718C8.21321 6.0299 9.28385 5.5713 10.3532 5.11402C11.4225 4.65673 12.4931 4.19814 13.5624 3.74085C14.6317 3.28357 15.7023 2.82498 16.7716 2.3677C17.8409 1.91041 18.9116 1.45181 19.9809 0.994531C20.2186 0.892036 20.4761 0.739604 20.731 0.694927C20.9451 0.65682 21.1539 0.583238 21.3694 0.542503C21.7779 0.464975 22.2285 0.433441 22.62 0.602952C22.7553 0.662083 22.8801 0.744866 22.9838 0.848675C23.4804 1.34012 23.4108 2.14693 23.3057 2.83811C22.574 7.65535 21.8423 12.4739 21.1093 17.2912C21.0094 17.9521 20.8728 18.6775 20.3513 19.0953C19.9099 19.4488 19.282 19.4882 18.7368 19.3384C18.1917 19.1873 17.7109 18.8706 17.2393 18.5592C15.2833 17.2636 13.3259 15.9679 11.3699 14.6723C10.9049 14.3648 10.3873 13.9627 10.3926 13.4042C10.3952 13.0679 10.5962 12.7683 10.8011 12.5015C12.501 10.2834 14.9535 8.75914 16.7782 6.64355C17.0357 6.34527 17.238 5.80652 16.8846 5.63438C16.6744 5.53188 16.4327 5.67117 16.2409 5.80388C13.829 7.47928 11.4185 9.15598 9.00667 10.8314C8.2198 11.378 7.39483 11.9404 6.44638 12.0744C5.59777 12.1953 4.7439 11.9588 3.92287 11.717C3.23452 11.5147 2.54746 11.3071 1.86306 11.0929C1.49918 10.9799 1.12347 10.8577 0.842351 10.6014C0.561231 10.3452 0.399674 9.91418 0.569134 9.57253C0.67554 9.35834 0.881786 9.22299 1.09854 9.11262L1.10114 9.11393Z" fill="currentColor"/>
</svg>
