<svg width="65" height="21" viewBox="0 0 65 21" fill="none" xmlns="http://www.w3.org/2000/svg">
<path fill-rule="evenodd" clip-rule="evenodd" d="M16.2507 20.8364H10.6253L6.40702 4.54522C6.2068 3.79583 5.78168 3.13332 5.15633 2.82107C3.59572 2.03638 1.87603 1.41188 0 1.09692V0.469706H9.06198C10.3127 0.469706 11.2507 1.41188 11.407 2.50611L13.5957 14.2575L19.2183 0.469706H24.6873L16.2507 20.8364ZM27.814 20.8364H22.5014L26.876 0.469706H32.1887L27.814 20.8364ZM39.062 6.11192C39.2183 5.01498 40.1563 4.38776 41.2507 4.38776C42.9704 4.23028 44.8437 4.54525 46.407 5.32722L47.345 0.942174C45.7817 0.314963 44.062 0 42.5014 0C37.345 0 33.593 2.82109 33.593 6.73641C33.593 9.71499 36.2507 11.2789 38.1267 12.2211C40.1563 13.1606 40.938 13.7878 40.7817 14.7272C40.7817 16.1364 39.2183 16.7636 37.6577 16.7636C35.7817 16.7636 33.9057 16.2939 32.1887 15.5092L31.2507 19.897C33.1267 20.679 35.1563 20.9939 37.0324 20.9939C42.814 21.1487 46.407 18.3303 46.407 14.1C46.407 8.77281 39.062 8.46056 39.062 6.11192ZM65 20.8364L60.7817 0.469706H56.2507C55.3127 0.469706 54.3747 1.09692 54.062 2.03638L46.2507 20.8364H51.7197L52.8113 17.8606H59.531L60.1563 20.8364H65ZM57.0323 5.95407L58.5929 13.6299H54.2183L57.0323 5.95407Z" fill="white"/>
</svg>

