<svg width="26" height="26" viewBox="0 0 25 24" fill="black" xmlns="http://www.w3.org/2000/svg">
<path d="M16.0775 17.5282C11.2157 17.5282 7.26012 13.5702 7.25879 8.70686C7.26012 7.47405 8.26365 6.47156 9.49343 6.47156C9.61987 6.47156 9.74497 6.48221 9.86475 6.50351C10.1283 6.54744 10.3785 6.63664 10.6088 6.77111C10.642 6.79108 10.6646 6.82303 10.67 6.86031L11.1837 10.0994C11.1904 10.1367 11.1784 10.1753 11.1531 10.2033C10.8696 10.5175 10.5076 10.7438 10.1043 10.8569L9.91001 10.9115L9.9832 11.0992C10.646 12.7874 11.9956 14.136 13.6845 14.8017L13.8722 14.8762L13.9268 14.6818C14.0399 14.2785 14.2662 13.9163 14.5803 13.6328C14.6029 13.6115 14.6335 13.6008 14.6641 13.6008C14.6708 13.6008 14.6774 13.6008 14.6854 13.6021L17.9236 14.116C17.9622 14.1227 17.9941 14.144 18.0141 14.1773C18.1472 14.4076 18.2363 14.6592 18.2816 14.9228C18.3029 15.04 18.3122 15.1638 18.3122 15.2929C18.3122 16.5244 17.31 17.5269 16.0775 17.5282Z" fill="currentColor"/>
<path d="M24.6995 10.9036C24.4373 7.94002 23.0797 5.19084 20.877 3.16323C18.661 1.12364 15.7862 0 12.7796 0C6.18085 0 0.811882 5.37056 0.811882 11.9713C0.811882 14.1866 1.42277 16.3447 2.57935 18.2245L0 23.9359L8.25844 23.0559C9.69452 23.6443 11.2144 23.9425 12.7783 23.9425C13.1895 23.9425 13.6115 23.9212 14.0347 23.8773C14.4074 23.8374 14.784 23.7788 15.154 23.7042C20.68 22.5873 24.7141 17.6813 24.746 12.0352V11.9713C24.746 11.6118 24.7301 11.2524 24.6981 10.9049L24.6995 10.9036ZM8.57654 20.549L4.00745 21.0363L5.37166 18.0128L5.09881 17.6467C5.07885 17.6201 5.05889 17.5935 5.03626 17.5628C3.85173 15.9266 3.22618 13.9936 3.22618 11.9726C3.22618 6.70322 7.51179 2.41636 12.7796 2.41636C17.7147 2.41636 21.8978 6.26788 22.3011 11.1845C22.3224 11.4481 22.3344 11.713 22.3344 11.9739C22.3344 12.0485 22.3331 12.1217 22.3317 12.2003C22.2306 16.6083 19.1521 20.352 14.8452 21.3052C14.5165 21.3784 14.1798 21.4343 13.8444 21.4703C13.4957 21.5102 13.1376 21.5302 12.7823 21.5302C11.5166 21.5302 10.2868 21.2852 9.12488 20.8006C8.99578 20.7487 8.86934 20.6928 8.75088 20.6355L8.57787 20.5517L8.57654 20.549Z" fill="black"/>
</svg>
