<svg width="36" height="36" viewBox="0 0 36 36" fill="none" xmlns="http://www.w3.org/2000/svg">
<path d="M28.8522 22.1005L28.6755 21.9237C28.7509 21.8483 28.8405 21.7885 28.9391 21.7476C29.0375 21.7068 29.143 21.6858 29.2496 21.6858C29.2497 21.6858 29.2499 21.6858 29.25 21.6858L28.8522 22.1005ZM28.8522 22.1005L28.6755 21.9238C28.6 21.9992 28.5402 22.0888 28.4993 22.1874C28.4585 22.2859 28.4375 22.3916 28.4375 22.4983V28.1247C28.4374 28.2076 28.4044 28.2871 28.3458 28.3458C28.2871 28.4044 28.2076 28.4374 28.1247 28.4375H7.87528C7.79236 28.4374 7.71286 28.4044 7.65422 28.3458C7.59558 28.2871 7.56259 28.2076 7.5625 28.1247L7.5625 22.4974L7.5625 22.497C7.56217 22.2817 7.47642 22.0754 7.32408 21.9233L7.14744 22.1002L7.32408 21.9233C7.17174 21.7712 6.96526 21.6858 6.74999 21.6858C6.73386 21.6858 6.71775 21.6863 6.70166 21.6872C5.9773 21.6777 5.27171 21.4551 4.67302 21.047C4.07176 20.6371 3.60521 20.0585 3.33209 19.3841C3.05897 18.7096 2.9915 17.9694 3.13818 17.2567C3.28485 16.544 3.63912 15.8906 4.15636 15.3788C4.67361 14.867 5.33072 14.5197 6.04495 14.3805C6.75918 14.2414 7.49862 14.3167 8.17014 14.5969C8.84167 14.8772 9.41528 15.3498 9.81875 15.9554C10.2222 16.561 10.4375 17.2723 10.4375 18V23.625C10.4375 23.8405 10.5231 24.0472 10.6755 24.1995C10.8278 24.3519 11.0345 24.4375 11.25 24.4375C11.4655 24.4375 11.6722 24.3519 11.8245 24.1995C11.9769 24.0472 12.0625 23.8405 12.0625 23.625V19.9375H23.9375V23.625C23.9375 23.8405 24.0231 24.0472 24.1755 24.1995C24.3279 24.3519 24.5345 24.4375 24.75 24.4375C24.9655 24.4375 25.1722 24.3519 25.3245 24.1995C25.4769 24.0472 25.5625 23.8405 25.5625 23.625V18C25.5625 17.2723 25.7778 16.561 26.1813 15.9554C26.5847 15.3498 27.1583 14.8772 27.8299 14.597C28.5014 14.3167 29.2408 14.2414 29.955 14.3805C30.6693 14.5197 31.3264 14.867 31.8436 15.3788C32.3609 15.8906 32.7151 16.544 32.8618 17.2567C33.0085 17.9694 32.941 18.7096 32.6679 19.3841C32.3948 20.0585 31.9282 20.6371 31.327 21.047C30.7283 21.455 30.0228 21.6777 29.2985 21.6872L28.8522 22.1005ZM30.0625 10.125V10.1247C30.0609 8.71632 29.5007 7.36606 28.5048 6.37016C27.5089 5.37427 26.1587 4.81409 24.7503 4.8125H24.75L11.25 4.8125L11.2497 4.8125C9.84132 4.81409 8.49106 5.37427 7.49516 6.37016C6.49927 7.36606 5.93909 8.71632 5.9375 10.1247V10.125V12.7506C4.72468 12.9383 3.61156 13.5407 2.79031 14.4589C1.91913 15.4328 1.4375 16.6937 1.4375 18.0005C1.4375 19.3072 1.91913 20.5681 2.79031 21.5421C3.61156 22.4602 4.72468 23.0627 5.9375 23.2503V28.125V28.1253C5.93809 28.6389 6.14237 29.1313 6.50555 29.4945C6.86872 29.8576 7.36111 30.0619 7.87471 30.0625H7.875H28.125H28.1253C28.6389 30.0619 29.1313 29.8576 29.4945 29.4945C29.8576 29.1313 30.0619 28.6389 30.0625 28.1253V28.125V23.2503C31.2753 23.0627 32.3884 22.4602 33.2097 21.5421C34.0809 20.5681 34.5625 19.3072 34.5625 18.0005C34.5625 16.6937 34.0809 15.4328 33.2097 14.4589C32.3884 13.5407 31.2753 12.9383 30.0625 12.7506V10.125ZM23.9375 18V18.3125H12.0625V18V17.9997C12.0608 16.6936 11.5786 15.4337 10.7078 14.4603C9.88683 13.5425 8.77461 12.9398 7.5625 12.7509V10.1253C7.5636 9.14756 7.95248 8.21019 8.64384 7.51884C9.33517 6.82751 10.2725 6.43862 11.2502 6.4375C11.2502 6.4375 11.2502 6.4375 11.2503 6.4375H24.7497C24.7498 6.4375 24.7498 6.4375 24.7498 6.4375C25.7275 6.43862 26.6648 6.82751 27.3562 7.51884C28.0475 8.21019 28.4364 9.14756 28.4375 10.1253V12.7509C27.2254 12.9398 26.1132 13.5425 25.2922 14.4603C24.4214 15.4337 23.9392 16.6936 23.9375 17.9997V18Z" fill="white" stroke="white" stroke-width="0.5"/>
</svg>
