<svg width="36" height="36" viewBox="0 0 36 36" fill="none" xmlns="http://www.w3.org/2000/svg">
<path d="M32.5271 27.3989H29.2076V15.8582H30.7587V23.552C30.7587 23.8947 31.0366 24.1725 31.3792 24.1725C31.7218 24.1725 31.9997 23.8947 31.9997 23.552V15.8582H32.527C32.8697 15.8582 33.1475 15.5804 33.1475 15.2377C33.1475 14.8951 32.8697 14.6173 32.527 14.6173H26.4464V5.62046C26.4464 5.27777 26.1686 5 25.826 5H9.32156C8.97894 5 8.7011 5.27777 8.7011 5.62046V14.6172H2.62046C2.27783 14.6172 2 14.8951 2 15.2377C2 15.5804 2.27783 15.8582 2.62046 15.8582H3.14784V27.3989H2.62046C2.27783 27.3989 2 27.6767 2 28.0194V30.4392C2 30.7819 2.27783 31.0597 2.62046 31.0597H32.5271C32.8697 31.0597 33.1475 30.7819 33.1475 30.4392V28.0194C33.1475 27.6767 32.8697 27.3989 32.5271 27.3989ZM26.4465 15.8582H27.9667V27.3989H26.4465V15.8582ZM9.94202 6.24091H25.2055V14.6172H23.7126V8.47459C23.7126 8.13191 23.4347 7.85414 23.0921 7.85414H12.0554C11.7128 7.85414 11.435 8.13191 11.435 8.47459V14.6172H9.94202V6.24091ZM25.2055 15.8582V27.3989H23.7126V15.8582H25.2055ZM18.1632 14.6172V9.09505H22.4716V14.6172H18.1632ZM22.4716 15.8582V27.3989H20.9553V15.8582H22.4716ZM19.7144 15.8582V27.3989H18.1632V15.8582H19.7144ZM12.6759 14.6172V9.09505H16.9223V14.6172H12.6759ZM16.9223 15.8582V27.3989H15.4332V15.8582H16.9223ZM14.1922 15.8582V27.3989H12.6759V15.8582H14.1922ZM9.94202 15.8582H11.435V27.3989H9.94202V15.8582ZM7.11884 15.8582H8.70104V27.3989H7.11884V15.8582ZM4.38881 15.8582H5.87793V27.3989H4.38881V15.8582ZM31.9066 29.8188H3.24091V28.6399H31.9066L31.9066 29.8188Z" fill="#8C331B"/>
<path d="M31.3792 24.9172C31.0366 24.9172 30.7588 25.195 30.7588 25.5377V25.972C30.7588 26.3147 31.0366 26.5925 31.3792 26.5925C31.7219 26.5925 31.9997 26.3147 31.9997 25.972V25.5377C31.9997 25.195 31.7219 24.9172 31.3792 24.9172Z" fill="#8C331B"/>
</svg>
