<svg width="38" height="38" viewBox="0 0 38 38" fill="none" xmlns="http://www.w3.org/2000/svg">
<mask id="path-1-outside-1_1870_6269" maskUnits="userSpaceOnUse" x="4" y="2" width="30" height="33" fill="black">
<rect fill="white" x="4" y="2" width="30" height="33"/>
<path d="M33.2376 21.0324L30.5431 10.6689C30.4913 10.4617 30.4394 10.2544 30.3876 10.0471C30.1804 9.1662 29.9731 8.23349 29.4549 7.40443C27.9146 4.82066 24.8972 3.14325 21.7277 3.00965C21.5958 3.00036 21.466 3 21.3196 3H17.0188C16.8634 3 16.7265 3.00024 16.5748 3.01142C13.4184 3.15612 10.4157 4.83044 8.83165 7.4045C8.3135 8.23355 8.10619 9.16626 7.89894 10.0472C7.84714 10.2544 7.79529 10.4617 7.74349 10.669L5.04902 21.0324C4.84177 21.8614 5.30813 22.7423 6.13718 22.9496L8.15805 23.4677C8.9871 23.675 9.86801 23.2086 10.0753 22.3796L12.2516 14.4515C12.3034 14.3479 12.407 14.3997 12.407 14.4515V18.5451C11.8371 18.5451 11.3707 19.0115 11.3707 19.5815V20.6179C11.3707 21.1879 11.8371 21.6542 12.4071 21.6542V32.5358C12.4071 33.4167 13.0807 34.0903 13.9616 34.0903H24.325C25.206 34.0903 25.8796 33.4167 25.8796 32.5358V21.6542C26.4496 21.6542 26.9159 21.1878 26.9159 20.6178V19.5814C26.9159 19.0114 26.4496 18.5451 25.8796 18.5451V14.4515C25.8796 14.3997 26.035 14.3997 26.035 14.4515L28.2113 22.3796C28.4186 23.0532 29.0404 23.5195 29.714 23.5195C29.8695 23.5195 29.9732 23.4677 30.1286 23.4677L32.1495 22.9496C32.9785 22.6905 33.4448 21.8614 33.2376 21.0324ZM21.2678 4.03636C21.2851 4.03636 21.3022 4.03709 21.3194 4.03721L19.1433 11.9125L17.0188 4.03636H21.2678ZM20.6978 19.5815V21.136V22.6905H19.6614V19.5815H20.6978ZM18.6251 23.2087V24.7632H17.5888V21.136V19.5815H18.0033H18.107H18.6251V23.2087ZM12.3552 13.2598C11.8371 13.2598 11.4225 13.6225 11.2671 14.0888L9.09075 22.0169C9.03896 22.276 8.72806 22.4314 8.46895 22.3796L6.44808 21.8614C6.18898 21.8096 6.03352 21.4987 6.08538 21.2396L8.77985 10.8762C8.83165 10.6689 8.88351 10.4616 8.9353 10.2544C9.14255 9.4253 9.298 8.64805 9.71256 7.92259C10.9945 5.86225 13.3689 4.40963 15.9419 4.09915L18.5954 13.9268L17.6717 18.5451H17.0706H13.4434V14.3479C13.4434 13.7779 12.977 13.2598 12.3552 13.2598ZM12.4071 19.5815H12.9252H16.5524V20.6179H12.9252H12.4071V19.5815ZM24.8432 32.5358C24.8432 32.8467 24.636 33.0539 24.325 33.0539H13.9616C13.6507 33.0539 13.4435 32.8467 13.4435 32.5358V21.6542H16.5525V24.7632C16.5525 25.3332 17.0188 25.7996 17.5888 25.7996H18.6252C19.1952 25.7996 19.6616 25.3332 19.6616 24.7632V23.7268H20.6978C21.2678 23.7268 21.7342 23.2605 21.7342 22.6905V21.6542H24.8432V32.5358ZM25.8795 20.6178H25.3613H21.7342V19.5814H25.3613H25.8795V20.6178ZM31.8385 21.9651L29.8176 22.4832C29.5585 22.535 29.2476 22.3796 29.1958 22.1205L27.0195 14.1925C26.8641 13.6743 26.4495 13.3634 25.9314 13.3634C25.3613 13.3634 24.8432 13.8816 24.8432 14.4516V18.5451H21.216H19.1433H18.7495L19.6615 13.9852L22.343 4.10322C24.9376 4.42359 27.2914 5.8838 28.5222 8.0263C28.9368 8.6999 29.144 9.52902 29.3513 10.3581C29.4031 10.5653 29.4549 10.7726 29.5067 10.9799L32.2012 21.3433C32.253 21.6024 32.0976 21.9133 31.8385 21.9651Z"/>
</mask>
<path d="M33.2376 21.0324L30.5431 10.6689C30.4913 10.4617 30.4394 10.2544 30.3876 10.0471C30.1804 9.1662 29.9731 8.23349 29.4549 7.40443C27.9146 4.82066 24.8972 3.14325 21.7277 3.00965C21.5958 3.00036 21.466 3 21.3196 3H17.0188C16.8634 3 16.7265 3.00024 16.5748 3.01142C13.4184 3.15612 10.4157 4.83044 8.83165 7.4045C8.3135 8.23355 8.10619 9.16626 7.89894 10.0472C7.84714 10.2544 7.79529 10.4617 7.74349 10.669L5.04902 21.0324C4.84177 21.8614 5.30813 22.7423 6.13718 22.9496L8.15805 23.4677C8.9871 23.675 9.86801 23.2086 10.0753 22.3796L12.2516 14.4515C12.3034 14.3479 12.407 14.3997 12.407 14.4515V18.5451C11.8371 18.5451 11.3707 19.0115 11.3707 19.5815V20.6179C11.3707 21.1879 11.8371 21.6542 12.4071 21.6542V32.5358C12.4071 33.4167 13.0807 34.0903 13.9616 34.0903H24.325C25.206 34.0903 25.8796 33.4167 25.8796 32.5358V21.6542C26.4496 21.6542 26.9159 21.1878 26.9159 20.6178V19.5814C26.9159 19.0114 26.4496 18.5451 25.8796 18.5451V14.4515C25.8796 14.3997 26.035 14.3997 26.035 14.4515L28.2113 22.3796C28.4186 23.0532 29.0404 23.5195 29.714 23.5195C29.8695 23.5195 29.9732 23.4677 30.1286 23.4677L32.1495 22.9496C32.9785 22.6905 33.4448 21.8614 33.2376 21.0324ZM21.2678 4.03636C21.2851 4.03636 21.3022 4.03709 21.3194 4.03721L19.1433 11.9125L17.0188 4.03636H21.2678ZM20.6978 19.5815V21.136V22.6905H19.6614V19.5815H20.6978ZM18.6251 23.2087V24.7632H17.5888V21.136V19.5815H18.0033H18.107H18.6251V23.2087ZM12.3552 13.2598C11.8371 13.2598 11.4225 13.6225 11.2671 14.0888L9.09075 22.0169C9.03896 22.276 8.72806 22.4314 8.46895 22.3796L6.44808 21.8614C6.18898 21.8096 6.03352 21.4987 6.08538 21.2396L8.77985 10.8762C8.83165 10.6689 8.88351 10.4616 8.9353 10.2544C9.14255 9.4253 9.298 8.64805 9.71256 7.92259C10.9945 5.86225 13.3689 4.40963 15.9419 4.09915L18.5954 13.9268L17.6717 18.5451H17.0706H13.4434V14.3479C13.4434 13.7779 12.977 13.2598 12.3552 13.2598ZM12.4071 19.5815H12.9252H16.5524V20.6179H12.9252H12.4071V19.5815ZM24.8432 32.5358C24.8432 32.8467 24.636 33.0539 24.325 33.0539H13.9616C13.6507 33.0539 13.4435 32.8467 13.4435 32.5358V21.6542H16.5525V24.7632C16.5525 25.3332 17.0188 25.7996 17.5888 25.7996H18.6252C19.1952 25.7996 19.6616 25.3332 19.6616 24.7632V23.7268H20.6978C21.2678 23.7268 21.7342 23.2605 21.7342 22.6905V21.6542H24.8432V32.5358ZM25.8795 20.6178H25.3613H21.7342V19.5814H25.3613H25.8795V20.6178ZM31.8385 21.9651L29.8176 22.4832C29.5585 22.535 29.2476 22.3796 29.1958 22.1205L27.0195 14.1925C26.8641 13.6743 26.4495 13.3634 25.9314 13.3634C25.3613 13.3634 24.8432 13.8816 24.8432 14.4516V18.5451H21.216H19.1433H18.7495L19.6615 13.9852L22.343 4.10322C24.9376 4.42359 27.2914 5.8838 28.5222 8.0263C28.9368 8.6999 29.144 9.52902 29.3513 10.3581C29.4031 10.5653 29.4549 10.7726 29.5067 10.9799L32.2012 21.3433C32.253 21.6024 32.0976 21.9133 31.8385 21.9651Z" fill="#8C331B"/>
<path d="M33.2376 21.0324L30.5431 10.6689C30.4913 10.4617 30.4394 10.2544 30.3876 10.0471C30.1804 9.1662 29.9731 8.23349 29.4549 7.40443C27.9146 4.82066 24.8972 3.14325 21.7277 3.00965C21.5958 3.00036 21.466 3 21.3196 3H17.0188C16.8634 3 16.7265 3.00024 16.5748 3.01142C13.4184 3.15612 10.4157 4.83044 8.83165 7.4045C8.3135 8.23355 8.10619 9.16626 7.89894 10.0472C7.84714 10.2544 7.79529 10.4617 7.74349 10.669L5.04902 21.0324C4.84177 21.8614 5.30813 22.7423 6.13718 22.9496L8.15805 23.4677C8.9871 23.675 9.86801 23.2086 10.0753 22.3796L12.2516 14.4515C12.3034 14.3479 12.407 14.3997 12.407 14.4515V18.5451C11.8371 18.5451 11.3707 19.0115 11.3707 19.5815V20.6179C11.3707 21.1879 11.8371 21.6542 12.4071 21.6542V32.5358C12.4071 33.4167 13.0807 34.0903 13.9616 34.0903H24.325C25.206 34.0903 25.8796 33.4167 25.8796 32.5358V21.6542C26.4496 21.6542 26.9159 21.1878 26.9159 20.6178V19.5814C26.9159 19.0114 26.4496 18.5451 25.8796 18.5451V14.4515C25.8796 14.3997 26.035 14.3997 26.035 14.4515L28.2113 22.3796C28.4186 23.0532 29.0404 23.5195 29.714 23.5195C29.8695 23.5195 29.9732 23.4677 30.1286 23.4677L32.1495 22.9496C32.9785 22.6905 33.4448 21.8614 33.2376 21.0324ZM21.2678 4.03636C21.2851 4.03636 21.3022 4.03709 21.3194 4.03721L19.1433 11.9125L17.0188 4.03636H21.2678ZM20.6978 19.5815V21.136V22.6905H19.6614V19.5815H20.6978ZM18.6251 23.2087V24.7632H17.5888V21.136V19.5815H18.0033H18.107H18.6251V23.2087ZM12.3552 13.2598C11.8371 13.2598 11.4225 13.6225 11.2671 14.0888L9.09075 22.0169C9.03896 22.276 8.72806 22.4314 8.46895 22.3796L6.44808 21.8614C6.18898 21.8096 6.03352 21.4987 6.08538 21.2396L8.77985 10.8762C8.83165 10.6689 8.88351 10.4616 8.9353 10.2544C9.14255 9.4253 9.298 8.64805 9.71256 7.92259C10.9945 5.86225 13.3689 4.40963 15.9419 4.09915L18.5954 13.9268L17.6717 18.5451H17.0706H13.4434V14.3479C13.4434 13.7779 12.977 13.2598 12.3552 13.2598ZM12.4071 19.5815H12.9252H16.5524V20.6179H12.9252H12.4071V19.5815ZM24.8432 32.5358C24.8432 32.8467 24.636 33.0539 24.325 33.0539H13.9616C13.6507 33.0539 13.4435 32.8467 13.4435 32.5358V21.6542H16.5525V24.7632C16.5525 25.3332 17.0188 25.7996 17.5888 25.7996H18.6252C19.1952 25.7996 19.6616 25.3332 19.6616 24.7632V23.7268H20.6978C21.2678 23.7268 21.7342 23.2605 21.7342 22.6905V21.6542H24.8432V32.5358ZM25.8795 20.6178H25.3613H21.7342V19.5814H25.3613H25.8795V20.6178ZM31.8385 21.9651L29.8176 22.4832C29.5585 22.535 29.2476 22.3796 29.1958 22.1205L27.0195 14.1925C26.8641 13.6743 26.4495 13.3634 25.9314 13.3634C25.3613 13.3634 24.8432 13.8816 24.8432 14.4516V18.5451H21.216H19.1433H18.7495L19.6615 13.9852L22.343 4.10322C24.9376 4.42359 27.2914 5.8838 28.5222 8.0263C28.9368 8.6999 29.144 9.52902 29.3513 10.3581C29.4031 10.5653 29.4549 10.7726 29.5067 10.9799L32.2012 21.3433C32.253 21.6024 32.0976 21.9133 31.8385 21.9651Z" stroke="#8C331B" stroke-width="0.6" mask="url(#path-1-outside-1_1870_6269)"/>
</svg>
