<svg width="39" height="36" viewBox="0 0 39 36" fill="none" xmlns="http://www.w3.org/2000/svg">
<mask id="path-1-outside-1_1866_5802" maskUnits="userSpaceOnUse" x="3" y="4" width="33" height="28" fill="black">
<rect fill="white" x="3" y="4" width="33" height="28"/>
<path d="M5.08217 22.4399H34.3958V21.2308C34.3958 20.9382 34.3394 20.6664 34.2394 20.423C34.1316 20.1641 33.9727 19.9337 33.7752 19.7343C33.6547 19.6126 33.5188 19.5013 33.3726 19.4029C33.2239 19.3019 33.0649 19.2139 32.8982 19.1388C32.4494 19.0404 32.0032 18.9472 31.5596 18.8592C31.1134 18.7712 30.6646 18.6883 30.2133 18.6107C30.1927 18.6081 30.1774 18.6055 30.1568 18.6003C29.9286 18.5615 29.7106 18.5252 29.5029 18.4916C29.2952 18.4579 29.0747 18.4242 28.8439 18.388H28.8387C27.2693 18.186 25.705 18.0307 24.1433 17.9271C22.579 17.8236 21.0225 17.7718 19.4761 17.7692C18.5581 17.7692 17.6426 17.7847 16.7271 17.821C15.8167 17.8572 14.9012 17.909 13.9858 17.9815H13.9806C13.1241 18.0618 12.2702 18.1627 11.4137 18.2793C10.5597 18.3958 9.70322 18.533 8.84158 18.6857L8.7467 18.709C8.72875 18.7142 8.71079 18.7168 8.69541 18.7168C8.68002 18.7194 8.66464 18.7194 8.64925 18.7194C8.24664 18.7919 7.83377 18.8721 7.40808 18.9576C6.99521 19.0404 6.58235 19.1285 6.17204 19.2191C6.06947 19.276 5.97202 19.3408 5.8797 19.4081C5.78738 19.478 5.69763 19.5531 5.61813 19.6333C5.44632 19.8068 5.31041 20.0062 5.21809 20.2288C5.1309 20.4385 5.08217 20.6715 5.08217 20.9253V22.4399ZM7.64144 5H31.4878C31.798 5 32.0955 5.06214 32.3673 5.17606C32.6494 5.29515 32.9033 5.46862 33.1161 5.68092C33.329 5.89581 33.5008 6.15213 33.6162 6.43692C33.729 6.71136 33.7906 7.01169 33.7906 7.32497V18.3776C33.9214 18.4553 34.0496 18.5407 34.1676 18.634C34.3009 18.7375 34.4266 18.8463 34.542 18.9628C34.8394 19.2631 35.0805 19.6126 35.242 20.0062C35.3959 20.3764 35.4805 20.788 35.4805 21.2334V22.8101C35.4882 22.836 35.4959 22.8619 35.501 22.8878V22.8929C35.5062 22.9266 35.5087 22.9577 35.5087 22.9887C35.5087 23.0224 35.5062 23.0561 35.4985 23.0897C35.4933 23.1156 35.4856 23.1415 35.478 23.1674V30.3287C35.478 30.4789 35.4164 30.6161 35.319 30.7145C35.2215 30.8129 35.0856 30.875 34.9369 30.875H33.8214C33.6957 30.875 33.5803 30.831 33.488 30.7585C33.3957 30.686 33.3264 30.5824 33.2982 30.4633C33.0931 29.8679 32.8854 29.3967 32.6622 29.029C32.4417 28.6665 32.2058 28.4076 31.934 28.2238C31.6596 28.04 31.3313 27.9235 30.9338 27.8536C30.5287 27.7811 30.0568 27.7578 29.4952 27.7604L9.0416 27.7863H9.03134C8.62873 27.7785 8.29793 27.8303 8.02097 27.939C7.74658 28.0478 7.52348 28.2109 7.33884 28.4206C7.13113 28.6536 6.95675 28.9513 6.79776 29.2983C6.6362 29.653 6.49003 30.0569 6.34386 30.4996C6.30796 30.6135 6.23615 30.7041 6.1464 30.7688C6.06177 30.831 5.9592 30.8672 5.85406 30.8724C5.84636 30.875 5.83867 30.875 5.83098 30.875H4.54109C4.39235 30.875 4.25644 30.8129 4.15899 30.7145C4.06155 30.6161 4 30.4789 4 30.3287V20.9279C4 20.5214 4.07693 20.1486 4.21541 19.812C4.36414 19.4547 4.58212 19.1362 4.85394 18.8618C4.93088 18.7841 5.0155 18.7064 5.10525 18.634C5.18219 18.5718 5.25912 18.5123 5.34118 18.4579V7.30167C5.34118 6.98839 5.40272 6.69065 5.51556 6.42139C5.63352 6.13918 5.80533 5.88546 6.01818 5.67315C6.23102 5.46085 6.4849 5.29256 6.76442 5.17606C7.03624 5.06214 7.33115 5 7.64144 5ZM31.4878 6.09258H7.64144C7.47476 6.09258 7.31576 6.12624 7.16959 6.18579C7.01829 6.24792 6.88495 6.33854 6.77211 6.44987C6.66184 6.55861 6.57209 6.69324 6.51054 6.83823C6.45413 6.98063 6.42335 7.13597 6.42335 7.30167V17.9323C6.50029 17.9064 6.57722 17.8857 6.65671 17.865C6.78237 17.8313 6.90802 17.8029 7.03368 17.7822C7.20806 17.7511 7.39782 17.7174 7.60298 17.6812C7.75684 17.6553 7.92096 17.6268 8.09021 17.6009V14.8876C8.09021 14.4785 8.17227 14.0876 8.31844 13.7303C8.47231 13.3575 8.69541 13.0235 8.97236 12.7439C9.24932 12.4642 9.58013 12.239 9.9494 12.0837C10.3033 11.9361 10.6905 11.8532 11.0957 11.8532H16.1783C16.5835 11.8532 16.9707 11.9361 17.3246 12.0837C17.6939 12.239 18.0247 12.4642 18.3016 12.7439C18.5786 13.0235 18.8017 13.3575 18.9556 13.7303C19.1017 14.0876 19.1838 14.4785 19.1838 14.8876V16.6197C19.3633 16.6171 19.5428 16.6171 19.7249 16.6171V14.8876C19.7249 14.4785 19.8069 14.0876 19.9531 13.7303C20.107 13.3575 20.3301 13.0235 20.607 12.7439C20.884 12.4642 21.2148 12.239 21.5841 12.0837C21.9379 11.9361 22.3252 11.8532 22.7303 11.8532H27.813C28.2182 11.8532 28.6054 11.9361 28.9593 12.0837C29.3285 12.239 29.6593 12.4642 29.9363 12.7439C30.2133 13.0235 30.4364 13.3575 30.5902 13.7303C30.7364 14.0876 30.8185 14.4785 30.8185 14.8876V17.5647C31.0108 17.5932 31.2159 17.6268 31.4365 17.6631C31.6801 17.7019 31.9134 17.7407 32.1391 17.7796C32.2545 17.8003 32.3725 17.8236 32.4904 17.8521C32.5648 17.8702 32.6366 17.8883 32.7058 17.909V7.32497C32.7058 7.15927 32.6725 7.00134 32.6135 6.85635C32.552 6.70619 32.4597 6.57156 32.3468 6.45505C32.234 6.34113 32.0981 6.24792 31.9519 6.18579C31.8083 6.12624 31.6519 6.09258 31.4878 6.09258ZM15.0808 16.7957C15.5962 16.7569 16.1142 16.7232 16.6399 16.6973C17.1246 16.6715 17.6144 16.6533 18.1042 16.6404V14.8876C18.1042 14.6261 18.0529 14.375 17.958 14.1471C17.8606 13.9089 17.717 13.6966 17.5374 13.5154C17.3605 13.3368 17.1477 13.1918 16.9117 13.0908C16.6861 12.995 16.4373 12.9432 16.1783 12.9432H11.0957C10.8367 12.9432 10.5879 12.995 10.3623 13.0908C10.1263 13.1892 9.91606 13.3342 9.73655 13.5154C9.55961 13.694 9.416 13.9089 9.31599 14.1471C9.22111 14.375 9.16982 14.6261 9.16982 14.8876V17.4275C9.58525 17.3653 10.0058 17.3084 10.4366 17.2514C10.9008 17.1919 11.3624 17.1375 11.8188 17.0857C11.9958 17.065 12.1856 17.0417 12.383 17.021C12.5676 17.0003 12.76 16.9821 12.9651 16.9614C13.3139 16.9278 13.6601 16.8967 14.0011 16.8682C14.3525 16.8449 14.7115 16.819 15.0808 16.7957ZM20.807 16.6249C21.1173 16.63 21.4276 16.6378 21.7379 16.6482C22.0816 16.6585 22.4252 16.674 22.7662 16.6896H22.7688C23.3304 16.7103 23.8792 16.7362 24.4126 16.7672C24.946 16.7983 25.4666 16.8372 25.964 16.8812C26.6872 16.9459 27.3873 17.0236 28.0515 17.1142C28.6464 17.197 29.2106 17.2902 29.7388 17.3938V14.8876C29.7388 14.6261 29.6876 14.375 29.5927 14.1471C29.4952 13.9089 29.3516 13.6966 29.1721 13.5154C28.9952 13.3368 28.7823 13.1918 28.5464 13.0908C28.3207 12.995 28.072 12.9432 27.813 12.9432H22.7329C22.4739 12.9432 22.2252 12.995 21.9995 13.0908C21.7636 13.1892 21.5533 13.3342 21.3738 13.5154C21.1968 13.694 21.0532 13.9089 20.9532 14.1471C20.8583 14.375 20.807 14.6261 20.807 14.8876V16.6249ZM34.3983 23.535H5.08217V29.7824H5.44888C5.59249 29.3734 5.74122 28.9928 5.90791 28.6536C6.08742 28.2911 6.29001 27.9701 6.53619 27.6931C6.82853 27.3617 7.17216 27.1053 7.58503 26.9345C7.99789 26.7662 8.48 26.6807 9.05955 26.6937L29.4952 26.6678C30.1543 26.6678 30.7184 26.6989 31.2108 26.7947C31.7109 26.8904 32.1417 27.0536 32.5289 27.3125C32.8879 27.5532 33.1956 27.8717 33.4726 28.2885C33.7367 28.6873 33.9727 29.1766 34.1983 29.7798H34.3932V23.535H34.3983Z"/>
</mask>
<path d="M5.08217 22.4399H34.3958V21.2308C34.3958 20.9382 34.3394 20.6664 34.2394 20.423C34.1316 20.1641 33.9727 19.9337 33.7752 19.7343C33.6547 19.6126 33.5188 19.5013 33.3726 19.4029C33.2239 19.3019 33.0649 19.2139 32.8982 19.1388C32.4494 19.0404 32.0032 18.9472 31.5596 18.8592C31.1134 18.7712 30.6646 18.6883 30.2133 18.6107C30.1927 18.6081 30.1774 18.6055 30.1568 18.6003C29.9286 18.5615 29.7106 18.5252 29.5029 18.4916C29.2952 18.4579 29.0747 18.4242 28.8439 18.388H28.8387C27.2693 18.186 25.705 18.0307 24.1433 17.9271C22.579 17.8236 21.0225 17.7718 19.4761 17.7692C18.5581 17.7692 17.6426 17.7847 16.7271 17.821C15.8167 17.8572 14.9012 17.909 13.9858 17.9815H13.9806C13.1241 18.0618 12.2702 18.1627 11.4137 18.2793C10.5597 18.3958 9.70322 18.533 8.84158 18.6857L8.7467 18.709C8.72875 18.7142 8.71079 18.7168 8.69541 18.7168C8.68002 18.7194 8.66464 18.7194 8.64925 18.7194C8.24664 18.7919 7.83377 18.8721 7.40808 18.9576C6.99521 19.0404 6.58235 19.1285 6.17204 19.2191C6.06947 19.276 5.97202 19.3408 5.8797 19.4081C5.78738 19.478 5.69763 19.5531 5.61813 19.6333C5.44632 19.8068 5.31041 20.0062 5.21809 20.2288C5.1309 20.4385 5.08217 20.6715 5.08217 20.9253V22.4399ZM7.64144 5H31.4878C31.798 5 32.0955 5.06214 32.3673 5.17606C32.6494 5.29515 32.9033 5.46862 33.1161 5.68092C33.329 5.89581 33.5008 6.15213 33.6162 6.43692C33.729 6.71136 33.7906 7.01169 33.7906 7.32497V18.3776C33.9214 18.4553 34.0496 18.5407 34.1676 18.634C34.3009 18.7375 34.4266 18.8463 34.542 18.9628C34.8394 19.2631 35.0805 19.6126 35.242 20.0062C35.3959 20.3764 35.4805 20.788 35.4805 21.2334V22.8101C35.4882 22.836 35.4959 22.8619 35.501 22.8878V22.8929C35.5062 22.9266 35.5087 22.9577 35.5087 22.9887C35.5087 23.0224 35.5062 23.0561 35.4985 23.0897C35.4933 23.1156 35.4856 23.1415 35.478 23.1674V30.3287C35.478 30.4789 35.4164 30.6161 35.319 30.7145C35.2215 30.8129 35.0856 30.875 34.9369 30.875H33.8214C33.6957 30.875 33.5803 30.831 33.488 30.7585C33.3957 30.686 33.3264 30.5824 33.2982 30.4633C33.0931 29.8679 32.8854 29.3967 32.6622 29.029C32.4417 28.6665 32.2058 28.4076 31.934 28.2238C31.6596 28.04 31.3313 27.9235 30.9338 27.8536C30.5287 27.7811 30.0568 27.7578 29.4952 27.7604L9.0416 27.7863H9.03134C8.62873 27.7785 8.29793 27.8303 8.02097 27.939C7.74658 28.0478 7.52348 28.2109 7.33884 28.4206C7.13113 28.6536 6.95675 28.9513 6.79776 29.2983C6.6362 29.653 6.49003 30.0569 6.34386 30.4996C6.30796 30.6135 6.23615 30.7041 6.1464 30.7688C6.06177 30.831 5.9592 30.8672 5.85406 30.8724C5.84636 30.875 5.83867 30.875 5.83098 30.875H4.54109C4.39235 30.875 4.25644 30.8129 4.15899 30.7145C4.06155 30.6161 4 30.4789 4 30.3287V20.9279C4 20.5214 4.07693 20.1486 4.21541 19.812C4.36414 19.4547 4.58212 19.1362 4.85394 18.8618C4.93088 18.7841 5.0155 18.7064 5.10525 18.634C5.18219 18.5718 5.25912 18.5123 5.34118 18.4579V7.30167C5.34118 6.98839 5.40272 6.69065 5.51556 6.42139C5.63352 6.13918 5.80533 5.88546 6.01818 5.67315C6.23102 5.46085 6.4849 5.29256 6.76442 5.17606C7.03624 5.06214 7.33115 5 7.64144 5ZM31.4878 6.09258H7.64144C7.47476 6.09258 7.31576 6.12624 7.16959 6.18579C7.01829 6.24792 6.88495 6.33854 6.77211 6.44987C6.66184 6.55861 6.57209 6.69324 6.51054 6.83823C6.45413 6.98063 6.42335 7.13597 6.42335 7.30167V17.9323C6.50029 17.9064 6.57722 17.8857 6.65671 17.865C6.78237 17.8313 6.90802 17.8029 7.03368 17.7822C7.20806 17.7511 7.39782 17.7174 7.60298 17.6812C7.75684 17.6553 7.92096 17.6268 8.09021 17.6009V14.8876C8.09021 14.4785 8.17227 14.0876 8.31844 13.7303C8.47231 13.3575 8.69541 13.0235 8.97236 12.7439C9.24932 12.4642 9.58013 12.239 9.9494 12.0837C10.3033 11.9361 10.6905 11.8532 11.0957 11.8532H16.1783C16.5835 11.8532 16.9707 11.9361 17.3246 12.0837C17.6939 12.239 18.0247 12.4642 18.3016 12.7439C18.5786 13.0235 18.8017 13.3575 18.9556 13.7303C19.1017 14.0876 19.1838 14.4785 19.1838 14.8876V16.6197C19.3633 16.6171 19.5428 16.6171 19.7249 16.6171V14.8876C19.7249 14.4785 19.8069 14.0876 19.9531 13.7303C20.107 13.3575 20.3301 13.0235 20.607 12.7439C20.884 12.4642 21.2148 12.239 21.5841 12.0837C21.9379 11.9361 22.3252 11.8532 22.7303 11.8532H27.813C28.2182 11.8532 28.6054 11.9361 28.9593 12.0837C29.3285 12.239 29.6593 12.4642 29.9363 12.7439C30.2133 13.0235 30.4364 13.3575 30.5902 13.7303C30.7364 14.0876 30.8185 14.4785 30.8185 14.8876V17.5647C31.0108 17.5932 31.2159 17.6268 31.4365 17.6631C31.6801 17.7019 31.9134 17.7407 32.1391 17.7796C32.2545 17.8003 32.3725 17.8236 32.4904 17.8521C32.5648 17.8702 32.6366 17.8883 32.7058 17.909V7.32497C32.7058 7.15927 32.6725 7.00134 32.6135 6.85635C32.552 6.70619 32.4597 6.57156 32.3468 6.45505C32.234 6.34113 32.0981 6.24792 31.9519 6.18579C31.8083 6.12624 31.6519 6.09258 31.4878 6.09258ZM15.0808 16.7957C15.5962 16.7569 16.1142 16.7232 16.6399 16.6973C17.1246 16.6715 17.6144 16.6533 18.1042 16.6404V14.8876C18.1042 14.6261 18.0529 14.375 17.958 14.1471C17.8606 13.9089 17.717 13.6966 17.5374 13.5154C17.3605 13.3368 17.1477 13.1918 16.9117 13.0908C16.6861 12.995 16.4373 12.9432 16.1783 12.9432H11.0957C10.8367 12.9432 10.5879 12.995 10.3623 13.0908C10.1263 13.1892 9.91606 13.3342 9.73655 13.5154C9.55961 13.694 9.416 13.9089 9.31599 14.1471C9.22111 14.375 9.16982 14.6261 9.16982 14.8876V17.4275C9.58525 17.3653 10.0058 17.3084 10.4366 17.2514C10.9008 17.1919 11.3624 17.1375 11.8188 17.0857C11.9958 17.065 12.1856 17.0417 12.383 17.021C12.5676 17.0003 12.76 16.9821 12.9651 16.9614C13.3139 16.9278 13.6601 16.8967 14.0011 16.8682C14.3525 16.8449 14.7115 16.819 15.0808 16.7957ZM20.807 16.6249C21.1173 16.63 21.4276 16.6378 21.7379 16.6482C22.0816 16.6585 22.4252 16.674 22.7662 16.6896H22.7688C23.3304 16.7103 23.8792 16.7362 24.4126 16.7672C24.946 16.7983 25.4666 16.8372 25.964 16.8812C26.6872 16.9459 27.3873 17.0236 28.0515 17.1142C28.6464 17.197 29.2106 17.2902 29.7388 17.3938V14.8876C29.7388 14.6261 29.6876 14.375 29.5927 14.1471C29.4952 13.9089 29.3516 13.6966 29.1721 13.5154C28.9952 13.3368 28.7823 13.1918 28.5464 13.0908C28.3207 12.995 28.072 12.9432 27.813 12.9432H22.7329C22.4739 12.9432 22.2252 12.995 21.9995 13.0908C21.7636 13.1892 21.5533 13.3342 21.3738 13.5154C21.1968 13.694 21.0532 13.9089 20.9532 14.1471C20.8583 14.375 20.807 14.6261 20.807 14.8876V16.6249ZM34.3983 23.535H5.08217V29.7824H5.44888C5.59249 29.3734 5.74122 28.9928 5.90791 28.6536C6.08742 28.2911 6.29001 27.9701 6.53619 27.6931C6.82853 27.3617 7.17216 27.1053 7.58503 26.9345C7.99789 26.7662 8.48 26.6807 9.05955 26.6937L29.4952 26.6678C30.1543 26.6678 30.7184 26.6989 31.2108 26.7947C31.7109 26.8904 32.1417 27.0536 32.5289 27.3125C32.8879 27.5532 33.1956 27.8717 33.4726 28.2885C33.7367 28.6873 33.9727 29.1766 34.1983 29.7798H34.3932V23.535H34.3983Z" fill="#8C331B"/>
<path d="M5.08217 22.4399H34.3958V21.2308C34.3958 20.9382 34.3394 20.6664 34.2394 20.423C34.1316 20.1641 33.9727 19.9337 33.7752 19.7343C33.6547 19.6126 33.5188 19.5013 33.3726 19.4029C33.2239 19.3019 33.0649 19.2139 32.8982 19.1388C32.4494 19.0404 32.0032 18.9472 31.5596 18.8592C31.1134 18.7712 30.6646 18.6883 30.2133 18.6107C30.1927 18.6081 30.1774 18.6055 30.1568 18.6003C29.9286 18.5615 29.7106 18.5252 29.5029 18.4916C29.2952 18.4579 29.0747 18.4242 28.8439 18.388H28.8387C27.2693 18.186 25.705 18.0307 24.1433 17.9271C22.579 17.8236 21.0225 17.7718 19.4761 17.7692C18.5581 17.7692 17.6426 17.7847 16.7271 17.821C15.8167 17.8572 14.9012 17.909 13.9858 17.9815H13.9806C13.1241 18.0618 12.2702 18.1627 11.4137 18.2793C10.5597 18.3958 9.70322 18.533 8.84158 18.6857L8.7467 18.709C8.72875 18.7142 8.71079 18.7168 8.69541 18.7168C8.68002 18.7194 8.66464 18.7194 8.64925 18.7194C8.24664 18.7919 7.83377 18.8721 7.40808 18.9576C6.99521 19.0404 6.58235 19.1285 6.17204 19.2191C6.06947 19.276 5.97202 19.3408 5.8797 19.4081C5.78738 19.478 5.69763 19.5531 5.61813 19.6333C5.44632 19.8068 5.31041 20.0062 5.21809 20.2288C5.1309 20.4385 5.08217 20.6715 5.08217 20.9253V22.4399ZM7.64144 5H31.4878C31.798 5 32.0955 5.06214 32.3673 5.17606C32.6494 5.29515 32.9033 5.46862 33.1161 5.68092C33.329 5.89581 33.5008 6.15213 33.6162 6.43692C33.729 6.71136 33.7906 7.01169 33.7906 7.32497V18.3776C33.9214 18.4553 34.0496 18.5407 34.1676 18.634C34.3009 18.7375 34.4266 18.8463 34.542 18.9628C34.8394 19.2631 35.0805 19.6126 35.242 20.0062C35.3959 20.3764 35.4805 20.788 35.4805 21.2334V22.8101C35.4882 22.836 35.4959 22.8619 35.501 22.8878V22.8929C35.5062 22.9266 35.5087 22.9577 35.5087 22.9887C35.5087 23.0224 35.5062 23.0561 35.4985 23.0897C35.4933 23.1156 35.4856 23.1415 35.478 23.1674V30.3287C35.478 30.4789 35.4164 30.6161 35.319 30.7145C35.2215 30.8129 35.0856 30.875 34.9369 30.875H33.8214C33.6957 30.875 33.5803 30.831 33.488 30.7585C33.3957 30.686 33.3264 30.5824 33.2982 30.4633C33.0931 29.8679 32.8854 29.3967 32.6622 29.029C32.4417 28.6665 32.2058 28.4076 31.934 28.2238C31.6596 28.04 31.3313 27.9235 30.9338 27.8536C30.5287 27.7811 30.0568 27.7578 29.4952 27.7604L9.0416 27.7863H9.03134C8.62873 27.7785 8.29793 27.8303 8.02097 27.939C7.74658 28.0478 7.52348 28.2109 7.33884 28.4206C7.13113 28.6536 6.95675 28.9513 6.79776 29.2983C6.6362 29.653 6.49003 30.0569 6.34386 30.4996C6.30796 30.6135 6.23615 30.7041 6.1464 30.7688C6.06177 30.831 5.9592 30.8672 5.85406 30.8724C5.84636 30.875 5.83867 30.875 5.83098 30.875H4.54109C4.39235 30.875 4.25644 30.8129 4.15899 30.7145C4.06155 30.6161 4 30.4789 4 30.3287V20.9279C4 20.5214 4.07693 20.1486 4.21541 19.812C4.36414 19.4547 4.58212 19.1362 4.85394 18.8618C4.93088 18.7841 5.0155 18.7064 5.10525 18.634C5.18219 18.5718 5.25912 18.5123 5.34118 18.4579V7.30167C5.34118 6.98839 5.40272 6.69065 5.51556 6.42139C5.63352 6.13918 5.80533 5.88546 6.01818 5.67315C6.23102 5.46085 6.4849 5.29256 6.76442 5.17606C7.03624 5.06214 7.33115 5 7.64144 5ZM31.4878 6.09258H7.64144C7.47476 6.09258 7.31576 6.12624 7.16959 6.18579C7.01829 6.24792 6.88495 6.33854 6.77211 6.44987C6.66184 6.55861 6.57209 6.69324 6.51054 6.83823C6.45413 6.98063 6.42335 7.13597 6.42335 7.30167V17.9323C6.50029 17.9064 6.57722 17.8857 6.65671 17.865C6.78237 17.8313 6.90802 17.8029 7.03368 17.7822C7.20806 17.7511 7.39782 17.7174 7.60298 17.6812C7.75684 17.6553 7.92096 17.6268 8.09021 17.6009V14.8876C8.09021 14.4785 8.17227 14.0876 8.31844 13.7303C8.47231 13.3575 8.69541 13.0235 8.97236 12.7439C9.24932 12.4642 9.58013 12.239 9.9494 12.0837C10.3033 11.9361 10.6905 11.8532 11.0957 11.8532H16.1783C16.5835 11.8532 16.9707 11.9361 17.3246 12.0837C17.6939 12.239 18.0247 12.4642 18.3016 12.7439C18.5786 13.0235 18.8017 13.3575 18.9556 13.7303C19.1017 14.0876 19.1838 14.4785 19.1838 14.8876V16.6197C19.3633 16.6171 19.5428 16.6171 19.7249 16.6171V14.8876C19.7249 14.4785 19.8069 14.0876 19.9531 13.7303C20.107 13.3575 20.3301 13.0235 20.607 12.7439C20.884 12.4642 21.2148 12.239 21.5841 12.0837C21.9379 11.9361 22.3252 11.8532 22.7303 11.8532H27.813C28.2182 11.8532 28.6054 11.9361 28.9593 12.0837C29.3285 12.239 29.6593 12.4642 29.9363 12.7439C30.2133 13.0235 30.4364 13.3575 30.5902 13.7303C30.7364 14.0876 30.8185 14.4785 30.8185 14.8876V17.5647C31.0108 17.5932 31.2159 17.6268 31.4365 17.6631C31.6801 17.7019 31.9134 17.7407 32.1391 17.7796C32.2545 17.8003 32.3725 17.8236 32.4904 17.8521C32.5648 17.8702 32.6366 17.8883 32.7058 17.909V7.32497C32.7058 7.15927 32.6725 7.00134 32.6135 6.85635C32.552 6.70619 32.4597 6.57156 32.3468 6.45505C32.234 6.34113 32.0981 6.24792 31.9519 6.18579C31.8083 6.12624 31.6519 6.09258 31.4878 6.09258ZM15.0808 16.7957C15.5962 16.7569 16.1142 16.7232 16.6399 16.6973C17.1246 16.6715 17.6144 16.6533 18.1042 16.6404V14.8876C18.1042 14.6261 18.0529 14.375 17.958 14.1471C17.8606 13.9089 17.717 13.6966 17.5374 13.5154C17.3605 13.3368 17.1477 13.1918 16.9117 13.0908C16.6861 12.995 16.4373 12.9432 16.1783 12.9432H11.0957C10.8367 12.9432 10.5879 12.995 10.3623 13.0908C10.1263 13.1892 9.91606 13.3342 9.73655 13.5154C9.55961 13.694 9.416 13.9089 9.31599 14.1471C9.22111 14.375 9.16982 14.6261 9.16982 14.8876V17.4275C9.58525 17.3653 10.0058 17.3084 10.4366 17.2514C10.9008 17.1919 11.3624 17.1375 11.8188 17.0857C11.9958 17.065 12.1856 17.0417 12.383 17.021C12.5676 17.0003 12.76 16.9821 12.9651 16.9614C13.3139 16.9278 13.6601 16.8967 14.0011 16.8682C14.3525 16.8449 14.7115 16.819 15.0808 16.7957ZM20.807 16.6249C21.1173 16.63 21.4276 16.6378 21.7379 16.6482C22.0816 16.6585 22.4252 16.674 22.7662 16.6896H22.7688C23.3304 16.7103 23.8792 16.7362 24.4126 16.7672C24.946 16.7983 25.4666 16.8372 25.964 16.8812C26.6872 16.9459 27.3873 17.0236 28.0515 17.1142C28.6464 17.197 29.2106 17.2902 29.7388 17.3938V14.8876C29.7388 14.6261 29.6876 14.375 29.5927 14.1471C29.4952 13.9089 29.3516 13.6966 29.1721 13.5154C28.9952 13.3368 28.7823 13.1918 28.5464 13.0908C28.3207 12.995 28.072 12.9432 27.813 12.9432H22.7329C22.4739 12.9432 22.2252 12.995 21.9995 13.0908C21.7636 13.1892 21.5533 13.3342 21.3738 13.5154C21.1968 13.694 21.0532 13.9089 20.9532 14.1471C20.8583 14.375 20.807 14.6261 20.807 14.8876V16.6249ZM34.3983 23.535H5.08217V29.7824H5.44888C5.59249 29.3734 5.74122 28.9928 5.90791 28.6536C6.08742 28.2911 6.29001 27.9701 6.53619 27.6931C6.82853 27.3617 7.17216 27.1053 7.58503 26.9345C7.99789 26.7662 8.48 26.6807 9.05955 26.6937L29.4952 26.6678C30.1543 26.6678 30.7184 26.6989 31.2108 26.7947C31.7109 26.8904 32.1417 27.0536 32.5289 27.3125C32.8879 27.5532 33.1956 27.8717 33.4726 28.2885C33.7367 28.6873 33.9727 29.1766 34.1983 29.7798H34.3932V23.535H34.3983Z" stroke="#8C331B" stroke-width="0.4" mask="url(#path-1-outside-1_1866_5802)"/>
</svg>
