<svg width="38" height="38" viewBox="0 0 38 38" fill="none" xmlns="http://www.w3.org/2000/svg">
<path d="M32.6934 12.8274H5.30664C4.89673 12.8274 4.56445 12.495 4.56445 12.0852V9.48755C4.56445 9.07771 4.89673 8.74536 5.30664 8.74536H32.6934C33.1033 8.74536 33.4355 9.07771 33.4355 9.48755V12.0852C33.4355 12.495 33.1033 12.8274 32.6934 12.8274ZM6.04883 11.343H31.9512V10.2297H6.04883V11.343Z" fill="#8C331B"/>
<path d="M32.6934 23.5149H23.3418C22.9319 23.5149 22.5996 23.1825 22.5996 22.7727V12.0852C22.5996 11.6754 22.9319 11.343 23.3418 11.343H32.6934C33.1033 11.343 33.4355 11.6754 33.4355 12.0852V22.7727C33.4355 23.1825 33.1033 23.5149 32.6934 23.5149ZM24.084 22.0305H31.9512V12.8274H24.084V22.0305Z" fill="#8C331B"/>
<path d="M5.30664 29.2545C4.89673 29.2545 4.56445 28.9222 4.56445 28.5123V12.0852C4.56445 11.6754 4.89673 11.343 5.30664 11.343C5.71655 11.343 6.04883 11.6754 6.04883 12.0852V28.5123C6.04883 28.9222 5.71655 29.2545 5.30664 29.2545Z" fill="#8C331B"/>
<path d="M23.3418 29.2545C22.9319 29.2545 22.5996 28.9222 22.5996 28.5123V22.7727C22.5996 22.3629 22.9319 22.0305 23.3418 22.0305C23.7517 22.0305 24.084 22.3629 24.084 22.7727V28.5123C24.084 28.9222 23.7517 29.2545 23.3418 29.2545Z" fill="#8C331B"/>
<path d="M32.6934 29.2545C32.2834 29.2545 31.9512 28.9222 31.9512 28.5123V22.7727C31.9512 22.3629 32.2834 22.0305 32.6934 22.0305C33.1033 22.0305 33.4355 22.3629 33.4355 22.7727V28.5123C33.4355 28.9222 33.1033 29.2545 32.6934 29.2545Z" fill="#8C331B"/>
<path d="M32.6934 18.2454H23.3418C22.9319 18.2454 22.5996 17.913 22.5996 17.5032C22.5996 17.0933 22.9319 16.761 23.3418 16.761H32.6934C33.1033 16.761 33.4355 17.0933 33.4355 17.5032C33.4355 17.913 33.1033 18.2454 32.6934 18.2454Z" fill="#8C331B"/>
<path d="M29.2287 15.697H26.8064C26.3965 15.697 26.0642 15.3647 26.0642 14.9548C26.0642 14.545 26.3965 14.2126 26.8064 14.2126H29.2287C29.6386 14.2126 29.9709 14.545 29.9709 14.9548C29.9709 15.3647 29.6386 15.697 29.2287 15.697Z" fill="#8C331B"/>
<path d="M29.2287 20.8352H26.8064C26.3965 20.8352 26.0642 20.5029 26.0642 20.093C26.0642 19.6832 26.3965 19.3508 26.8064 19.3508H29.2287C29.6386 19.3508 29.9709 19.6832 29.9709 20.093C29.9709 20.5029 29.6386 20.8352 29.2287 20.8352Z" fill="#8C331B"/>
<path d="M23.3418 17.4683H5.30664C4.89673 17.4683 4.56445 17.1359 4.56445 16.7261V12.1941C4.56445 11.7843 4.89673 11.4519 5.30664 11.4519H23.3418C23.7517 11.4519 24.084 11.7843 24.084 12.1941V16.7261C24.084 17.136 23.7517 17.4683 23.3418 17.4683ZM6.04883 15.9839H22.5996V12.9363H6.04883V15.9839Z" fill="#8C331B"/>
<path d="M15.2471 15.4683H13.6143C13.2043 15.4683 12.8721 15.1359 12.8721 14.7261C12.8721 14.3162 13.2043 13.9839 13.6143 13.9839H15.2471C15.657 13.9839 15.9893 14.3162 15.9893 14.7261C15.9893 15.1359 15.657 15.4683 15.2471 15.4683Z" fill="#8C331B"/>
</svg>
