<svg width="36" height="36" viewBox="0 0 36 36" fill="none" xmlns="http://www.w3.org/2000/svg">
<path d="M26.6092 24.3694H27.1092V23.8694V12.1303V11.6303H26.6092H9.39175H8.89175V12.1303V23.8694V24.3694H9.39175H26.6092ZM8.21788 10.2825H27.783C28.1552 10.2825 28.457 10.5842 28.457 10.9564V25.0434C28.457 25.4156 28.1552 25.7173 27.783 25.7173H8.21788C7.84569 25.7173 7.54395 25.4155 7.54395 25.0434V10.9564C7.54395 10.5842 7.84572 10.2825 8.21788 10.2825Z" stroke="#8C331B"/>
<path d="M18.2822 15.0403L18.2823 15.0404L23.3693 17.3882L23.5788 16.9342L23.3693 17.3882C23.608 17.4983 23.7608 17.7372 23.7608 18C23.7608 18.263 23.6079 18.5018 23.3694 18.6119L23.3693 18.6119L18.2824 20.9597L18.2823 20.9598C18.1927 21.0011 18.0964 21.0218 17.9999 21.0218C17.9034 21.0218 17.807 21.0011 17.7176 20.9598L17.7175 20.9597L12.6305 18.6119C12.3919 18.5018 12.239 18.2629 12.239 18C12.239 17.7371 12.3919 17.4983 12.6305 17.3882L12.6305 17.3882L17.7175 15.0404L17.7176 15.0403C17.8967 14.9576 18.1031 14.9576 18.2822 15.0403ZM17.7904 19.5089L17.9999 19.6056L18.2095 19.5089L20.495 18.454L21.4786 18L20.495 17.5461L18.2095 16.4912L17.9999 16.3945L17.7904 16.4912L15.5048 17.5461L14.5212 18L15.5048 18.454L17.7904 19.5089Z" stroke="#8C331B"/>
<path d="M33.1521 9.78259V10.2826H33.6521H34.8261C35.1983 10.2826 35.5 10.5843 35.5 10.9565C35.5 11.3254 35.2035 11.6251 34.8359 11.6304H34.8261H33.6521H33.1521V12.1304V14.4782V14.9782H33.6521H34.8261C35.1983 14.9782 35.5 15.2799 35.5 15.6521C35.5 16.0243 35.1982 16.3261 34.8261 16.3261H33.6521H33.1521V16.8261V19.1739V19.6739H33.6521H34.8261C35.1983 19.6739 35.5 19.9756 35.5 20.3478C35.5 20.72 35.1982 21.0218 34.8261 21.0218H33.6521H33.1521V21.5218V23.8696V24.3696H33.6521H34.8261C35.1982 24.3696 35.5 24.6713 35.5 25.0435C35.5 25.4157 35.1982 25.7174 34.8261 25.7174H33.6521H33.1521V26.2174V28.5652V29.0652H33.6521H34.8261C35.1983 29.0652 35.5 29.367 35.5 29.7392C35.5 30.1114 35.1982 30.4131 34.8261 30.4131H32.4783H4.30432H3.52174H1.17394C0.80175 30.4131 0.5 30.1113 0.5 29.7392C0.5 29.367 0.801727 29.0652 1.17394 29.0652H2.34787H2.84787V28.5652V26.2174V25.7174H2.34787H1.17394C0.801746 25.7174 0.5 25.4157 0.5 25.0435C0.5 24.6713 0.801731 24.3696 1.17394 24.3696H2.34787H2.84787V23.8696V21.5218V21.0218H2.34787H1.17394C0.801749 21.0218 0.5 20.72 0.5 20.3478C0.5 19.9757 0.801708 19.674 1.17394 19.674H2.34787H2.84787V19.174V16.8261V16.3261H2.34787H1.17394C0.801728 16.3261 0.5 16.0244 0.5 15.6522C0.5 15.28 0.801728 14.9783 1.17394 14.9783H2.34787H2.84787V14.4783V12.1305V11.6305H2.34787H1.17394C0.801748 11.6305 0.5 11.3287 0.5 10.9565C0.5 10.5844 0.801747 10.2826 1.17388 10.2827H1.17394H2.34787H2.84787V9.78266V7.43486V6.93486H2.34787H1.17394C0.801748 6.93486 0.5 6.63308 0.5 6.26092C0.5 5.88874 0.8017 5.58698 1.17394 5.58691C1.17396 5.58691 1.17397 5.58691 1.17399 5.58691H3.52174H4.30432H32.4783H34.8261C35.1983 5.58691 35.5 5.88869 35.5 6.26085C35.5 6.63304 35.1982 6.93479 34.8261 6.93479H33.6521H33.1521V7.43479V9.78259ZM31.3043 29.0652H31.8043L31.8043 28.5652L31.8044 7.43479L31.8044 6.93479H31.3044H4.69568H4.19568V7.43479V28.5652V29.0652H4.69568H31.3043Z" stroke="#8C331B"/>
</svg>
