<svg width="38" height="38" viewBox="0 0 38 38" fill="none" xmlns="http://www.w3.org/2000/svg">
<path d="M34.0843 18.1553H32.2591L33.9405 16.4739L33.0595 15.593L30.4972 18.1553H28.9609L30.5594 16.5567L29.6785 15.6758L27.199 18.1553H22.5471V17.1824H22.5458L21.9006 16.5373L25.2624 13.1755H28.7692L28.769 11.932H26.5072L27.7107 10.7285H31.0995V9.48345H28.9555L30.1293 8.30971L29.2483 7.42878L27.9582 8.71894V6.34204H26.7133V9.96535L25.6263 11.0523V8.78923H24.3815V12.2961L21.0197 15.6578L20.3513 14.9894L20.35 14.9907L20.3498 14.9892H19.3691L19.3693 10.3373L21.8488 7.85778L20.9679 6.97686L19.3693 8.57543V6.87448L21.766 4.47781L20.8851 3.59689L19.3681 5.1139V3.45459H18.1232V5.27979L16.4418 3.59839L15.5609 4.47931L18.1232 7.04165V8.57798L16.5246 6.97941L15.6437 7.86034L18.1232 10.3398V14.9918H17.2435L16.6062 15.6291L13.1551 12.178V8.6712H11.91V10.933L10.8233 9.84622V6.2229H9.57819V8.60136L8.28803 7.31097L7.40838 8.1919L8.58212 9.36564H6.43679V10.6105H9.82564L11.0291 11.8139L8.76733 11.8142V13.059H12.2742L15.7253 16.5101L15.0516 17.1837H15.0503V18.0373H10.3362L7.85667 15.5578L6.97575 16.4388L8.57432 18.0373H7.03909L4.47804 15.475L3.59711 16.3559L5.27852 18.0373H3.45459V19.2822H5.11412L3.59711 20.7992L4.47804 21.6801L6.8747 19.2835H8.57693L6.97836 20.882L7.85928 21.763L10.3388 19.2835H15.0529V20.29H15.0555L15.5828 20.8172L12.3442 24.0558L8.83476 24.0562V25.3011H11.0965L10.0096 26.388H6.38624V27.6329H8.76469L7.47453 28.923L8.35546 29.804L9.5292 28.6302V30.7742H10.7741V27.3854L11.9775 26.1819V28.4437H13.2224V24.9368L16.4609 21.6983L17.2473 22.4847V22.486H18.1361V27.1379L15.6566 29.6174L16.5375 30.4983L18.1361 28.8997V30.602L15.7394 32.9986L16.6203 33.8796L18.1373 32.3625V34.0221H19.3822V32.1969L21.0636 33.8783L21.9445 32.9974L19.3822 30.435V28.8987L20.9808 30.4973L21.8617 29.6163L19.3822 27.1368V22.4849H20.3538L21.0508 21.7879L24.318 25.0551V28.5619H25.5629V26.3001L26.7663 27.5036V30.8924H28.0112V28.7484L29.1849 29.9222L30.0659 29.0413L28.7757 27.7511H31.1541V26.5062H27.5308L26.4439 25.4193H28.7056V24.1744H25.1988L21.9316 20.9072L22.5495 20.2893H22.5521V19.4006H27.204L29.6835 21.8801L30.5644 20.9991L28.9658 19.4006H30.6681L33.0647 21.7972L33.9457 20.9163L32.4286 19.3993H34.0882L34.0884 18.1553L34.0843 18.1553ZM17.7615 16.2342H19.8381L21.3046 17.7007V19.7708L19.8367 21.2386H17.7628L16.295 19.7708V17.7005L17.7615 16.2342Z" fill="#8C331B"/>
</svg>
