<svg width="38" height="38" viewBox="0 0 38 38" fill="none" xmlns="http://www.w3.org/2000/svg">
<path d="M31.7253 20.3331C31.0472 19.4223 30.135 18.8206 29.045 18.5547V17.6441H29.1806C29.5312 17.6441 29.8154 17.3598 29.8154 17.0092C29.8154 16.6586 29.5312 16.3743 29.1806 16.3743H28.4101H21.9028L22.9652 6.70416C22.9848 6.52481 22.9273 6.34552 22.8069 6.21115C22.6865 6.07673 22.5146 6 22.3342 6H6.63481C6.45441 6 6.28249 6.07678 6.16205 6.21115C6.0416 6.34557 5.98412 6.52476 6.00379 6.70416L8.18278 26.5389C8.21816 26.8607 8.49006 27.1045 8.8138 27.1045H8.83215L9.03902 30.0723C9.06217 30.4049 9.33887 30.663 9.67236 30.663H16.8562C17.5229 30.9735 18.2787 31.1334 19.1065 31.1334H27.6925C29.3884 31.1334 30.7829 30.4643 31.7253 29.1986C32.5592 28.0786 33 26.5458 33 24.7659C33 22.9861 32.5592 21.4531 31.7253 20.3331ZM27.7753 17.644V18.3988C27.7478 18.3985 27.7202 18.3983 27.6925 18.3983H19.1065C19.0789 18.3983 19.0513 18.3985 19.0238 18.3988V17.644H21.1944H27.7753ZM9.3828 25.8346L7.34324 7.26969H21.6257L20.6255 16.3743H19.6487L20.3289 10.1835C20.3485 10.0041 20.291 9.82483 20.1706 9.69046C20.0502 9.55604 19.8783 9.47931 19.6979 9.47931H9.27121C9.09081 9.47931 8.9189 9.55609 8.79845 9.69046C8.678 9.82488 8.62052 10.0041 8.64019 10.1835L9.96267 22.2216C9.99805 22.5435 10.27 22.7871 10.5937 22.7871H14.0027C13.9889 22.8505 13.9758 22.9145 13.9634 22.979C13.9571 23.0116 13.9509 23.0444 13.945 23.0773C13.9345 23.1355 13.9244 23.1939 13.9151 23.2528C13.9086 23.2939 13.9026 23.3353 13.8965 23.3768C13.8887 23.4304 13.8811 23.4839 13.8743 23.5381C13.8682 23.5867 13.8629 23.6358 13.8575 23.6848C13.8521 23.7341 13.8466 23.7833 13.842 23.8331C13.8367 23.8894 13.8326 23.9463 13.8283 24.0032C13.825 24.0477 13.8212 24.0919 13.8184 24.1366C13.8143 24.2035 13.8116 24.2714 13.8088 24.3391C13.8074 24.3754 13.8052 24.4113 13.8041 24.4478C13.8009 24.5528 13.7991 24.6586 13.7991 24.7657C13.7991 24.8669 13.8009 24.9673 13.8038 25.0674C13.8049 25.1062 13.8068 25.1444 13.8084 25.1829C13.8109 25.2421 13.8134 25.3012 13.8168 25.3598C13.8196 25.4084 13.823 25.4566 13.8265 25.5047C13.8298 25.5506 13.8335 25.5963 13.8375 25.6418C13.8422 25.6967 13.8472 25.7514 13.8529 25.8057C13.8539 25.8153 13.8547 25.825 13.8557 25.8346H9.3828V25.8346ZM17.6185 17.644H17.7541V18.5546C16.9319 18.7551 16.2113 19.1471 15.6156 19.7182C15.3023 20.0182 15.0249 20.3666 14.7869 20.7606C14.7825 20.7678 14.7781 20.775 14.7738 20.7823C14.7333 20.85 14.6939 20.919 14.6558 20.9894C14.6483 21.0031 14.6411 21.0169 14.6337 21.0307C14.5983 21.0971 14.5637 21.1644 14.5305 21.2331C14.5211 21.2523 14.5123 21.2719 14.5031 21.2912C14.4797 21.3411 14.4567 21.3917 14.4342 21.4428C14.4233 21.4677 14.4119 21.4923 14.4013 21.5174H11.1626L10.6732 17.0617H13.2425C13.5932 17.0617 13.8774 16.7775 13.8774 16.4269C13.8774 16.0762 13.5932 15.7921 13.2425 15.7921H10.5336L10.3244 13.8875H14.5122C14.8628 13.8875 15.147 13.6033 15.147 13.2527C15.147 12.902 14.8628 12.6178 14.5122 12.6178H10.1849L9.97959 10.7489H18.9893L18.3714 16.3743H17.6185C17.2679 16.3743 16.9836 16.6585 16.9836 17.0091C16.9836 17.3598 17.2679 17.644 17.6185 17.644ZM10.2645 29.3932L10.109 27.1625H14.1058C14.1062 27.1636 14.1065 27.1647 14.1068 27.1657C14.136 27.2709 14.1669 27.3747 14.2002 27.4766C14.2013 27.4799 14.2023 27.4834 14.2034 27.4867C14.2355 27.5847 14.2694 27.6814 14.3054 27.7762C14.332 27.847 14.3607 27.9156 14.3892 27.9843C14.3967 28.0021 14.4035 28.0202 14.4111 28.0379C14.446 28.1198 14.4829 28.1999 14.5207 28.279C14.5217 28.281 14.5226 28.2831 14.5236 28.2852C14.7199 28.6945 14.9527 29.0657 15.2225 29.3932H10.2645V29.3932ZM27.6925 29.8636H19.1065C18.4107 29.8636 17.8342 29.7287 17.3565 29.5018C17.3352 29.4875 17.3132 29.4739 17.2899 29.4621C16.549 29.0855 16.057 28.4902 15.7303 27.8587C15.1941 26.8056 15.0851 25.5988 15.0707 24.9319C15.0697 24.8767 15.0689 24.8214 15.0689 24.7656C15.0689 24.6952 15.0703 24.6259 15.0718 24.5567C15.0892 23.9048 15.1976 22.7831 15.6782 21.7782C15.6845 21.7652 15.6907 21.7523 15.6972 21.7393C15.7006 21.7321 15.7043 21.725 15.7078 21.7178C15.734 21.6659 15.7618 21.6142 15.7906 21.5625C15.8132 21.5222 15.8358 21.482 15.8594 21.4429C15.8622 21.4382 15.865 21.4335 15.8678 21.4288C16.3843 20.5793 17.1371 20.0094 18.0837 19.7819C18.0872 19.781 18.091 19.7803 18.0946 19.7795C18.146 19.7673 18.1983 19.7564 18.2509 19.7462C18.2885 19.739 18.3269 19.7328 18.3654 19.7266C18.3857 19.7232 18.4058 19.7198 18.4262 19.7168C18.4786 19.7091 18.5317 19.702 18.5857 19.6961H18.5858C18.586 19.6961 18.5862 19.6961 18.5863 19.6961C18.5919 19.6954 18.5974 19.6947 18.603 19.6941C18.6059 19.6938 18.6088 19.6935 18.6117 19.6932C18.6596 19.6883 18.7078 19.6842 18.7565 19.6807C18.7581 19.6806 18.7597 19.6804 18.7613 19.6803L18.8066 19.6773C18.8418 19.6751 18.8772 19.6736 18.9127 19.6722L18.9553 19.6705C19.0051 19.6691 19.0553 19.6681 19.1065 19.6681H27.6926C27.748 19.6681 27.8026 19.6691 27.8565 19.6708C28.0169 19.676 28.1739 19.6888 28.3251 19.7093C28.3298 19.7099 28.3345 19.7097 28.3392 19.7103C31.4732 20.1337 31.7302 23.6428 31.7302 24.7659C31.7303 25.9617 31.4391 29.8636 27.6925 29.8636Z" fill="#8C331B"/>
<path d="M23.3995 20.9775C19.9485 20.9775 17.2451 22.6642 17.2451 24.8174C17.2451 26.9707 19.9485 28.6574 23.3995 28.6574C26.8506 28.6574 29.554 26.9707 29.554 24.8174C29.5539 22.6642 26.8506 20.9775 23.3995 20.9775ZM26.9836 26.5347C26.0364 27.0848 24.7636 27.3877 23.3994 27.3877C22.0353 27.3877 20.7624 27.0848 19.8152 26.5347C19.4631 26.3302 18.9383 25.9596 18.6761 25.4523H23.7732C24.1238 25.4523 24.408 25.168 24.408 24.8174C24.408 24.4668 24.1238 24.1825 23.7732 24.1825H18.6761C18.9383 23.6752 19.4631 23.3045 19.8152 23.1001C20.7624 22.5501 22.0353 22.2472 23.3994 22.2472C24.7636 22.2472 26.0364 22.5501 26.9836 23.1001C27.4694 23.3822 28.2842 23.9803 28.2842 24.8174C28.2842 25.6545 27.4694 26.2527 26.9836 26.5347Z" fill="#8C331B"/>
<path d="M17.0393 13.1289C17.031 13.0883 17.019 13.0483 17.0031 13.0102C16.9873 12.9722 16.9676 12.9353 16.9447 12.9004C16.9212 12.8661 16.8952 12.8337 16.866 12.8039C16.8361 12.7747 16.8037 12.7487 16.7695 12.7251C16.7346 12.7023 16.6977 12.6826 16.6596 12.6667C16.6215 12.6508 16.5815 12.6388 16.5409 12.6305C16.459 12.614 16.3746 12.614 16.2927 12.6305C16.252 12.6388 16.2121 12.6508 16.174 12.6667C16.1359 12.6826 16.0991 12.7023 16.0641 12.7251C16.0299 12.7486 15.9969 12.7747 15.9676 12.8039C15.9384 12.8337 15.9118 12.8661 15.8889 12.9004C15.8661 12.9353 15.8464 12.9721 15.8305 13.0102C15.8146 13.0483 15.8025 13.0883 15.7943 13.1289C15.7861 13.1702 15.7822 13.2115 15.7822 13.2534C15.7822 13.2946 15.786 13.3359 15.7943 13.3772C15.8026 13.4178 15.8146 13.4578 15.8305 13.4959C15.8464 13.534 15.866 13.5709 15.8889 13.6058C15.9117 13.64 15.9384 13.673 15.9676 13.7023C15.9969 13.7315 16.0299 13.7581 16.0641 13.781C16.0991 13.8038 16.1359 13.8236 16.174 13.8394C16.2121 13.8553 16.2521 13.8674 16.2927 13.8756C16.3339 13.8838 16.3752 13.8883 16.4165 13.8883C16.4584 13.8883 16.4997 13.8839 16.541 13.8756C16.5816 13.8674 16.6216 13.8553 16.6597 13.8394C16.6977 13.8236 16.7346 13.8039 16.7695 13.781C16.8038 13.7582 16.8362 13.7315 16.866 13.7023C16.8952 13.673 16.9212 13.64 16.9448 13.6058C16.9676 13.5709 16.9873 13.534 17.0032 13.4959C17.0191 13.4578 17.0311 13.4178 17.0394 13.3772C17.0476 13.3359 17.0514 13.2947 17.0514 13.2534C17.0514 13.2115 17.0476 13.1702 17.0393 13.1289Z" fill="#8C331B"/>
<path d="M26.3007 24.6934C26.2924 24.6527 26.2804 24.6128 26.2645 24.5747C26.2486 24.5366 26.229 24.4991 26.2061 24.4648C26.1826 24.4299 26.1559 24.3975 26.1267 24.3683C26.0975 24.3391 26.0651 24.3125 26.0302 24.2896C25.9959 24.2668 25.9591 24.247 25.921 24.2312C25.8823 24.2153 25.8423 24.2032 25.8023 24.195C25.7204 24.1785 25.636 24.1785 25.5541 24.195C25.5134 24.2032 25.4734 24.2153 25.4354 24.2312C25.3967 24.247 25.3598 24.2667 25.3255 24.2896C25.2906 24.3124 25.2582 24.3391 25.229 24.3683C25.1998 24.3975 25.1732 24.4299 25.1503 24.4648C25.1274 24.4991 25.1077 24.5366 25.0919 24.5747C25.076 24.6128 25.0639 24.6528 25.0557 24.6934C25.0475 24.734 25.043 24.7759 25.043 24.8172C25.043 24.8591 25.0474 24.9004 25.0557 24.9417C25.064 24.9823 25.076 25.0217 25.0919 25.0604C25.1077 25.0984 25.1274 25.1353 25.1503 25.1696C25.1731 25.2045 25.1998 25.2369 25.229 25.2661C25.2582 25.2953 25.2906 25.3219 25.3255 25.3455C25.3598 25.3683 25.3966 25.388 25.4354 25.4039C25.4734 25.4198 25.5135 25.4318 25.5541 25.4401C25.5947 25.4483 25.6366 25.4521 25.6779 25.4521C25.7198 25.4521 25.7611 25.4483 25.8023 25.4401C25.8423 25.4318 25.8823 25.4198 25.921 25.4039C25.9591 25.388 25.996 25.3683 26.0303 25.3455C26.0652 25.322 26.0976 25.2953 26.1268 25.2661C26.156 25.2369 26.1826 25.2045 26.2061 25.1696C26.229 25.1353 26.2487 25.0985 26.2646 25.0604C26.2804 25.0217 26.2925 24.9823 26.3007 24.9417C26.309 24.9004 26.3128 24.8591 26.3128 24.8172C26.3128 24.7759 26.309 24.734 26.3007 24.6934Z" fill="#8C331B"/>
<path d="M15.7688 16.3028C15.7606 16.2622 15.7485 16.2228 15.7326 16.1841C15.7168 16.146 15.6971 16.1091 15.6742 16.0748C15.6507 16.0399 15.6247 16.0076 15.5955 15.9783C15.5656 15.9485 15.5332 15.9225 15.499 15.899C15.464 15.8761 15.4272 15.8564 15.3891 15.8405C15.351 15.8247 15.311 15.8126 15.2704 15.8044C15.1885 15.7879 15.1041 15.7879 15.0222 15.8044C14.9816 15.8126 14.9416 15.8247 14.9035 15.8405C14.8654 15.8564 14.8279 15.8761 14.7936 15.899C14.7587 15.9224 14.7263 15.9485 14.6971 15.9783C14.6679 16.0076 14.6413 16.0399 14.6184 16.0748C14.5956 16.1091 14.5758 16.1459 14.56 16.1841C14.5441 16.2228 14.532 16.2622 14.5238 16.3028C14.5156 16.3441 14.5117 16.3853 14.5117 16.4272C14.5117 16.4685 14.5155 16.5097 14.5238 16.551C14.532 16.5916 14.5441 16.6317 14.56 16.6697C14.5758 16.7078 14.5955 16.7447 14.6184 16.7796C14.6412 16.8139 14.6679 16.8469 14.6971 16.8761C14.7263 16.9053 14.7587 16.9319 14.7936 16.9548C14.8279 16.9777 14.8654 16.9974 14.9035 17.0133C14.9416 17.0291 14.9816 17.0412 15.0222 17.0494C15.0635 17.0577 15.1047 17.0621 15.146 17.0621C15.1879 17.0621 15.2292 17.0577 15.2705 17.0494C15.3111 17.0412 15.3511 17.0291 15.3892 17.0133C15.4272 16.9974 15.4641 16.9777 15.499 16.9548C15.5333 16.932 15.5657 16.9053 15.5955 16.8761C15.6247 16.8469 15.6507 16.8139 15.6742 16.7796C15.6971 16.7447 15.7168 16.7079 15.7327 16.6697C15.7486 16.6317 15.7606 16.5916 15.7689 16.551C15.7771 16.5097 15.7816 16.4685 15.7816 16.4272C15.7815 16.3853 15.7771 16.3441 15.7688 16.3028Z" fill="#8C331B"/>
</svg>
