<svg width="38" height="38" viewBox="0 0 38 38" fill="none" xmlns="http://www.w3.org/2000/svg">
<path d="M20.3649 29.7737L20.3651 29.7736L20.3623 29.7662L18.7738 25.53C19.2069 25.2378 19.5497 24.8012 19.7539 24.3211C19.9743 23.8028 20.0384 23.2207 19.8657 22.7026C19.6677 22.1087 19.1756 21.6239 18.4568 21.3843L18.4569 21.3839L18.4458 21.3811C18.0987 21.2944 17.6737 21.2476 17.2415 21.277L16.6244 19.6185L29.3161 18.4161L32.3706 19.2695L32.3904 19.2751H32.4109H32.4112H32.4115H32.4117H32.412H32.4123H32.4125H32.4128H32.4131H32.4133H32.4136H32.4139H32.4141H32.4144H32.4147H32.4149H32.4152H32.4155H32.4157H32.416H32.4162H32.4165H32.4168H32.417H32.4173H32.4176H32.4178H32.4181H32.4184H32.4186H32.4189H32.4192H32.4194H32.4197H32.42H32.4202H32.4205H32.4208H32.421H32.4213H32.4216H32.4218H32.4221H32.4224H32.4226H32.4229H32.4232H32.4234H32.4237H32.4239H32.4242H32.4245H32.4247H32.425H32.4253H32.4255H32.4258H32.4261H32.4263H32.4266H32.4269H32.4271H32.4274H32.4277H32.4279H32.4282H32.4285H32.4287H32.429H32.4293H32.4295H32.4298H32.4301H32.4303H32.4306H32.4309H32.4311H32.4314H32.4316H32.4319H32.4322H32.4324H32.4327H32.433H32.4332H32.4335H32.4338H32.434H32.4343H32.4346H32.4348H32.4351H32.4354H32.4356H32.4359H32.4362H32.4364H32.4367H32.437H32.4372H32.4375H32.4378H32.438H32.4383H32.4386H32.4388H32.4391H32.4393H32.4396H32.4399H32.4401H32.4404H32.4407H32.4409H32.4412H32.4415H32.4417H32.442H32.4423H32.4425H32.4428H32.4431H32.4433H32.4436H32.4439H32.4441H32.4444H32.4447H32.4449H32.4452H32.4455H32.4457H32.446H32.4463H32.4465H32.4468H32.447H32.4473H32.4476H32.4478H32.4481H32.4484H32.4486H32.4489H32.4492H32.4494H32.4497H32.45H32.4502H32.4505H32.4508H32.451H32.4513H32.4516H32.4518H32.4521H32.4524H32.4526H32.4529H32.4532H32.4534H32.4537H32.4539H32.4542H32.4545H32.4547H32.455H32.4553H32.4555H32.4558H32.4561H32.4563H32.4566H32.4569H32.4571H32.4574H32.4577H32.4579H32.4582H32.4585H32.4587H32.459H32.4593H32.4595H32.4598H32.4601H32.4603H32.4606H32.4609H32.4611H32.4614H32.4616H32.4619H32.4622H32.4624H32.4627H32.463H32.4632H32.4635H32.4638H32.464H32.4643H32.4646H32.4648H32.4651H32.4654H32.4656H32.4659H32.4662H32.4664H32.4667H32.467H32.4672H32.4675H32.4678H32.468H32.4683H32.4686H32.4688H32.4691H32.4693H32.4696H32.4699H32.4701H32.4704H32.4707H32.4709H32.4712H32.4715H32.4717H32.472H32.4723H32.4725H32.4728H32.4731H32.4733H32.4736H32.4739H32.4741H32.4744H32.4747H32.4749H32.4752H32.4755H32.4757H32.476H32.4763H32.4765H32.4768H32.477H32.4773H32.4776H32.4778H32.4781H32.4784H32.4786H32.4789H32.4792H32.4794H32.4797H32.48H32.4802H32.4805H32.4808H32.481H32.4813H32.4816H32.4818H32.4821H32.4824H32.4826H32.4829H32.4832H32.4834H32.4837H32.484H32.4842H32.4845H32.4847H32.485H32.4853H32.4855H32.4858H32.4861H32.4863H32.4866H32.4869H32.4871H32.4874H32.4877H32.4879H32.4882H32.4885H32.4887H32.489H32.4893H32.4895H32.4898H32.4901H32.4903H32.4906H32.4909H32.4911H32.4914H32.4917H32.4919H32.4922H32.4924H32.4927H32.493H32.4932H32.4935H32.4938H32.494H32.4943H32.4946H32.4948H32.4951H32.4954H32.4956H32.4959H32.4962H32.4964H32.4967H32.497H32.4972H32.4975H32.4978H32.498H32.4983H32.4986H32.4988H32.4991H32.4993H32.4996H32.4999H32.5001H32.5004H32.5007H32.5009H32.5012H32.5015H32.5017H32.502H32.5023H32.5025H32.5028H32.5031H32.5033H32.5036H32.5039H32.5041H32.5044H32.5047H32.5049H32.5052H32.5055H32.5057H32.506H32.5063H32.5065H32.5068H32.507H32.5073H32.5076H32.5078H32.5081H32.5084H32.5086H32.5089H32.5092H32.5094H32.5097H32.51H32.5102H32.5105H32.5108H32.511H32.5113H32.5116H32.5118H32.5121H32.5124H32.5126H32.5129H32.5132H32.5134H32.5137H32.514H32.5142H32.5145H32.5147H32.515H32.5153H32.5155H32.5158H32.5161H32.5163H32.5166H32.5169H32.5171H32.5174H32.5177H32.5179H32.5182H32.5185H32.5187H32.519H32.5193H32.5195H32.5198H32.5201H32.5203H32.5206H32.5209H32.5211H32.5214H32.5217H32.5219H32.5222H32.5224H32.5227H32.523H32.5232H32.5235H32.5238H32.524H32.5243H32.5246H32.5248H32.5251H32.5254H32.5256H32.5259H32.5262H32.5264H32.5267H32.527H32.5272H32.5275H32.5278H32.528H32.5283H32.5286H32.5288H32.5291H32.5294H32.5296H32.5299H32.5301H32.5304H32.5307H32.5309H32.5312H32.5315H32.5317H32.532H32.5323H32.5325H32.5328H32.5331H32.5333H32.5336H32.5339H32.5341H32.5344H32.5347H32.5349H32.5352H32.5355H32.5357H32.536H32.5363H32.5365H32.5368H32.5371H32.5373H32.5376H32.5378H32.5381H32.5384H32.5386H32.5389H32.5392H32.5394H32.5397H32.54H32.5402H32.5405H32.5408H32.541H32.5413H32.5416H32.5418H32.5421H32.5424H32.5426H32.5429H32.5432H32.5434H32.5437H32.544H32.5442H32.5445H32.5448H32.545H32.5453H32.5455H32.5458H32.5461H32.5463H32.5466H32.5469C32.6737 19.2751 32.7925 19.2155 32.8743 19.1744C32.8782 19.1724 32.8821 19.1705 32.8858 19.1686L32.8942 19.1644L32.902 19.1593C33.0911 19.0332 33.15 18.8425 33.15 18.672V6.43758C33.15 6.27053 33.0935 6.08412 32.9133 5.95805C32.8345 5.8861 32.7321 5.85871 32.6433 5.85189C32.5491 5.84464 32.451 5.85873 32.3665 5.88647L29.2631 6.78601H10.3438C6.68193 6.78601 3.85 9.61653 3.85 13.2345V13.6876C3.85 17.1782 6.44604 19.9434 9.91975 20.1752L14.2806 31.9989C14.755 33.3727 16.035 34.2735 17.4578 34.2735C17.8344 34.2735 18.1692 34.2262 18.5501 34.0837C19.4041 33.7982 20.075 33.178 20.3633 32.3157C20.6479 31.5549 20.6448 30.66 20.3649 29.7737ZM18.1822 32.9385L18.1807 32.939C17.0335 33.3214 15.806 32.7265 15.4251 31.5839L15.4252 31.5839L15.4236 31.5795L11.1858 20.0707L15.4085 19.6484L19.2643 30.1846C19.4367 30.7252 19.4559 31.3253 19.2866 31.8331C19.1185 32.3373 18.7656 32.751 18.1822 32.9385ZM28.7719 7.99226V17.2215L10.3367 18.9751C10.0809 18.9745 9.8233 18.9434 9.5875 18.9067V8.01822C9.81582 7.99255 10.0738 7.99226 10.3438 7.99226H28.7719ZM5.05625 13.6876V13.2345C5.05625 10.9253 6.37932 9.03744 8.38125 8.28128V18.5995C6.38058 17.885 5.05625 15.9983 5.05625 13.6876ZM18.8122 23.1185C18.8859 23.3213 18.8622 23.5756 18.7576 23.8319C18.681 24.0194 18.5647 24.1987 18.4265 24.3459L17.724 22.4602C17.9293 22.4846 18.1358 22.5422 18.3151 22.6299C18.5607 22.7501 18.7394 22.9184 18.8122 23.1185ZM29.9781 7.8201L31.9438 7.26972V17.8851L29.9781 17.3347V7.8201Z" fill="#8C331B" stroke="#8C331B" stroke-width="0.3"/>
<path d="M15.7812 10.7108H24.3906C24.5606 10.7108 24.714 10.6535 24.8252 10.5422C24.9364 10.431 24.9937 10.2777 24.9937 10.1077C24.9937 9.93764 24.9364 9.7843 24.8252 9.67308C24.714 9.56187 24.5606 9.50454 24.3906 9.50454H15.7812C15.6112 9.50454 15.4579 9.56187 15.3467 9.67308C15.2355 9.7843 15.1781 9.93764 15.1781 10.1077C15.1781 10.2777 15.2355 10.431 15.3467 10.5422C15.4579 10.6535 15.6112 10.7108 15.7812 10.7108Z" fill="#8C331B" stroke="#8C331B" stroke-width="0.3"/>
<path d="M25.75 10.7108H26.6562C26.8263 10.7108 26.9796 10.6535 27.0908 10.5422C27.202 10.431 27.2594 10.2777 27.2594 10.1077C27.2594 9.93764 27.202 9.7843 27.0908 9.67308C26.9796 9.56187 26.8263 9.50454 26.6562 9.50454H25.75C25.58 9.50454 25.4266 9.56187 25.3154 9.67308C25.2042 9.7843 25.1469 9.93764 25.1469 10.1077C25.1469 10.2777 25.2042 10.431 25.3154 10.5422C25.4266 10.6535 25.58 10.7108 25.75 10.7108Z" fill="#8C331B" stroke="#8C331B" stroke-width="0.3"/>
</svg>
