<svg width="38" height="38" viewBox="0 0 38 38" fill="none" xmlns="http://www.w3.org/2000/svg">
<mask id="path-1-outside-1_1866_5843" maskUnits="userSpaceOnUse" x="6" y="5" width="25" height="28" fill="black">
<rect fill="white" x="6" y="5" width="25" height="28"/>
<path d="M8.64286 6C7.74228 6 7 6.76613 7 7.69565V29.7391C7 30.6686 7.74228 31.4348 8.64286 31.4348H9.19048V32H12.4762V31.4348H24.5238V32H27.8095V31.4348H28.3571C29.2577 31.4348 30 30.6686 30 29.7391V7.69565C30 6.76613 29.2577 6 28.3571 6H8.64286ZM8.64286 7.13043H28.3571C28.6673 7.13043 28.9048 7.37551 28.9048 7.69565V29.7391C28.9048 30.0593 28.6673 30.3043 28.3571 30.3043H8.64286C8.33268 30.3043 8.09524 30.0593 8.09524 29.7391V7.69565C8.09524 7.37551 8.33268 7.13043 8.64286 7.13043ZM22.3333 8.82609C21.7344 8.82609 21.2381 9.33832 21.2381 9.95652V13.8181C21.2274 13.8799 21.2274 13.9417 21.2381 14.0014V14.8558L20.5536 15.7942C19.9332 16.653 19.5952 17.6951 19.5952 18.7682V27.4783C19.5952 28.0965 20.0915 28.6087 20.6905 28.6087H25.619C26.218 28.6087 26.7143 28.0965 26.7143 27.4783V18.7682C26.7143 17.6951 26.3784 16.653 25.756 15.7942L25.0714 14.8558V14.008C25.0821 13.9462 25.0821 13.8843 25.0714 13.8247V9.95652C25.0714 9.33832 24.5751 8.82609 23.9762 8.82609H22.3333ZM22.3333 9.95652H23.9762V13.3478H22.3333V9.95652ZM12.4762 13.913C11.8772 13.913 11.381 14.4253 11.381 15.0435V16.7391C11.381 16.9577 11.505 17.1586 11.6975 17.2514L11.6783 17.3043H11.9286C11.028 17.3043 10.2857 18.0705 10.2857 19V20.1304C10.2857 20.5698 10.4718 20.9584 10.7414 21.2609C10.4718 21.5633 10.2857 21.9519 10.2857 22.3913V23.5217C10.2857 23.9611 10.4718 24.3497 10.7414 24.6522C10.4718 24.9547 10.2857 25.3432 10.2857 25.7826V26.913C10.2857 27.8426 11.028 28.6087 11.9286 28.6087H15.7619C16.6625 28.6087 17.4048 27.8426 17.4048 26.913V25.7826C17.4048 25.3432 17.2187 24.9547 16.9491 24.6522C17.2187 24.3497 17.4048 23.9611 17.4048 23.5217V22.3913C17.4048 21.9519 17.2187 21.5633 16.9491 21.2609C17.2187 20.9584 17.4048 20.5698 17.4048 20.1304V19C17.4048 18.0705 16.6625 17.3043 15.7619 17.3043H16.0122L15.9929 17.2514C16.1855 17.1586 16.3095 16.9577 16.3095 16.7391V15.0435C16.3095 14.4253 15.8132 13.913 15.2143 13.913H12.4762ZM22.3333 14.4783H23.9762V15.0435C23.9762 15.1649 24.0147 15.2841 24.0853 15.3813L24.8789 16.4742C25.3602 17.1343 25.619 17.9402 25.619 18.7682V19.5652H21.7857V20.6957H25.619V24.087H21.7857V25.2174H25.619V27.4783H20.6905V18.7682C20.6905 17.9402 20.9493 17.1343 21.4306 16.4742L22.2242 15.3813C22.2948 15.2841 22.3333 15.1649 22.3333 15.0435V14.4783ZM12.4762 15.0435H15.2143V16.1739H12.4762V15.0435ZM12.8527 17.3043H14.8378L15.1287 18.0727C15.21 18.2913 15.4132 18.4348 15.64 18.4348H15.7619C16.0721 18.4348 16.3095 18.6799 16.3095 19V20.1304C16.3095 20.4506 16.0721 20.6957 15.7619 20.6957H13.5714V21.8261H15.7619C16.0721 21.8261 16.3095 22.0712 16.3095 22.3913V23.5217C16.3095 23.8419 16.0721 24.087 15.7619 24.087H13.5714V25.2174H15.7619C16.0721 25.2174 16.3095 25.4625 16.3095 25.7826V26.913C16.3095 27.2332 16.0721 27.4783 15.7619 27.4783H11.9286C11.6184 27.4783 11.381 27.2332 11.381 26.913V25.7826C11.381 25.4625 11.6184 25.2174 11.9286 25.2174H12.4762V24.087H11.9286C11.6184 24.087 11.381 23.8419 11.381 23.5217V22.3913C11.381 22.0712 11.6184 21.8261 11.9286 21.8261H12.4762V20.6957H11.9286C11.6184 20.6957 11.381 20.4506 11.381 20.1304V19C11.381 18.6799 11.6184 18.4348 11.9286 18.4348H12.0505C12.2773 18.4348 12.4805 18.2913 12.5618 18.0727L12.8527 17.3043Z"/>
</mask>
<path d="M8.64286 6C7.74228 6 7 6.76613 7 7.69565V29.7391C7 30.6686 7.74228 31.4348 8.64286 31.4348H9.19048V32H12.4762V31.4348H24.5238V32H27.8095V31.4348H28.3571C29.2577 31.4348 30 30.6686 30 29.7391V7.69565C30 6.76613 29.2577 6 28.3571 6H8.64286ZM8.64286 7.13043H28.3571C28.6673 7.13043 28.9048 7.37551 28.9048 7.69565V29.7391C28.9048 30.0593 28.6673 30.3043 28.3571 30.3043H8.64286C8.33268 30.3043 8.09524 30.0593 8.09524 29.7391V7.69565C8.09524 7.37551 8.33268 7.13043 8.64286 7.13043ZM22.3333 8.82609C21.7344 8.82609 21.2381 9.33832 21.2381 9.95652V13.8181C21.2274 13.8799 21.2274 13.9417 21.2381 14.0014V14.8558L20.5536 15.7942C19.9332 16.653 19.5952 17.6951 19.5952 18.7682V27.4783C19.5952 28.0965 20.0915 28.6087 20.6905 28.6087H25.619C26.218 28.6087 26.7143 28.0965 26.7143 27.4783V18.7682C26.7143 17.6951 26.3784 16.653 25.756 15.7942L25.0714 14.8558V14.008C25.0821 13.9462 25.0821 13.8843 25.0714 13.8247V9.95652C25.0714 9.33832 24.5751 8.82609 23.9762 8.82609H22.3333ZM22.3333 9.95652H23.9762V13.3478H22.3333V9.95652ZM12.4762 13.913C11.8772 13.913 11.381 14.4253 11.381 15.0435V16.7391C11.381 16.9577 11.505 17.1586 11.6975 17.2514L11.6783 17.3043H11.9286C11.028 17.3043 10.2857 18.0705 10.2857 19V20.1304C10.2857 20.5698 10.4718 20.9584 10.7414 21.2609C10.4718 21.5633 10.2857 21.9519 10.2857 22.3913V23.5217C10.2857 23.9611 10.4718 24.3497 10.7414 24.6522C10.4718 24.9547 10.2857 25.3432 10.2857 25.7826V26.913C10.2857 27.8426 11.028 28.6087 11.9286 28.6087H15.7619C16.6625 28.6087 17.4048 27.8426 17.4048 26.913V25.7826C17.4048 25.3432 17.2187 24.9547 16.9491 24.6522C17.2187 24.3497 17.4048 23.9611 17.4048 23.5217V22.3913C17.4048 21.9519 17.2187 21.5633 16.9491 21.2609C17.2187 20.9584 17.4048 20.5698 17.4048 20.1304V19C17.4048 18.0705 16.6625 17.3043 15.7619 17.3043H16.0122L15.9929 17.2514C16.1855 17.1586 16.3095 16.9577 16.3095 16.7391V15.0435C16.3095 14.4253 15.8132 13.913 15.2143 13.913H12.4762ZM22.3333 14.4783H23.9762V15.0435C23.9762 15.1649 24.0147 15.2841 24.0853 15.3813L24.8789 16.4742C25.3602 17.1343 25.619 17.9402 25.619 18.7682V19.5652H21.7857V20.6957H25.619V24.087H21.7857V25.2174H25.619V27.4783H20.6905V18.7682C20.6905 17.9402 20.9493 17.1343 21.4306 16.4742L22.2242 15.3813C22.2948 15.2841 22.3333 15.1649 22.3333 15.0435V14.4783ZM12.4762 15.0435H15.2143V16.1739H12.4762V15.0435ZM12.8527 17.3043H14.8378L15.1287 18.0727C15.21 18.2913 15.4132 18.4348 15.64 18.4348H15.7619C16.0721 18.4348 16.3095 18.6799 16.3095 19V20.1304C16.3095 20.4506 16.0721 20.6957 15.7619 20.6957H13.5714V21.8261H15.7619C16.0721 21.8261 16.3095 22.0712 16.3095 22.3913V23.5217C16.3095 23.8419 16.0721 24.087 15.7619 24.087H13.5714V25.2174H15.7619C16.0721 25.2174 16.3095 25.4625 16.3095 25.7826V26.913C16.3095 27.2332 16.0721 27.4783 15.7619 27.4783H11.9286C11.6184 27.4783 11.381 27.2332 11.381 26.913V25.7826C11.381 25.4625 11.6184 25.2174 11.9286 25.2174H12.4762V24.087H11.9286C11.6184 24.087 11.381 23.8419 11.381 23.5217V22.3913C11.381 22.0712 11.6184 21.8261 11.9286 21.8261H12.4762V20.6957H11.9286C11.6184 20.6957 11.381 20.4506 11.381 20.1304V19C11.381 18.6799 11.6184 18.4348 11.9286 18.4348H12.0505C12.2773 18.4348 12.4805 18.2913 12.5618 18.0727L12.8527 17.3043Z" fill="#8C331B"/>
<path d="M8.64286 6C7.74228 6 7 6.76613 7 7.69565V29.7391C7 30.6686 7.74228 31.4348 8.64286 31.4348H9.19048V32H12.4762V31.4348H24.5238V32H27.8095V31.4348H28.3571C29.2577 31.4348 30 30.6686 30 29.7391V7.69565C30 6.76613 29.2577 6 28.3571 6H8.64286ZM8.64286 7.13043H28.3571C28.6673 7.13043 28.9048 7.37551 28.9048 7.69565V29.7391C28.9048 30.0593 28.6673 30.3043 28.3571 30.3043H8.64286C8.33268 30.3043 8.09524 30.0593 8.09524 29.7391V7.69565C8.09524 7.37551 8.33268 7.13043 8.64286 7.13043ZM22.3333 8.82609C21.7344 8.82609 21.2381 9.33832 21.2381 9.95652V13.8181C21.2274 13.8799 21.2274 13.9417 21.2381 14.0014V14.8558L20.5536 15.7942C19.9332 16.653 19.5952 17.6951 19.5952 18.7682V27.4783C19.5952 28.0965 20.0915 28.6087 20.6905 28.6087H25.619C26.218 28.6087 26.7143 28.0965 26.7143 27.4783V18.7682C26.7143 17.6951 26.3784 16.653 25.756 15.7942L25.0714 14.8558V14.008C25.0821 13.9462 25.0821 13.8843 25.0714 13.8247V9.95652C25.0714 9.33832 24.5751 8.82609 23.9762 8.82609H22.3333ZM22.3333 9.95652H23.9762V13.3478H22.3333V9.95652ZM12.4762 13.913C11.8772 13.913 11.381 14.4253 11.381 15.0435V16.7391C11.381 16.9577 11.505 17.1586 11.6975 17.2514L11.6783 17.3043H11.9286C11.028 17.3043 10.2857 18.0705 10.2857 19V20.1304C10.2857 20.5698 10.4718 20.9584 10.7414 21.2609C10.4718 21.5633 10.2857 21.9519 10.2857 22.3913V23.5217C10.2857 23.9611 10.4718 24.3497 10.7414 24.6522C10.4718 24.9547 10.2857 25.3432 10.2857 25.7826V26.913C10.2857 27.8426 11.028 28.6087 11.9286 28.6087H15.7619C16.6625 28.6087 17.4048 27.8426 17.4048 26.913V25.7826C17.4048 25.3432 17.2187 24.9547 16.9491 24.6522C17.2187 24.3497 17.4048 23.9611 17.4048 23.5217V22.3913C17.4048 21.9519 17.2187 21.5633 16.9491 21.2609C17.2187 20.9584 17.4048 20.5698 17.4048 20.1304V19C17.4048 18.0705 16.6625 17.3043 15.7619 17.3043H16.0122L15.9929 17.2514C16.1855 17.1586 16.3095 16.9577 16.3095 16.7391V15.0435C16.3095 14.4253 15.8132 13.913 15.2143 13.913H12.4762ZM22.3333 14.4783H23.9762V15.0435C23.9762 15.1649 24.0147 15.2841 24.0853 15.3813L24.8789 16.4742C25.3602 17.1343 25.619 17.9402 25.619 18.7682V19.5652H21.7857V20.6957H25.619V24.087H21.7857V25.2174H25.619V27.4783H20.6905V18.7682C20.6905 17.9402 20.9493 17.1343 21.4306 16.4742L22.2242 15.3813C22.2948 15.2841 22.3333 15.1649 22.3333 15.0435V14.4783ZM12.4762 15.0435H15.2143V16.1739H12.4762V15.0435ZM12.8527 17.3043H14.8378L15.1287 18.0727C15.21 18.2913 15.4132 18.4348 15.64 18.4348H15.7619C16.0721 18.4348 16.3095 18.6799 16.3095 19V20.1304C16.3095 20.4506 16.0721 20.6957 15.7619 20.6957H13.5714V21.8261H15.7619C16.0721 21.8261 16.3095 22.0712 16.3095 22.3913V23.5217C16.3095 23.8419 16.0721 24.087 15.7619 24.087H13.5714V25.2174H15.7619C16.0721 25.2174 16.3095 25.4625 16.3095 25.7826V26.913C16.3095 27.2332 16.0721 27.4783 15.7619 27.4783H11.9286C11.6184 27.4783 11.381 27.2332 11.381 26.913V25.7826C11.381 25.4625 11.6184 25.2174 11.9286 25.2174H12.4762V24.087H11.9286C11.6184 24.087 11.381 23.8419 11.381 23.5217V22.3913C11.381 22.0712 11.6184 21.8261 11.9286 21.8261H12.4762V20.6957H11.9286C11.6184 20.6957 11.381 20.4506 11.381 20.1304V19C11.381 18.6799 11.6184 18.4348 11.9286 18.4348H12.0505C12.2773 18.4348 12.4805 18.2913 12.5618 18.0727L12.8527 17.3043Z" stroke="#8C331B" stroke-width="0.6" mask="url(#path-1-outside-1_1866_5843)"/>
</svg>
