<svg width="37" height="38" viewBox="0 0 37 38" fill="none" xmlns="http://www.w3.org/2000/svg">
<path d="M18.6305 13.3938C15.822 13.3938 13.5095 15.574 13.2077 18.3765H11.959V19.6222H13.2077C13.5095 22.4247 15.822 24.605 18.6305 24.605C21.6449 24.605 24.0892 22.0958 24.0892 18.9988C24.0892 15.9018 21.646 13.3926 18.6305 13.3926V13.3938ZM18.6305 23.3605C16.4961 23.3605 14.7305 21.7324 14.4334 19.6234H18.6305V18.3777H14.4334C14.7294 16.2687 16.4961 14.6406 18.6305 14.6406C20.9708 14.6406 22.8763 16.5965 22.8763 19.0011C22.8763 21.4058 20.972 23.3605 18.6305 23.3605Z" fill="#8C331B"/>
<path d="M7.10744 24.6834V20.9463H5.89453V25.929H7.10744V24.6834Z" fill="#8C331B"/>
<path d="M7.10744 15.8853V12.1482H5.89453V17.1309H7.10744V15.8853Z" fill="#8C331B"/>
<path d="M8.32031 8.41113V29.589H28.9397V8.41113H8.32031ZM27.7268 28.3433H9.53322V9.65801H27.7268V28.3433Z" fill="#8C331B"/>
<path d="M3.46875 4.67407V33.3261H33.7926V4.67407H3.46875ZM32.5797 32.0804H4.68166V5.92095H32.5797V32.0804Z" fill="#8C331B"/>
</svg>
