<svg width="37" height="38" viewBox="0 0 37 38" fill="none" xmlns="http://www.w3.org/2000/svg">
<path d="M21.3142 8.31082L20.7868 7.48832C20.4855 7.01809 19.8842 6.86308 19.4024 7.13081C19.4024 7.13081 18.4306 7.52611 17.6085 8.12951C12.5334 11.8559 8.13013 17.0223 8.13013 17.0223L9.97489 19.0018C14.3248 13.4529 15.7832 14.0845 16.4858 14.262L22.2888 9.83223L21.3142 8.31082Z" fill="#8C331B"/>
<path d="M23.0778 11.0623L22.5619 10.2583L16.9373 14.5523L17.7032 15.28C17.9518 15.5158 18.3288 15.5362 18.6005 15.3293L22.9097 12.0398C23.2087 11.8111 23.2826 11.3825 23.0778 11.0623Z" fill="#8C331B"/>
<path d="M6.88431 18.7548C6.75581 18.929 6.78382 19.1762 6.94794 19.3159L8.1552 20.3448C8.31833 20.4838 8.5588 20.4671 8.70224 20.3076L9.6647 19.2385L7.89792 17.3762L6.88431 18.7548Z" fill="#8C331B"/>
<path d="M5.88273 21.1196C5.42025 21.9569 4.95027 23.0786 4.59502 24.4969C4.23953 25.9139 4 27.6262 4 29.6396V31.678H5.40619V29.6396C5.40619 27.1125 5.80697 25.1279 6.31058 23.6557C6.56265 22.9203 6.84015 22.3124 7.10558 21.832C7.37066 21.3515 7.62543 20.9973 7.81885 20.7756L6.77066 19.8127C6.49527 20.1293 6.19152 20.561 5.88273 21.1196Z" fill="#8C331B"/>
<path d="M24.5876 14.3782C24.6799 14.2827 24.7326 14.1514 24.7326 14.0175C24.7326 13.883 24.6799 13.7516 24.5876 13.6569C24.495 13.562 24.3671 13.5076 24.2365 13.5076C24.1058 13.5076 23.9779 13.562 23.8855 13.6569C23.7933 13.7516 23.7402 13.883 23.7402 14.0175C23.7402 14.1514 23.7933 14.2827 23.8855 14.3782C23.9779 14.4729 24.1057 14.5268 24.2365 14.5268C24.3671 14.5268 24.495 14.4729 24.5876 14.3782Z" fill="#8C331B"/>
<path d="M27.7586 17.9883C27.9703 17.8096 28.0009 17.4887 27.8273 17.2708C27.6529 17.0537 27.3405 17.0223 27.1286 17.2004C26.9169 17.3791 26.886 17.7007 27.06 17.9179C27.234 18.1357 27.5468 18.1671 27.7586 17.9883Z" fill="#8C331B"/>
<path d="M28.6036 19.1043C28.3829 19.2714 28.3355 19.5905 28.4979 19.8172C28.6601 20.0434 28.9707 20.092 29.1915 19.9255C29.4126 19.7589 29.46 19.4399 29.2975 19.2132C29.135 18.9864 28.8244 18.9378 28.6036 19.1043Z" fill="#8C331B"/>
<path d="M33.0198 25.5308C32.9022 25.2765 32.606 25.1682 32.3583 25.2894C32.111 25.4104 32.0056 25.7141 32.1235 25.9684C32.2411 26.2227 32.5374 26.3303 32.785 26.2099C33.0323 26.0888 33.1374 25.7845 33.0198 25.5308Z" fill="#8C331B"/>
<path d="M31.2333 23.1482C30.9947 23.2872 30.9108 23.598 31.0455 23.8433C31.1805 24.088 31.4834 24.1745 31.7219 24.0354C31.9605 23.8971 32.0448 23.5858 31.9097 23.3411C31.7746 23.0963 31.4718 23.0099 31.2333 23.1482Z" fill="#8C331B"/>
<path d="M26.2269 16.1318C26.4293 15.9416 26.4431 15.6193 26.2581 15.4118C26.0729 15.2042 25.7588 15.1902 25.5567 15.3797C25.3546 15.57 25.3406 15.8922 25.5258 16.0998C25.7111 16.3074 26.0248 16.3221 26.2269 16.1318Z" fill="#8C331B"/>
<path d="M29.976 21.0869C29.7465 21.2407 29.6817 21.5565 29.8313 21.7922C29.9807 22.028 30.2882 22.0947 30.5177 21.9409C30.7476 21.7878 30.8122 21.4719 30.6628 21.2362C30.513 21.0005 30.2055 20.9333 29.976 21.0869Z" fill="#8C331B"/>
<path d="M33.9674 27.8039C33.8698 27.54 33.5832 27.4081 33.3268 27.508C33.0708 27.6085 32.9423 27.9026 33.0396 28.1658C33.1369 28.4292 33.4238 28.5611 33.6799 28.4612C33.9358 28.3612 34.0647 28.0666 33.9674 27.8039Z" fill="#8C331B"/>
<path d="M21.7335 15.3185C21.6409 15.4133 21.5879 15.5446 21.5879 15.6785C21.5879 15.813 21.6409 15.9443 21.7335 16.0391C21.8258 16.1339 21.9537 16.1884 22.0841 16.1884C22.215 16.1884 22.3426 16.1339 22.4353 16.0391C22.5276 15.9443 22.5806 15.813 22.5806 15.6785C22.5806 15.5446 22.5276 15.4133 22.4353 15.3185C22.3426 15.2237 22.215 15.1692 22.0841 15.1692C21.9537 15.1692 21.8258 15.2237 21.7335 15.3185Z" fill="#8C331B"/>
<path d="M27.6558 26.4941C27.576 26.2244 27.2988 26.0725 27.0365 26.1546C26.7742 26.2366 26.6264 26.521 26.7062 26.7906C26.7861 27.0604 27.0633 27.2115 27.3253 27.1302C27.5875 27.0475 27.7356 26.7631 27.6558 26.4941Z" fill="#8C331B"/>
<path d="M23.0943 17.303C22.8576 17.4445 22.7774 17.7565 22.9156 18C23.0534 18.2434 23.3572 18.3254 23.5942 18.1837C23.8309 18.0422 23.9111 17.7302 23.7733 17.4868C23.6351 17.2434 23.3314 17.1614 23.0943 17.303Z" fill="#8C331B"/>
<path d="M26.8775 24.1553C26.7806 23.8919 26.4946 23.7587 26.2379 23.8587C25.9815 23.958 25.8522 24.252 25.9488 24.5153C26.0458 24.7787 26.3321 24.9119 26.5884 24.8119C26.8451 24.7126 26.9743 24.4186 26.8775 24.1553Z" fill="#8C331B"/>
<path d="M27.6792 28.501C27.4116 28.5625 27.2432 28.8347 27.3031 29.1095C27.3633 29.3844 27.6284 29.5567 27.896 29.4959C28.1635 29.4338 28.3317 29.1621 28.2718 28.8866C28.2119 28.6124 27.9468 28.4394 27.6792 28.501Z" fill="#8C331B"/>
<path d="M24.2563 19.4298C24.0124 19.5579 23.916 19.8647 24.0411 20.1152C24.1661 20.3657 24.4652 20.465 24.7091 20.3362C24.953 20.2081 25.0494 19.9013 24.9243 19.6501C24.7993 19.3997 24.5002 19.301 24.2563 19.4298Z" fill="#8C331B"/>
<path d="M25.9624 21.8734C25.8507 21.6165 25.5573 21.5012 25.3072 21.6159C25.0567 21.7306 24.9442 22.0317 25.0559 22.2892C25.1678 22.546 25.461 22.6613 25.7113 22.5467C25.9618 22.432 26.0741 22.1309 25.9624 21.8734Z" fill="#8C331B"/>
<path d="M20.1421 17.4575C20.1421 17.3236 20.089 17.1923 19.9967 17.0968C19.9044 17.002 19.7766 16.9482 19.6459 16.9482C19.5152 16.9482 19.3873 17.002 19.295 17.0968C19.2024 17.1923 19.1497 17.3236 19.1497 17.4575C19.1497 17.592 19.2023 17.7233 19.295 17.8181C19.3873 17.9129 19.5152 17.9674 19.6459 17.9674C19.7765 17.9674 19.9043 17.9129 19.9967 17.8181C20.089 17.7233 20.1421 17.592 20.1421 17.4575Z" fill="#8C331B"/>
<path d="M20.8997 19.882C20.8263 19.611 20.5532 19.4521 20.289 19.5271C20.0246 19.6027 19.8699 19.8833 19.9429 20.1543C20.0162 20.4259 20.2897 20.5847 20.5535 20.5097C20.818 20.4342 20.9726 20.1536 20.8997 19.882Z" fill="#8C331B"/>
<path d="M22.1405 30.0704C21.8669 30.0877 21.6586 30.3291 21.6758 30.6104C21.6926 30.8916 21.9281 31.105 22.2016 31.0876C22.4751 31.0704 22.6831 30.8289 22.6664 30.5476C22.6497 30.2664 22.4143 30.0525 22.1405 30.0704Z" fill="#8C331B"/>
<path d="M22.4284 27.8472H22.4288C22.3963 27.5678 22.1496 27.368 21.877 27.4013C21.6051 27.4347 21.4108 27.6877 21.4429 27.9676C21.4754 28.247 21.7224 28.4468 21.9943 28.4135C22.2666 28.3802 22.4609 28.1265 22.4284 27.8472Z" fill="#8C331B"/>
<path d="M22.0488 25.167C22.0023 24.8889 21.746 24.7031 21.4756 24.7506C21.2055 24.7986 21.0243 25.0619 21.0707 25.3392C21.1173 25.6166 21.3736 25.8031 21.644 25.755C21.914 25.7077 22.0952 25.4437 22.0488 25.167Z" fill="#8C331B"/>
<path d="M21.5374 22.5102C21.4775 22.2355 21.2125 22.0624 20.9448 22.124C20.6773 22.1855 20.5088 22.4571 20.5687 22.7326C20.6283 23.0067 20.8937 23.1798 21.1613 23.1182C21.4286 23.0574 21.5973 22.7851 21.5374 22.5102Z" fill="#8C331B"/>
</svg>
