<svg width="37" height="38" viewBox="0 0 37 38" fill="none" xmlns="http://www.w3.org/2000/svg">
<path d="M23.1608 15.0629C22.9338 13.3052 22.0876 11.704 20.7927 10.5818C19.4978 9.4596 17.8504 8.89969 16.1821 9.01479C14.5137 9.1299 12.9485 9.91148 11.8014 11.2022C10.6543 12.4929 10.0107 14.1968 10 15.9709V27.9978C10 28.2636 10.0995 28.5185 10.2766 28.7065C10.4537 28.8944 10.694 29 10.9444 29C11.1949 29 11.4351 28.8944 11.6123 28.7065C11.7894 28.5185 11.8889 28.2636 11.8889 27.9978V15.9709C11.8871 14.7171 12.329 13.5084 13.1269 12.5838C13.9249 11.6592 15.0208 11.0861 16.1979 10.978C17.3749 10.8699 18.5474 11.2346 19.4831 11.9999C20.4189 12.7653 21.0499 13.8755 21.2512 15.111C20.1868 15.3953 19.2435 16.0514 18.5732 16.9736C17.9028 17.8959 17.5444 19.0307 17.5556 20.1953V21.4832C17.5556 21.749 17.6551 22.0039 17.8322 22.1919C18.0093 22.3799 18.2495 22.4854 18.5 22.4854H26.0556C26.306 22.4854 26.5463 22.3799 26.7234 22.1919C26.9005 22.0039 27 21.749 27 21.4832V19.9799C26.9987 18.8144 26.6147 17.6858 25.914 16.7884C25.2133 15.891 24.2397 15.2808 23.1608 15.0629Z" fill="#8C331B"/>
<path d="M22 25C21.7348 25 21.4804 25.1054 21.2929 25.2929C21.1054 25.4804 21 25.7348 21 26V28C21 28.2652 21.1054 28.5196 21.2929 28.7071C21.4804 28.8946 21.7348 29 22 29C22.2652 29 22.5196 28.8946 22.7071 28.7071C22.8946 28.5196 23 28.2652 23 28V26C23 25.7348 22.8946 25.4804 22.7071 25.2929C22.5196 25.1054 22.2652 25 22 25Z" fill="#8C331B"/>
<path d="M26 25C25.7348 25 25.4804 25.1054 25.2929 25.2929C25.1054 25.4804 25 25.7348 25 26V28C25 28.2652 25.1054 28.5196 25.2929 28.7071C25.4804 28.8946 25.7348 29 26 29C26.2652 29 26.5196 28.8946 26.7071 28.7071C26.8946 28.5196 27 28.2652 27 28V26C27 25.7348 26.8946 25.4804 26.7071 25.2929C26.5196 25.1054 26.2652 25 26 25Z" fill="#8C331B"/>
<path d="M18 25C17.7348 25 17.4804 25.1054 17.2929 25.2929C17.1054 25.4804 17 25.7348 17 26V28C17 28.2652 17.1054 28.5196 17.2929 28.7071C17.4804 28.8946 17.7348 29 18 29C18.2652 29 18.5196 28.8946 18.7071 28.7071C18.8946 28.5196 19 28.2652 19 28V26C19 25.7348 18.8946 25.4804 18.7071 25.2929C18.5196 25.1054 18.2652 25 18 25Z" fill="#8C331B"/>
</svg>
