<svg width="38" height="38" viewBox="0 0 38 38" fill="none" xmlns="http://www.w3.org/2000/svg">
<path d="M16.519 26.1879H16.519V26.3379C16.519 28.4709 14.7732 30.2167 12.6402 30.2167C10.5073 30.2167 8.76153 28.4709 8.76153 26.3379V19.2362H16.519V26.1879ZM12.6402 6.85C9.45526 6.85 6.85 9.45526 6.85 12.6402V16.2661V17.8776C6.85 18.4448 7.17319 18.9178 7.65576 19.1245V26.3379C7.65576 29.0797 9.89844 31.3224 12.6402 31.3224C15.3821 31.3224 17.6247 29.0797 17.6247 26.3379V19.1245C18.1073 18.9178 18.4305 18.4448 18.4305 17.8776V16.2661V12.6402C18.4305 9.45526 15.8252 6.85 12.6402 6.85ZM17.3247 17.8776C17.3247 17.9644 17.2965 18.025 17.2579 18.0636C17.2193 18.1022 17.1586 18.1304 17.0719 18.1304H8.20862C8.12184 18.1304 8.06119 18.1022 8.02261 18.0636C7.98403 18.025 7.95576 17.9644 7.95576 17.8776V16.819H17.3247V17.8776ZM17.3247 15.7132H7.95576V12.6402C7.95576 10.0641 10.0641 7.95572 12.6402 7.95572C15.2164 7.95572 17.3247 10.0641 17.3247 12.6402V15.7132Z" fill="#8C331B" stroke="#8C331B" stroke-width="0.3"/>
<path d="M28.605 26.1882H28.6049V26.3382C28.6049 28.4711 26.8591 30.2169 24.7262 30.2169C22.5932 30.2169 20.8475 28.4711 20.8475 26.3382V19.2365H28.605V26.1882ZM24.7262 6.85024C21.5412 6.85024 18.9359 9.4555 18.9359 12.6405V16.2664V17.8778C18.9359 18.4451 19.2591 18.918 19.7417 19.1247V26.3382C19.7417 29.08 21.9844 31.3227 24.7262 31.3227C27.468 31.3227 29.7107 29.08 29.7107 26.3382V19.1247C30.1932 18.918 30.5164 18.445 30.5164 17.8778V16.2664V12.6405C30.5164 9.4555 27.9112 6.85024 24.7262 6.85024ZM24.7262 7.95601C27.3023 7.95601 29.4107 10.0644 29.4107 12.6405V15.7135H20.0417V12.6405C20.0417 10.0644 22.1501 7.95601 24.7262 7.95601ZM29.4107 17.8778C29.4107 17.9646 29.3824 18.0253 29.3438 18.0638C29.3052 18.1024 29.2446 18.1307 29.1578 18.1307H20.2946C20.2078 18.1307 20.1471 18.1024 20.1085 18.0638C20.07 18.0253 20.0417 17.9646 20.0417 17.8778V16.8192H29.4107V17.8778Z" fill="#8C331B" stroke="#8C331B" stroke-width="0.3"/>
</svg>
