<svg width="36" height="36" viewBox="0 0 36 36" fill="none" xmlns="http://www.w3.org/2000/svg">
<path d="M8.33334 27H27.6666C30.6122 27 33 24.6121 33 21.6666V18C33 16.3431 31.6569 15 30 15C28.3431 15 27 16.3431 27 18V19.8C27 20.4627 26.4627 21 25.8 21H10.2C9.53726 21 9 20.4627 9 19.8V18C9 16.3431 7.65686 15 6 15C4.34314 15 3 16.3431 3 18V21.6666C3 24.6121 5.38782 27 8.33334 27Z" stroke="#8C331B" stroke-width="2"/>
<path d="M30 15C30 13.606 30 12.909 29.8846 12.3295C29.4112 9.94932 27.5506 8.08873 25.1706 7.61529C24.591 7.5 23.894 7.5 22.5 7.5H13.5C12.106 7.5 11.409 7.5 10.8295 7.61529C8.44932 8.08873 6.58873 9.94932 6.11529 12.3295C6 12.909 6 13.606 6 15" stroke="#8C331B" stroke-width="2"/>
<path d="M30 28.5V27M6 28.5V27" stroke="#8C331B" stroke-width="2" stroke-linecap="round"/>
</svg>
