<svg width="38" height="38" viewBox="0 0 38 38" fill="none" xmlns="http://www.w3.org/2000/svg">
<path d="M33.15 30.2931C33.15 29.3753 32.7125 28.5578 32.0354 28.0367C32.7125 27.5156 33.15 26.6982 33.15 25.7804C33.15 24.501 32.3 23.4174 31.1344 23.0582C32.3582 22.1242 33.15 20.6529 33.15 19C33.15 17.3439 32.3551 15.8703 31.1271 14.9365C32.2965 14.5796 33.15 13.4942 33.15 12.2121C33.15 11.2943 32.7124 10.4769 32.0354 9.95574C32.7124 9.43461 33.15 8.61719 33.15 7.69937C33.15 6.12761 31.8674 4.85 30.2917 4.85H8.97595C6.14984 4.85006 3.85 7.14157 3.85 9.95953C3.85 11.6124 4.64171 13.0836 5.86564 14.0177C4.70004 14.3769 3.85 15.4604 3.85 16.74C3.85 17.6578 4.28759 18.4752 4.96458 18.9963C4.28759 19.5174 3.85 20.3348 3.85 21.2526C3.85 22.5348 4.70358 23.6201 5.87289 23.977C4.64494 24.9108 3.85 26.3844 3.85 28.0405C3.85 30.8584 6.14984 33.15 8.97606 33.15H8.97611L30.2917 33.1425C30.2917 33.1425 30.2917 33.1425 30.2917 33.1425C31.8675 33.1425 33.15 31.8649 33.15 30.2931ZM8.38522 27.1364C8.38522 27.9604 9.05747 28.6297 9.88289 28.6297C9.88291 28.6297 9.88292 28.6297 9.88293 28.6297L30.4741 28.6355C31.3226 28.7153 31.9686 29.4238 31.9686 30.2932C31.9686 31.2139 31.2167 31.9641 30.2915 31.9641H30.2914L8.97595 31.9716C8.97593 31.9716 8.97591 31.9716 8.97589 31.9716C6.80053 31.9715 5.03139 30.2074 5.03139 28.0405C5.03139 25.8735 6.80056 24.1095 8.97595 24.1095H30.2917C31.2167 24.1095 31.9686 24.8597 31.9686 25.7804C31.9686 26.6617 31.2851 27.3964 30.4191 27.4593L9.88299 27.4513H9.88293C9.70816 27.4513 9.56655 27.3095 9.56655 27.1365C9.56655 26.9634 9.70817 26.8216 9.88293 26.8216H10.0329V26.6716V25.7931V25.6431H9.88293C9.05743 25.6431 8.38522 26.3125 8.38522 27.1364ZM6.70827 22.9236H6.70822C5.78324 22.9236 5.03133 22.1734 5.03133 21.2526C5.03133 20.3855 5.6983 19.6694 6.54872 19.5892H27.117C27.9425 19.5892 28.6148 18.9199 28.6148 18.0959C28.6148 17.2719 27.9425 16.6027 27.117 16.6027H26.967V16.7527V17.6311V17.7811H27.117C27.2919 17.7811 27.4334 17.923 27.4334 18.096C27.4334 18.269 27.2919 18.4108 27.117 18.4109C27.117 18.4109 27.117 18.4109 27.117 18.4109L6.58483 18.4063C5.71727 18.3432 5.03139 17.6193 5.03139 16.74C5.03139 15.8191 5.7833 15.069 6.70833 15.069H28.0242C30.1994 15.069 31.9686 16.833 31.9686 19C31.9686 21.167 30.1995 22.931 28.0243 22.9311C28.0243 22.9311 28.0242 22.9311 28.0242 22.9311L6.70827 22.9236ZM30.2915 13.883H30.2914L8.97595 13.8905C8.97593 13.8905 8.97591 13.8905 8.97589 13.8905C6.80053 13.8905 5.03139 12.1265 5.03139 9.95953C5.03139 7.79255 6.80056 6.02847 8.97595 6.02847H30.2917C31.2168 6.02847 31.9687 6.7786 31.9687 7.69937C31.9687 8.57874 31.2828 9.3027 30.4152 9.36586L9.88299 9.37032C9.88298 9.37032 9.88297 9.37032 9.88296 9.37032C9.70821 9.37031 9.56661 9.22847 9.56661 9.05543C9.56661 8.88237 9.70823 8.74054 9.88299 8.74054H10.033V8.59054V7.71212V7.56212H9.88299C9.05748 7.56212 8.38528 8.23146 8.38528 9.05543C8.38528 9.8794 9.05754 10.5487 9.88299 10.5487H30.4513C31.3017 10.629 31.9687 11.345 31.9687 12.2121C31.9686 13.1329 31.2167 13.883 30.2915 13.883Z" fill="#8C331B" stroke="#8C331B" stroke-width="0.3"/>
</svg>
