<svg width="38" height="38" viewBox="0 0 38 38" fill="none" xmlns="http://www.w3.org/2000/svg">
<path d="M32.1008 10.1216H20.4919L26.2134 2.9039C26.3071 2.78612 26.3478 2.63483 26.3257 2.48596C26.3107 2.34109 26.2356 2.20907 26.1191 2.12179C26.0045 2.0293 25.8576 1.98676 25.7114 2.00361C25.5651 2.02047 25.4319 2.09551 25.3414 2.21168L19.229 9.91944L14.4786 4.49021C14.3729 4.36762 14.218 4.2984 14.0561 4.30141C13.9202 4.301 13.789 4.35076 13.6875 4.44085C13.4583 4.6427 13.4343 4.99143 13.6335 5.22277L17.9166 10.1217H5.89888C5.66052 10.1217 5.43178 10.2164 5.26324 10.3851C5.09471 10.5536 5 10.7822 5 11.0205V27.7577C5 27.996 5.09471 28.2248 5.26324 28.3933C5.43178 28.5618 5.66052 28.6565 5.89888 28.6565H32.1009C32.3393 28.6565 32.568 28.5618 32.7366 28.3933C32.9051 28.2248 32.9998 27.996 32.9998 27.7577V11.0385C33.0046 10.7969 32.9121 10.5638 32.743 10.3912C32.5739 10.2187 32.3425 10.1216 32.1009 10.1216L32.1008 10.1216ZM16.5096 27.8069C16.254 27.8069 16.0467 27.5997 16.0467 27.3441C16.0467 27.0884 16.254 26.8812 16.5096 26.8812C16.7654 26.8812 16.9727 27.0885 16.9727 27.3441C16.9727 27.5997 16.7654 27.8069 16.5096 27.8069ZM19.0086 27.8069C18.753 27.8069 18.5457 27.5997 18.5457 27.3441C18.5457 27.0884 18.753 26.8812 19.0086 26.8812C19.2642 26.8812 19.4715 27.0885 19.4715 27.3441C19.4715 27.5997 19.2642 27.8069 19.0086 27.8069ZM21.5074 27.8069C21.2517 27.8069 21.0445 27.5997 21.0445 27.3441C21.0445 27.0884 21.2517 26.8812 21.5074 26.8812C21.763 26.8812 21.9702 27.0885 21.9702 27.3441C21.9702 27.5997 21.763 27.8069 21.5074 27.8069ZM30.7343 25.5598H30.7345C30.7345 25.6789 30.6871 25.7933 30.6029 25.8776C30.5186 25.9618 30.4042 26.0092 30.285 26.0092H7.69646C7.44827 26.0092 7.24702 25.8081 7.24702 25.5598V12.6652C7.24702 12.417 7.44827 12.2158 7.69646 12.2158H30.303C30.4222 12.2158 30.5366 12.2631 30.6208 12.3474C30.7051 12.4317 30.7525 12.546 30.7525 12.6652L30.7343 25.5598Z" fill="#8C331B"/>
<path d="M7.33691 29.4614H30.6585V30.7692H7.33691V29.4614Z" fill="#8C331B"/>
</svg>
