<svg width="36" height="36" viewBox="0 0 36 36" fill="none" xmlns="http://www.w3.org/2000/svg">
<path d="M17 3H5V30H17V3Z" stroke="#8C331B" stroke-width="2" stroke-miterlimit="10"/>
<path d="M30 3H17V30H30V3Z" stroke="#8C331B" stroke-width="2" stroke-miterlimit="10"/>
<path d="M7 32V30" stroke="#8C331B" stroke-width="2" stroke-miterlimit="10"/>
<path d="M27 32V30" stroke="#8C331B" stroke-width="2" stroke-miterlimit="10"/>
<path d="M12 16V18" stroke="#8C331B" stroke-width="2" stroke-miterlimit="10"/>
<path d="M23.4935 26C23.4952 25.6668 23.432 25.3365 23.3074 25.0282C23.1829 24.7198 22.9995 24.4395 22.7678 24.2032C22.5361 23.967 22.2606 23.7795 21.9572 23.6516C21.6539 23.5237 21.3285 23.4578 21 23.4578V9.52892C21.3279 9.53068 21.653 9.46646 21.9563 9.33999C22.2596 9.21352 22.5351 9.02731 22.767 8.79213C22.9989 8.55695 23.1825 8.27746 23.3072 7.96985C23.4319 7.66223 23.4952 7.33259 23.4935 7C23.4935 7.33322 23.5584 7.66315 23.6845 7.97084C23.8106 8.27853 23.9955 8.55791 24.2284 8.79291C24.4613 9.02792 24.7377 9.21392 25.0418 9.34023C25.3458 9.46654 25.6715 9.53066 26 9.52892V23.4578C25.3352 23.4578 24.6977 23.7257 24.2276 24.2024C23.7576 24.6792 23.4935 25.3258 23.4935 26Z" stroke="#8C331B" stroke-width="2" stroke-miterlimit="10"/>
</svg>
