<svg width="35" height="38" viewBox="0 0 35 38" fill="none" xmlns="http://www.w3.org/2000/svg">
<path d="M11.6441 20.53V20.12V20.1179H11.6441C11.6463 19.965 11.6955 19.8176 11.7871 19.6962C10.9934 18.2001 10.5265 16.4411 10.5265 14.52C10.5265 9.29454 13.993 4.85 18.5 4.85C23.007 4.85 26.4735 9.29454 26.4735 14.52C26.4735 16.4411 26.0066 18.2001 25.2129 19.6962C25.3045 19.8176 25.3537 19.965 25.3559 20.1179L25.3559 20.12L25.3559 20.53H26.3235C27.3257 20.53 28.15 21.3565 28.15 22.36C28.15 22.4852 28.1356 22.6069 28.1121 22.7224L28.112 22.7228C28.0976 22.7926 28.0764 22.8679 28.0554 22.9312C28.0425 22.9716 28.0216 23.0162 28.0075 23.0464C28.0038 23.0543 28.0006 23.0611 27.9981 23.0667C27.9696 23.1355 27.9406 23.1937 27.9026 23.2579M11.6441 20.53L8.94425 22.9301C8.94428 22.9302 8.94431 22.9303 8.94434 22.9304C8.95715 22.9709 8.97825 23.016 8.99246 23.0464C8.99615 23.0543 8.99938 23.0612 9.00188 23.0667C9.0304 23.1356 9.05945 23.1937 9.09739 23.258C9.16294 23.3724 9.23694 23.5004 9.33919 23.6117C9.34837 23.6231 9.35685 23.6309 9.36094 23.6346L9.36471 23.638L9.36634 23.6395L9.36657 23.6397L9.3828 23.656L9.38278 23.656L9.38498 23.6581C9.43817 23.7093 9.49578 23.7521 9.54628 23.7896C9.55522 23.7963 9.56393 23.8027 9.57237 23.8091C9.64437 23.8652 9.72402 23.9093 9.7924 23.9471C9.80101 23.9518 9.80945 23.9565 9.81765 23.9611L9.81939 23.962C9.82509 23.9651 9.83094 23.9683 9.83694 23.9715C9.87593 23.9926 9.92097 24.0171 9.96765 24.0386V24.04C9.96765 26.5272 11.4251 28.6846 13.526 29.7099C13.4948 29.7489 13.4632 29.7911 13.4326 29.8375L13.4323 29.838C13.0769 30.3826 12.7618 31.2253 12.7618 32.44C12.7618 32.831 13.0797 33.15 13.4706 33.15H23.5294C23.9203 33.15 24.2382 32.831 24.2382 32.44C24.2382 31.2253 23.9231 30.3826 23.5677 29.838L23.5674 29.8375C23.5368 29.7911 23.5052 29.7489 23.474 29.7099C25.5749 28.6846 27.0324 26.5272 27.0324 24.04V24.039C27.0844 24.0156 27.1317 23.9893 27.1754 23.9649L27.1823 23.9611C27.1906 23.9565 27.199 23.9518 27.2076 23.9471C27.2759 23.9093 27.3554 23.8654 27.4273 23.8094C27.4344 23.804 27.4418 23.7986 27.4493 23.7931C27.5072 23.7504 27.5745 23.7007 27.6356 23.6376C27.6359 23.6372 27.6362 23.6369 27.6366 23.6365L27.6521 23.6209L27.6522 23.621L27.6557 23.6172C27.7606 23.5046 27.836 23.3743 27.9026 23.2579M11.6441 20.53H10.6765C9.67433 20.53 8.85 21.3565 8.85 22.36C8.85 22.4786 8.86294 22.5941 8.88432 22.7042C8.88421 22.7107 8.88448 22.7193 8.88585 22.7291C8.88668 22.735 8.88799 22.7418 8.89008 22.7493L11.6441 20.53ZM27.9026 23.2579C27.9025 23.2582 27.9023 23.2586 27.9021 23.2589L27.773 23.1825L27.9031 23.2571C27.903 23.2574 27.9028 23.2577 27.9026 23.2579ZM22.2618 20.53V20.1206V20.12H22.4118C22.4096 19.8291 22.6301 19.5863 22.9182 19.56L22.2618 20.53ZM22.2618 20.53H19.9248C20.6851 20.2002 21.3466 19.6195 21.8537 18.8934C22.6573 17.7426 23.1206 16.1979 23.1206 14.52C23.1206 12.8421 22.6573 11.2974 21.8537 10.1466C21.05 8.99574 19.8582 8.21 18.5 8.21C17.1418 8.21 15.95 8.99574 15.1463 10.1466C14.3427 11.2974 13.8794 12.8421 13.8794 14.52C13.8794 16.1979 14.3427 17.7426 15.1463 18.8934C15.6534 19.6195 16.3149 20.2002 17.0752 20.53H14.7382V20.12C14.7382 19.729 14.4203 19.41 14.0294 19.41H13.2588C12.4487 18.0397 11.9441 16.3732 11.9441 14.52C11.9441 9.88964 14.9595 6.27 18.5 6.27C22.0405 6.27 25.0559 9.88964 25.0559 14.52C25.0559 16.3732 24.5513 18.0397 23.7412 19.41L22.2618 20.53ZM18.5 9.63C19.3014 9.63 20.0703 10.0896 20.6822 10.9659C21.2935 11.8414 21.7029 13.1057 21.7029 14.52C21.7029 15.9343 21.2935 17.1986 20.6822 18.0741C20.0703 18.9504 19.3014 19.41 18.5 19.41C17.6986 19.41 16.9297 18.9504 16.3178 18.0741C15.7065 17.1986 15.2971 15.9343 15.2971 14.52C15.2971 13.1057 15.7065 11.8414 16.3178 10.9659C16.9297 10.0896 17.6986 9.63 18.5 9.63ZM10.6765 21.95H26.3235C26.5504 21.95 26.7324 22.1319 26.7324 22.36C26.7324 22.5881 26.5504 22.77 26.3235 22.77H10.6765C10.4496 22.77 10.2676 22.5881 10.2676 22.36C10.2676 22.3155 10.281 22.2735 10.3083 22.2082C10.3735 22.0544 10.5139 21.95 10.6765 21.95ZM25.6124 24.19C25.5327 26.8124 23.37 28.93 20.7353 28.93H16.2647C13.63 28.93 11.4673 26.8124 11.3876 24.19H25.6124ZM14.8088 30.377C14.8217 30.3644 14.8315 30.3562 14.84 30.35H22.16C22.1685 30.3562 22.1783 30.3644 22.1912 30.377C22.2271 30.4119 22.2852 30.4796 22.3735 30.6146C22.5099 30.8241 22.6481 31.2052 22.7287 31.73H14.2713C14.3519 31.2051 14.4902 30.8239 14.6265 30.6145C14.7149 30.4796 14.7729 30.4118 14.8088 30.377Z" fill="#8C331B" stroke="#8C331B" stroke-width="0.3"/>
</svg>
