<svg width="36" height="36" viewBox="0 0 36 36" fill="none" xmlns="http://www.w3.org/2000/svg">
<path d="M21.7127 24.0862L22.6127 29.4074H14.8164L15.1314 27.6356" stroke="#8C331B" stroke-width="1.875" stroke-linecap="round" stroke-linejoin="round"/>
<path d="M14.8172 19.322V13.5001C14.7989 12.5676 15.1071 11.6581 15.6885 10.9288C16.2699 10.1996 17.0878 9.69639 18.0009 9.50636C18.5618 9.41123 19.1367 9.43879 19.686 9.58713C20.2352 9.73548 20.7458 10.0011 21.1826 10.3657C21.6193 10.7303 21.9719 11.1852 22.216 11.6991C22.4601 12.213 22.5899 12.7737 22.5965 13.3426" stroke="#8C331B" stroke-width="1.875" stroke-linecap="round" stroke-linejoin="round"/>
<path d="M18.7305 24.9468C17.2386 24.9468 15.8079 24.3541 14.753 23.2993C13.6981 22.2444 13.1055 20.8136 13.1055 19.3218H24.3555C24.3545 20.2749 24.1114 21.2121 23.649 22.0454C23.1865 22.8788 22.5199 23.581 21.7117 24.0862" stroke="#8C331B" stroke-width="1.875" stroke-linecap="round" stroke-linejoin="round"/>
<path d="M12.3125 16.2618V8.47113C12.314 8.07028 12.4739 7.68627 12.7573 7.40283C13.0408 7.11938 13.4248 6.95949 13.8256 6.95801H23.4612C23.8562 6.95794 24.2355 7.1129 24.5174 7.38955C24.7993 7.66621 24.9614 8.04246 24.9688 8.43738V16.2618C24.9673 16.6626 24.8074 17.0466 24.5239 17.3301C24.2405 17.6135 23.8565 17.7734 23.4556 17.7749C23.2318 17.7749 23.0172 17.686 22.859 17.5278C22.7008 17.3695 22.6119 17.1549 22.6119 16.9311V13.3424C22.6057 12.7718 22.4755 12.2094 22.2304 11.6941C21.9853 11.1788 21.6311 10.7229 21.1924 10.358C20.7537 9.99313 20.2409 9.72796 19.6896 9.58087C19.1383 9.43378 18.5615 9.40828 17.9994 9.50613C17.0863 9.69616 16.2683 10.1993 15.687 10.9286C15.1056 11.6579 14.7974 12.5674 14.8156 13.4999V17.7749" stroke="#8C331B" stroke-width="1.875" stroke-linecap="round" stroke-linejoin="round"/>
<path d="M15.3555 26.6343C15.6661 26.6343 15.918 26.3824 15.918 26.0718C15.918 25.7611 15.6661 25.5093 15.3555 25.5093C15.0448 25.5093 14.793 25.7611 14.793 26.0718C14.793 26.3824 15.0448 26.6343 15.3555 26.6343Z" fill="#8C331B"/>
</svg>
