<svg width="38" height="38" viewBox="0 0 38 38" fill="none" xmlns="http://www.w3.org/2000/svg">
<path d="M3 17.388L5.26992 15.2241C8.77877 11.8791 13.5378 10 18.5 10C23.4623 10 28.2212 11.8792 31.73 15.2241L34 17.388L31.26 20L28.99 17.8361C26.208 15.184 22.4345 13.694 18.5 13.694C14.5655 13.694 10.7921 15.184 8.00997 17.8361L5.74003 20L3 17.388Z" fill="#8C331B"/>
<path d="M10.8713 26L8 23.3334L10.3787 21.1242C12.5326 19.1238 15.4539 18 18.5 18C21.546 18 24.4673 19.1238 26.6213 21.1242L29 23.3334L26.1287 26L23.75 23.791C22.3576 22.4978 20.4691 21.7713 18.5 21.7713C16.5308 21.7713 14.6424 22.4978 13.25 23.791L10.8713 26Z" fill="#8C331B"/>
<path d="M18.5 33L14 28.3138L16.25 25.9706C16.8468 25.3492 17.6561 25 18.5 25C19.344 25 20.1533 25.3492 20.7501 25.9706L23 28.3138L18.5 33Z" fill="#8C331B"/>
</svg>
