<svg width="19" height="18" viewBox="0 0 19 18" fill="none" xmlns="http://www.w3.org/2000/svg">
<g clip-path="url(#clip0_2323_11906)">
<path d="M13.6136 14.4468L10.0721 12.4848C11.3883 11.4493 11.7461 9.41413 11.7461 8.27282V5.89738C11.7461 4.32463 9.65637 2.57301 7.55712 2.57301C5.459 2.57301 3.31362 4.32463 3.31362 5.89738V8.27282C3.31362 9.31063 3.75237 11.4093 5.08212 12.4758L1.4495 14.4463C1.4495 14.4463 0.5 14.8693 0.5 15.3963V16.8217C0.5 17.3465 0.925812 17.7718 1.4495 17.7718H13.6136C14.1372 17.7718 14.5631 17.3459 14.5631 16.8217V15.3963C14.5631 14.8372 13.613 14.4463 13.613 14.4463L13.6136 14.4468ZM13.4381 16.6479H1.625V15.6421C1.70544 15.5831 1.8185 15.515 1.90738 15.4745C1.93381 15.4627 1.96025 15.4498 1.98556 15.4351L5.61875 13.4647C5.95006 13.2847 6.16944 12.9517 6.20319 12.5765C6.23694 12.2013 6.08 11.834 5.78638 11.5983C4.84306 10.8418 4.43862 9.1672 4.43862 8.27338V5.89795C4.43862 5.08963 5.96187 3.69857 7.55712 3.69857C9.18219 3.69857 10.6211 5.07107 10.6211 5.89795V8.27338C10.6211 9.15426 10.3477 10.8367 9.37681 11.6006C9.07981 11.8346 8.9195 12.2024 8.951 12.5788C8.9825 12.9551 9.20187 13.2914 9.53319 13.4726L13.0747 15.4346C13.1056 15.4514 13.1456 15.47 13.1782 15.4846C13.2614 15.5201 13.3632 15.5786 13.4381 15.6303V16.6479ZM17.5505 11.6461L13.9561 9.68413C15.2724 8.64857 15.683 6.61345 15.683 5.47213V3.0967C15.683 1.52395 13.541 -0.245117 11.4417 -0.245117C10.0777 -0.245117 8.68325 0.49682 7.87156 1.44632C8.3345 1.47501 8.84469 1.47557 9.28569 1.6162C9.87856 1.15438 10.6278 0.880445 11.4417 0.880445C13.0668 0.880445 14.558 2.26982 14.558 3.09726V5.4727C14.558 6.35357 14.2318 8.03601 13.2614 8.79988C12.9639 9.03388 12.8041 9.40176 12.8356 9.77807C12.8671 10.1549 13.0859 10.4908 13.4178 10.6719L17.0122 12.6339C17.0431 12.6508 17.0831 12.6693 17.1157 12.6839C17.1989 12.7194 17.3007 12.7779 17.3756 12.8296V13.8303H15.1048C15.4479 14.0891 15.5514 14.4592 15.6847 14.9553H17.5516C18.0753 14.9553 18.5011 14.5295 18.5011 14.0053V12.5973C18.5006 12.0376 17.5505 11.6461 17.5505 11.6461Z" fill="white"/>
</g>
<defs>
<clipPath id="clip0_2323_11906">
<rect width="18" height="18" fill="white" transform="translate(0.5)"/>
</clipPath>
</defs>
</svg>
