<svg width="18" height="18" viewBox="0 0 18 18" fill="none" xmlns="http://www.w3.org/2000/svg">
<path d="M13.6136 15.0627L10.0721 13.1007C11.3883 12.0651 11.7461 10.03 11.7461 8.88867V6.51323C11.7461 4.94048 9.65637 3.18885 7.55712 3.18885C5.459 3.18885 3.31362 4.94048 3.31362 6.51323V8.88867C3.31362 9.92648 3.75237 12.0252 5.08212 13.0917L1.4495 15.0621C1.4495 15.0621 0.5 15.4851 0.5 16.0122V17.4375C0.5 17.9624 0.925812 18.3876 1.4495 18.3876H13.6136C14.1372 18.3876 14.5631 17.9618 14.5631 17.4375V16.0122C14.5631 15.453 13.613 15.0621 13.613 15.0621L13.6136 15.0627ZM13.4381 17.2637H1.625V16.258C1.70544 16.1989 1.8185 16.1309 1.90738 16.0904C1.93381 16.0785 1.96025 16.0656 1.98556 16.051L5.61875 14.0805C5.95006 13.9005 6.16944 13.5675 6.20319 13.1924C6.23694 12.8172 6.08 12.4499 5.78638 12.2142C4.84306 11.4576 4.43862 9.78304 4.43862 8.88923V6.51379C4.43862 5.70548 5.96187 4.31442 7.55712 4.31442C9.18219 4.31442 10.6211 5.68692 10.6211 6.51379V8.88923C10.6211 9.7701 10.3477 11.4525 9.37681 12.2164C9.07981 12.4504 8.9195 12.8183 8.951 13.1946C8.9825 13.5709 9.20187 13.9073 9.53319 14.0884L13.0747 16.0504C13.1056 16.0673 13.1456 16.0859 13.1782 16.1005C13.2614 16.1359 13.3632 16.1944 13.4381 16.2462V17.2637ZM17.5505 12.262L13.9561 10.3C15.2724 9.26442 15.683 7.22929 15.683 6.08798V3.71254C15.683 2.13979 13.541 0.370728 11.4417 0.370728C10.0777 0.370728 8.68325 1.11267 7.87156 2.06217C8.3345 2.09085 8.84469 2.09142 9.28569 2.23204C9.87856 1.77023 10.6278 1.49629 11.4417 1.49629C13.0668 1.49629 14.558 2.88567 14.558 3.7131V6.08854C14.558 6.96942 14.2318 8.65185 13.2614 9.41573C12.9639 9.64973 12.8041 10.0176 12.8356 10.3939C12.8671 10.7708 13.0859 11.1066 13.4178 11.2877L17.0122 13.2497C17.0431 13.2666 17.0831 13.2852 17.1157 13.2998C17.1989 13.3352 17.3007 13.3937 17.3756 13.4455V14.4462H15.1048C15.4479 14.7049 15.5514 15.075 15.6847 15.5712H17.5516C18.0753 15.5712 18.5011 15.1454 18.5011 14.6211V13.2132C18.5006 12.6535 17.5505 12.262 17.5505 12.262Z" fill="#252526"/>
</svg>
