<svg width="20" height="21" viewBox="0 0 20 21" fill="none" xmlns="http://www.w3.org/2000/svg">
<g clip-path="url(#clip0_1143_505)">
<path d="M14.5706 16.8138L10.6356 14.6338C12.0981 13.4831 12.4956 11.2219 12.4956 9.95376V7.31438C12.4956 5.56688 10.1737 3.62063 7.84125 3.62063C5.51 3.62063 3.12625 5.56688 3.12625 7.31438V9.95376C3.12625 11.1069 3.61375 13.4388 5.09125 14.6238L1.055 16.8131C1.055 16.8131 0 17.2831 0 17.8688V19.4525C0 20.0356 0.473125 20.5081 1.055 20.5081H14.5706C15.1525 20.5081 15.6256 20.035 15.6256 19.4525V17.8688C15.6256 17.2475 14.57 16.8131 14.57 16.8131L14.5706 16.8138ZM14.3756 19.2594H1.25V18.1419C1.33937 18.0763 1.465 18.0006 1.56375 17.9556C1.59312 17.9425 1.6225 17.9281 1.65062 17.9119L5.6875 15.7225C6.05562 15.5225 6.29937 15.1525 6.33687 14.7356C6.37437 14.3188 6.2 13.9106 5.87375 13.6488C4.82562 12.8081 4.37625 10.9475 4.37625 9.95438V7.31501C4.37625 6.41688 6.06875 4.87125 7.84125 4.87125C9.64687 4.87125 11.2456 6.39626 11.2456 7.31501V9.95438C11.2456 10.9331 10.9419 12.8025 9.86312 13.6513C9.53312 13.9113 9.355 14.32 9.39 14.7381C9.425 15.1563 9.66875 15.53 10.0369 15.7313L13.9719 17.9113C14.0062 17.93 14.0506 17.9506 14.0869 17.9669C14.1794 18.0063 14.2925 18.0713 14.3756 18.1288V19.2594ZM18.945 13.7019L14.9512 11.5219C16.4137 10.3713 16.87 8.11001 16.87 6.84188V4.2025C16.87 2.455 14.49 0.48938 12.1575 0.48938C10.6419 0.48938 9.0925 1.31375 8.19062 2.36875C8.705 2.40063 9.27187 2.40125 9.76187 2.5575C10.4206 2.04438 11.2531 1.74 12.1575 1.74C13.9631 1.74 15.62 3.28376 15.62 4.20313V6.8425C15.62 7.82125 15.2575 9.69063 14.1794 10.5394C13.8487 10.7994 13.6712 11.2081 13.7062 11.6263C13.7412 12.045 13.9844 12.4181 14.3531 12.6194L18.3469 14.7994C18.3812 14.8181 18.4256 14.8388 18.4619 14.855C18.5544 14.8944 18.6675 14.9594 18.7506 15.0169V16.1288H16.2275C16.6087 16.4163 16.7237 16.8275 16.8719 17.3788H18.9462C19.5281 17.3788 20.0012 16.9056 20.0012 16.3231V14.7588C20.0006 14.1369 18.945 13.7019 18.945 13.7019Z" fill="#8C331B"/>
</g>
<defs>
<clipPath id="clip0_1143_505">
<rect width="20" height="20" fill="white" transform="translate(0 0.5)"/>
</clipPath>
</defs>
</svg>
