<svg width="37" height="38" viewBox="0 0 37 38" fill="none" xmlns="http://www.w3.org/2000/svg">
<path fill-rule="evenodd" clip-rule="evenodd" d="M7 26.8261C7 23.201 9.21441 20.1155 12.3087 18.9624C13.1498 18.649 14.0558 18.4783 15 18.4783C15.9442 18.4783 16.8503 18.649 17.6912 18.9624C18.1481 19.1326 18.5857 19.345 19 19.5951C19.4143 19.345 19.8519 19.1326 20.3088 18.9624C21.1497 18.649 22.0557 18.4783 23 18.4783C23.9443 18.4783 24.8503 18.649 25.6912 18.9624C28.7856 20.1155 31 23.201 31 26.8261V31H24V28.913H29V26.8261C29 23.3683 26.3137 20.5652 23 20.5652C22.2039 20.5652 21.444 20.727 20.7488 21.0209C22.1424 22.5232 23 24.5701 23 26.8261V31H7V26.8261ZM15 17.4348C14.0814 17.4348 13.2206 17.1763 12.4809 16.7252C10.9969 15.8203 10 14.1403 10 12.2174C10 9.3359 12.2386 7 15 7C16.6356 7 18.0877 7.81949 19 9.08644C19.9123 7.81949 21.3644 7 23 7C25.7615 7 28 9.3359 28 12.2174C28 14.1403 27.0031 15.8203 25.5191 16.7252C24.7793 17.1763 23.9187 17.4348 23 17.4348C22.0813 17.4348 21.2207 17.1763 20.4809 16.7252C19.9035 16.3731 19.3999 15.9037 19 15.3483C18.6001 15.9038 18.0965 16.3731 17.5191 16.7252C16.7793 17.1763 15.9186 17.4348 15 17.4348ZM21 26.8261V28.913H9V26.8261C9 23.3683 11.6863 20.5652 15 20.5652C18.3137 20.5652 21 23.3683 21 26.8261ZM18 12.2174C18 13.9463 16.6568 15.3478 15 15.3478C13.3431 15.3478 12 13.9463 12 12.2174C12 10.4885 13.3431 9.08696 15 9.08696C16.6568 9.08696 18 10.4885 18 12.2174ZM23 9.08696C21.3432 9.08696 20 10.4885 20 12.2174C20 13.9463 21.3432 15.3478 23 15.3478C24.6568 15.3478 26 13.9463 26 12.2174C26 10.4885 24.6568 9.08696 23 9.08696Z" fill="#EDE8E5"/>
</svg>
