<svg width="16" height="17" viewBox="0 0 16 17" fill="currentColor" xmlns="http://www.w3.org/2000/svg">
<path d="M13.6876 11.8352V4.92543C14.0713 4.82702 14.4222 4.62882 14.7046 4.35095C14.987 4.07308 15.1908 3.72544 15.2954 3.34332C15.4 2.9612 15.4017 2.5582 15.3002 2.17525C15.1987 1.79229 14.9976 1.44302 14.7175 1.16287C14.4373 0.882734 14.0881 0.681705 13.7051 0.580198C13.3222 0.47869 12.9192 0.480318 12.537 0.584917C12.1549 0.689515 11.8073 0.89336 11.5294 1.17576C11.2515 1.45815 11.0533 1.80904 10.9549 2.1928H4.04518C3.94677 1.80904 3.74857 1.45815 3.4707 1.17576C3.19283 0.89336 2.84519 0.689515 2.46307 0.584917C2.08095 0.480318 1.67795 0.47869 1.295 0.580198C0.912044 0.681705 0.562767 0.882734 0.282626 1.16287C0.00248501 1.44302 -0.198544 1.79229 -0.300051 2.17525C-0.401559 2.5582 -0.399931 2.9612 -0.295332 3.34332C-0.190734 3.72544 0.0131108 4.07308 0.295506 4.35095C0.577901 4.62882 0.928792 4.82702 1.31255 4.92543V11.8352C0.928792 11.9336 0.577901 12.1318 0.295506 12.4097C0.0131108 12.6875 -0.190734 13.0352 -0.295332 13.4173C-0.399931 13.7994 -0.401559 14.2024 -0.300051 14.5854C-0.198544 14.9683 0.00248501 15.3176 0.282626 15.5977C0.562767 15.8779 0.912044 16.0789 1.295 16.1804C1.67795 16.2819 2.08095 16.2803 2.46307 16.1757C2.84519 16.0711 3.19283 15.8672 3.4707 15.5849C3.74857 15.3025 3.94677 14.9516 4.04518 14.5678H10.9549C11.0533 14.9516 11.2515 15.3025 11.5294 15.5849C11.8073 15.8672 12.1549 16.0711 12.537 16.1757C12.9192 16.2803 13.3222 16.2819 13.7051 16.1804C14.0881 16.0789 14.4373 15.8779 14.7175 15.5977C14.9976 15.3176 15.1987 14.9683 15.3002 14.5854C15.4017 14.2024 15.4 13.7994 15.2954 13.4173C15.1908 13.0352 14.987 12.6875 14.7046 12.4097C14.4222 12.1318 14.0713 11.9336 13.6876 11.8352ZM13.1251 1.6303C13.3476 1.6303 13.5651 1.69628 13.7501 1.8199C13.9351 1.94352 14.0793 2.11922 14.1644 2.32478C14.2496 2.53035 14.2718 2.75655 14.2284 2.97478C14.185 3.19301 14.0779 3.39346 13.9205 3.5508C13.7632 3.70813 13.5628 3.81528 13.3445 3.85869C13.1263 3.90209 12.9001 3.87982 12.6945 3.79467C12.489 3.70952 12.3133 3.56532 12.1897 3.38032C12.066 3.19531 12.0001 2.97781 12.0001 2.7553C12.0004 2.45704 12.119 2.17109 12.3299 1.96019C12.5408 1.74928 12.8268 1.63065 13.1251 1.6303ZM0.750054 2.7553C0.750054 2.5328 0.816034 2.31529 0.939651 2.13029C1.06327 1.94528 1.23897 1.80109 1.44454 1.71594C1.6501 1.63079 1.8763 1.60851 2.09453 1.65192C2.31276 1.69533 2.51322 1.80247 2.67055 1.95981C2.82788 2.11714 2.93503 2.3176 2.97844 2.53583C3.02185 2.75406 2.99957 2.98026 2.91442 3.18582C2.82927 3.39139 2.68508 3.56709 2.50007 3.69071C2.31506 3.81432 2.09756 3.8803 1.87505 3.8803C1.57678 3.88001 1.2908 3.76138 1.07989 3.55047C0.868974 3.33956 0.750352 3.05358 0.750054 2.7553ZM1.87505 15.1303C1.65255 15.1303 1.43504 15.0643 1.25004 14.9407C1.06503 14.8171 0.920838 14.6414 0.835689 14.4358C0.750541 14.2303 0.728262 14.0041 0.77167 13.7858C0.815079 13.5676 0.922225 13.3671 1.07956 13.2098C1.23689 13.0525 1.43735 12.9453 1.65558 12.9019C1.87381 12.8585 2.10001 12.8808 2.30557 12.9659C2.51114 13.0511 2.68684 13.1953 2.81046 13.3803C2.93407 13.5653 3.00005 13.7828 3.00005 14.0053C2.99971 14.3036 2.88108 14.5895 2.67017 14.8004C2.45927 15.0113 2.17332 15.13 1.87505 15.1303ZM10.9549 13.4428H4.04518C3.94444 13.0561 3.74235 12.7032 3.45975 12.4206C3.17716 12.138 2.8243 11.9359 2.43755 11.8352V4.92543C2.82427 4.82463 3.1771 4.62252 3.45969 4.33994C3.74227 4.05735 3.94438 3.70452 4.04518 3.3178H10.9549C11.0557 3.70454 11.2578 4.05741 11.5404 4.34C11.8229 4.62259 12.1758 4.82469 12.5626 4.92543V11.8352C12.1758 11.9359 11.8229 12.138 11.5403 12.4206C11.2577 12.7032 11.0556 13.056 10.9549 13.4428ZM13.1251 15.1303C12.9025 15.1303 12.685 15.0643 12.5 14.9407C12.315 14.8171 12.1708 14.6414 12.0857 14.4358C12.0005 14.2303 11.9783 14.0041 12.0217 13.7858C12.0651 13.5676 12.1722 13.3671 12.3296 13.2098C12.4869 13.0525 12.6873 12.9453 12.9056 12.9019C13.1238 12.8585 13.35 12.8808 13.5556 12.9659C13.7611 13.0511 13.9368 13.1953 14.0605 13.3803C14.1841 13.5653 14.2501 13.7828 14.2501 14.0053C14.2497 14.3035 14.131 14.5895 13.9201 14.8004C13.7092 15.0112 13.4233 15.1299 13.1251 15.1303Z" fill="currentColor"/>
</svg>
