<svg width="19" height="18" viewBox="0 0 19 18" fill="none" xmlns="http://www.w3.org/2000/svg">
<g clip-path="url(#clip0_2323_11901)">
<path d="M14.6876 12.2191V5.30934C15.0713 5.21093 15.4222 5.01273 15.7046 4.73486C15.987 4.45699 16.1908 4.10935 16.2954 3.72723C16.4 3.34511 16.4017 2.94211 16.3002 2.55916C16.1987 2.1762 15.9976 1.82693 15.7175 1.54679C15.4373 1.26665 15.0881 1.06562 14.7051 0.964109C14.3222 0.862601 13.9192 0.864229 13.537 0.968828C13.1549 1.07343 12.8073 1.27727 12.5294 1.55967C12.2515 1.84206 12.0533 2.19295 11.9549 2.57671H5.04518C4.94677 2.19295 4.74857 1.84206 4.4707 1.55967C4.19283 1.27727 3.84519 1.07343 3.46307 0.968828C3.08095 0.864229 2.67795 0.862601 2.295 0.964109C1.91204 1.06562 1.56277 1.26665 1.28263 1.54679C1.00249 1.82693 0.801456 2.1762 0.699949 2.55916C0.598441 2.94211 0.600069 3.34511 0.704668 3.72723C0.809266 4.10935 1.01311 4.45699 1.29551 4.73486C1.5779 5.01273 1.92879 5.21093 2.31255 5.30934V12.2191C1.92879 12.3175 1.5779 12.5157 1.29551 12.7936C1.01311 13.0714 0.809266 13.4191 0.704668 13.8012C0.600069 14.1833 0.598441 14.5863 0.699949 14.9693C0.801456 15.3522 1.00249 15.7015 1.28263 15.9816C1.56277 16.2618 1.91204 16.4628 2.295 16.5643C2.67795 16.6658 3.08095 16.6642 3.46307 16.5596C3.84519 16.455 4.19283 16.2512 4.4707 15.9688C4.74857 15.6864 4.94677 15.3355 5.04518 14.9517H11.9549C12.0533 15.3355 12.2515 15.6864 12.5294 15.9688C12.8073 16.2512 13.1549 16.455 13.537 16.5596C13.9192 16.6642 14.3222 16.6658 14.7051 16.5643C15.0881 16.4628 15.4373 16.2618 15.7175 15.9816C15.9976 15.7015 16.1987 15.3522 16.3002 14.9693C16.4017 14.5863 16.4 14.1833 16.2954 13.8012C16.1908 13.4191 15.987 13.0714 15.7046 12.7936C15.4222 12.5157 15.0713 12.3175 14.6876 12.2191ZM14.1251 2.01421C14.3476 2.01421 14.5651 2.08019 14.7501 2.20381C14.9351 2.32743 15.0793 2.50313 15.1644 2.7087C15.2496 2.91426 15.2718 3.14046 15.2284 3.35869C15.185 3.57692 15.0779 3.77738 14.9205 3.93471C14.7632 4.09204 14.5628 4.19919 14.3445 4.2426C14.1263 4.28601 13.9001 4.26373 13.6945 4.17858C13.489 4.09343 13.3133 3.94924 13.1897 3.76423C13.066 3.57923 13.0001 3.36172 13.0001 3.13921C13.0004 2.84095 13.119 2.555 13.3299 2.3441C13.5408 2.13319 13.8268 2.01456 14.1251 2.01421ZM1.75005 3.13921C1.75005 2.91671 1.81603 2.6992 1.93965 2.5142C2.06327 2.32919 2.23897 2.185 2.44454 2.09985C2.6501 2.0147 2.8763 1.99242 3.09453 2.03583C3.31276 2.07924 3.51322 2.18638 3.67055 2.34372C3.82788 2.50105 3.93503 2.70151 3.97844 2.91974C4.02185 3.13797 3.99957 3.36417 3.91442 3.56973C3.82927 3.7753 3.68508 3.951 3.50007 4.07462C3.31506 4.19823 3.09756 4.26421 2.87505 4.26421C2.57678 4.26392 2.2908 4.14529 2.07989 3.93438C1.86897 3.72347 1.75035 3.43749 1.75005 3.13921ZM2.87505 15.5142C2.65255 15.5142 2.43504 15.4482 2.25004 15.3246C2.06503 15.201 1.92084 15.0253 1.83569 14.8197C1.75054 14.6142 1.72826 14.388 1.77167 14.1697C1.81508 13.9515 1.92222 13.7511 2.07956 13.5937C2.23689 13.4364 2.43735 13.3292 2.65558 13.2858C2.87381 13.2424 3.10001 13.2647 3.30557 13.3498C3.51114 13.435 3.68684 13.5792 3.81046 13.7642C3.93407 13.9492 4.00005 14.1667 4.00005 14.3892C3.99971 14.6875 3.88108 14.9734 3.67017 15.1843C3.45927 15.3952 3.17332 15.5139 2.87505 15.5142ZM11.9549 13.8267H5.04518C4.94444 13.44 4.74235 13.0871 4.45975 12.8045C4.17716 12.5219 3.8243 12.3198 3.43755 12.2191V5.30934C3.82427 5.20854 4.1771 5.00643 4.45969 4.72385C4.74227 4.44126 4.94438 4.08843 5.04518 3.70171H11.9549C12.0557 4.08846 12.2578 4.44132 12.5404 4.72391C12.8229 5.00651 13.1758 5.2086 13.5626 5.30934V12.2191C13.1758 12.3198 12.8229 12.5219 12.5403 12.8045C12.2577 13.0871 12.0556 13.44 11.9549 13.8267ZM14.1251 15.5142C13.9025 15.5142 13.685 15.4482 13.5 15.3246C13.315 15.201 13.1708 15.0253 13.0857 14.8197C13.0005 14.6142 12.9783 14.388 13.0217 14.1697C13.0651 13.9515 13.1722 13.7511 13.3296 13.5937C13.4869 13.4364 13.6873 13.3292 13.9056 13.2858C14.1238 13.2424 14.35 13.2647 14.5556 13.3498C14.7611 13.435 14.9368 13.5792 15.0605 13.7642C15.1841 13.9492 15.2501 14.1667 15.2501 14.3892C15.2497 14.6875 15.131 14.9734 14.9201 15.1843C14.7092 15.3952 14.4233 15.5138 14.1251 15.5142Z" fill="white"/>
</g>
<defs>
<clipPath id="clip0_2323_11901">
<rect width="18" height="18" fill="white" transform="translate(0.5)"/>
</clipPath>
</defs>
</svg>
