<svg width="18" height="19" viewBox="0 0 18 19" fill="none" xmlns="http://www.w3.org/2000/svg">
<path d="M15.875 13.3388V5.66131C16.3014 5.55197 16.6913 5.33174 17.0051 5.023C17.3188 4.71426 17.5453 4.32799 17.6615 3.90341C17.7778 3.47883 17.7796 3.03106 17.6668 2.60555C17.554 2.18005 17.3306 1.79196 17.0194 1.4807C16.7081 1.16943 16.32 0.946062 15.8945 0.833276C15.469 0.72049 15.0212 0.722299 14.5966 0.83852C14.1721 0.95474 13.7858 1.18123 13.4771 1.49501C13.1683 1.80878 12.9481 2.19866 12.8387 2.62506H5.16125C5.0519 2.19866 4.83168 1.80878 4.52294 1.49501C4.2142 1.18123 3.82793 0.95474 3.40335 0.83852C2.97877 0.722299 2.531 0.72049 2.10549 0.833276C1.67999 0.946062 1.2919 1.16943 0.980634 1.4807C0.669367 1.79196 0.446001 2.18005 0.333215 2.60555C0.220429 3.03106 0.222238 3.47883 0.338459 3.90341C0.454679 4.32799 0.681173 4.71426 0.994946 5.023C1.30872 5.33174 1.6986 5.55197 2.125 5.66131V13.3388C1.6986 13.4482 1.30872 13.6684 0.994946 13.9771C0.681173 14.2859 0.454679 14.6721 0.338459 15.0967C0.222238 15.5213 0.220429 15.9691 0.333215 16.3946C0.446001 16.8201 0.669367 17.2082 0.980634 17.5194C1.2919 17.8307 1.67999 18.0541 2.10549 18.1668C2.531 18.2796 2.97877 18.2778 3.40335 18.1616C3.82793 18.0454 4.2142 17.8189 4.52294 17.5051C4.83168 17.1913 5.0519 16.8015 5.16125 16.3751H12.8387C12.9481 16.8015 13.1683 17.1913 13.4771 17.5051C13.7858 17.8189 14.1721 18.0454 14.5966 18.1616C15.0212 18.2778 15.469 18.2796 15.8945 18.1668C16.32 18.0541 16.7081 17.8307 17.0194 17.5194C17.3306 17.2082 17.554 16.8201 17.6668 16.3946C17.7796 15.9691 17.7778 15.5213 17.6615 15.0967C17.5453 14.6721 17.3188 14.2859 17.0051 13.9771C16.6913 13.6684 16.3014 13.4482 15.875 13.3388ZM15.25 2.00006C15.4972 2.00006 15.7389 2.07337 15.9445 2.21072C16.15 2.34807 16.3102 2.5433 16.4048 2.77171C16.4995 3.00011 16.5242 3.25145 16.476 3.49392C16.4277 3.7364 16.3087 3.95913 16.1339 4.13394C15.9591 4.30876 15.7363 4.42781 15.4939 4.47604C15.2514 4.52427 15.0001 4.49952 14.7716 4.40491C14.5432 4.3103 14.348 4.15008 14.2107 3.94452C14.0733 3.73896 14 3.49729 14 3.25006C14.0004 2.91866 14.1322 2.60093 14.3665 2.3666C14.6009 2.13226 14.9186 2.00044 15.25 2.00006ZM1.5 3.25006C1.5 3.00283 1.57331 2.76116 1.71066 2.5556C1.84801 2.35004 2.04324 2.18982 2.27164 2.09521C2.50005 2.0006 2.75139 1.97585 2.99386 2.02408C3.23634 2.07231 3.45907 2.19136 3.63388 2.36618C3.8087 2.54099 3.92775 2.76372 3.97598 3.0062C4.02421 3.24867 3.99946 3.50001 3.90485 3.72841C3.81024 3.95682 3.65002 4.15205 3.44446 4.2894C3.2389 4.42675 2.99723 4.50006 2.75 4.50006C2.41858 4.49973 2.10083 4.36793 1.86648 4.13358C1.63213 3.89923 1.50033 3.58148 1.5 3.25006ZM2.75 17.0001C2.50277 17.0001 2.2611 16.9267 2.05554 16.7894C1.84997 16.652 1.68976 16.4568 1.59515 16.2284C1.50054 16 1.47579 15.7487 1.52402 15.5062C1.57225 15.2637 1.6913 15.041 1.86612 14.8662C2.04093 14.6914 2.26366 14.5723 2.50614 14.5241C2.74861 14.4758 2.99995 14.5006 3.22835 14.5952C3.45676 14.6898 3.65198 14.85 3.78934 15.0556C3.92669 15.2612 4 15.5028 4 15.7501C3.99962 16.0815 3.8678 16.3992 3.63346 16.6335C3.39912 16.8679 3.0814 16.9997 2.75 17.0001ZM12.8387 15.1251H5.16125C5.04931 14.6953 4.82477 14.3033 4.51078 13.9893C4.19678 13.6753 3.80471 13.4507 3.375 13.3388V5.66131C3.80468 5.54931 4.19672 5.32475 4.5107 5.01077C4.82469 4.69678 5.04925 4.30474 5.16125 3.87506H12.8387C12.9507 4.30477 13.1752 4.69684 13.4892 5.01084C13.8032 5.32483 14.1953 5.54937 14.625 5.66131V13.3388C14.1953 13.4507 13.8032 13.6752 13.4892 13.9892C13.1752 14.3032 12.9506 14.6953 12.8387 15.1251ZM15.25 17.0001C15.0028 17.0001 14.7611 16.9267 14.5555 16.7894C14.35 16.652 14.1898 16.4568 14.0951 16.2284C14.0005 16 13.9758 15.7487 14.024 15.5062C14.0722 15.2637 14.1913 15.041 14.3661 14.8662C14.5409 14.6914 14.7637 14.5723 15.0061 14.5241C15.2486 14.4758 15.4999 14.5006 15.7284 14.5952C15.9568 14.6898 16.152 14.85 16.2893 15.0556C16.4267 15.2612 16.5 15.5028 16.5 15.7501C16.4996 16.0814 16.3677 16.3991 16.1334 16.6335C15.8991 16.8678 15.5814 16.9996 15.25 17.0001Z" fill="#8C331B"/>
</svg>
