<svg width="129" height="71" viewBox="0 0 129 71" fill="none" xmlns="http://www.w3.org/2000/svg">
<g clip-path="url(#clip0_2023_2225)">
<path d="M13.4927 42.1204L9.75822 36.8744H4.24688V42.1204H0V25.5815H11.8964C16.6852 25.5815 18.1303 29.1084 18.1303 31.2126C18.1303 32.8131 17.1365 35.1842 14.2752 36.2809L18.3715 42.1199H13.4921L13.4927 42.1204ZM4.24634 29.1385V33.3174H10.812C13.2214 33.3174 13.7033 31.9838 13.7033 31.2126C13.7033 30.4414 13.2214 29.1379 10.812 29.1379H4.24634V29.1385Z" fill="#252526"/>
<path d="M51.8344 25.5815H56.0507V34.2363C56.0507 39.8975 51.955 42.4169 46.5637 42.4169C41.1724 42.4169 37.1367 39.8975 37.1367 34.2363V25.5815H41.353V34.2363C41.353 37.7632 43.9131 38.89 46.5631 38.89C49.2132 38.89 51.8338 37.7637 51.8338 34.2363V25.5815H51.8344Z" fill="#252526"/>
<path d="M80.2671 36.4592V42.1204H76.0508V25.5815H93.1573V29.1384H80.2971V32.9027H90.5372V36.4597H80.2671V36.4592Z" fill="#252526"/>
<path d="M116.109 36.4592V42.1204H111.893V25.5815H128.999V29.1384H116.139V32.9027H126.378V36.4597H116.109V36.4592Z" fill="#252526"/>
<path d="M31.3633 70.9264L30.5676 69.7664H28.9534V70.9264H28.1348V67.2175H30.7101C31.7912 67.2175 32.1966 67.9119 32.1966 68.4887C32.1966 68.9393 31.9713 69.427 31.4086 69.6488L32.2796 70.927H31.3639L31.3633 70.9264ZM28.9534 67.9339V69.0569H30.59C31.2132 69.0569 31.318 68.754 31.318 68.4882C31.318 68.2443 31.2127 67.9339 30.59 67.9339H28.9534Z" fill="#252526"/>
<path d="M35.8672 70.9264V67.2175H39.6737V67.8603H36.6858V68.7615H39.1334V69.3453H36.6858V70.2911H39.6737V70.9264H35.8672Z" fill="#252526"/>
<path d="M46.7971 68.0075C46.4592 67.9113 45.9337 67.8302 45.2428 67.8302C44.5519 67.8302 43.914 67.9038 43.914 68.2663C43.914 69.0349 47.1425 68.0891 47.1425 69.8104C47.1425 70.8373 46.0238 71 44.965 71C44.3194 71 43.5985 70.9409 43.043 70.8448L43.073 70.1724C43.6662 70.276 44.2218 70.3276 44.8526 70.3276C45.633 70.3276 46.3392 70.239 46.3392 69.8399C46.3392 69.0053 43.1035 69.9807 43.1035 68.2959C43.1035 67.291 44.26 67.1578 45.108 67.1578C45.8737 67.1578 46.5799 67.2685 46.8347 67.3351L46.7971 68.0075Z" fill="#252526"/>
<path d="M51.962 70.9264V67.9119H50.25V67.2175H54.492V67.9119H52.78V70.9264H51.962Z" fill="#252526"/>
<path d="M60.5783 70.2981H58.0183L57.6052 70.9259H56.6895L59.3019 67.1578L61.9148 70.9259H60.9991L60.5789 70.2981H60.5783ZM58.4609 69.6402H60.1428L59.3019 68.3764L58.4609 69.6402Z" fill="currentColor"/>
<path d="M68.6015 67.2169H69.4201V69.116C69.4201 70.5048 68.3314 71 67.2503 71C66.1692 71 65.0957 70.5048 65.0957 69.116V67.2169H65.9138V69.116C65.9138 70.0397 66.567 70.3496 67.2579 70.3496C67.9488 70.3496 68.6015 70.0392 68.6015 69.116V67.2169Z" fill="#252526"/>
<path d="M76.4746 70.9264L75.679 69.7664H74.0647V70.9264H73.2461V67.2175H75.8214C76.9025 67.2175 77.308 67.9119 77.308 68.4887C77.308 68.9393 77.0826 69.427 76.5199 69.6488L77.3909 70.927H76.4752L76.4746 70.9264ZM74.0647 67.9339V69.0569H75.7013C76.3246 69.0569 76.4293 68.754 76.4293 68.4882C76.4293 68.2443 76.324 67.9339 75.7013 67.9339H74.0647Z" fill="#252526"/>
<path d="M84.2229 70.2981H81.6623L81.2497 70.9259H80.334L82.9464 67.1578L85.5594 70.9259H84.6436L84.2234 70.2981H84.2229ZM82.1054 69.6402H83.7874L82.9464 68.3764L82.1054 69.6402Z" fill="#252526"/>
<path d="M89.635 68.6283V70.9264H88.8164V67.1584L92.3751 69.5225V67.2169H93.1937V71L89.635 68.6283Z" fill="#252526"/>
<path d="M98.3331 70.9264V67.9119H96.6211V67.2175H100.863V67.9119H99.1511V70.9264H98.3331Z" fill="#252526"/>
<path d="M30.957 3.76804V0.0590668H34.7635V0.701934H31.7756V1.60313H34.2232V2.18692H31.7756V3.13269H34.7635V3.76804H30.957Z" fill="#252526"/>
<path d="M41.8339 0.0590668H42.6525V1.95813C42.6525 3.34698 41.5638 3.84215 40.4827 3.84215C39.4016 3.84215 38.3281 3.34698 38.3281 1.95813V0.0590668H39.1462V1.95813C39.1462 2.88188 39.7994 3.19177 40.4903 3.19177C41.1812 3.19177 41.8339 2.88134 41.8339 1.95813V0.0590668Z" fill="#252526"/>
<path d="M49.709 3.76804L48.9133 2.60798H47.2991V3.76804H46.4805V0.0590668H49.0558C50.1369 0.0590668 50.5424 0.753492 50.5424 1.3303C50.5424 1.7809 50.317 2.26855 49.7543 2.49036L50.6253 3.76858H49.7096L49.709 3.76804ZM47.2991 0.775512V1.89851H48.9357C49.5589 1.89851 49.6637 1.59561 49.6637 1.32976C49.6637 1.08594 49.5584 0.775512 48.9357 0.775512H47.2991Z" fill="#252526"/>
<path d="M56.5609 3.84216C55.0967 3.84216 53.918 3.11068 53.918 1.92108C53.918 0.731483 55.0967 0 56.5609 0C58.0251 0 59.2039 0.716445 59.2039 1.92108C59.2039 3.12572 58.0328 3.84216 56.5609 3.84216ZM56.5609 0.709463C55.5399 0.709463 54.7966 1.16006 54.7966 1.92108C54.7966 2.6821 55.5399 3.1327 56.5609 3.1327C57.582 3.1327 58.3253 2.6676 58.3253 1.92108C58.3253 1.17456 57.582 0.709463 56.5609 0.709463Z" fill="#252526"/>
<path d="M66.5009 3.76805V2.25353H63.6331V3.76805H62.8145V0.059082H63.6331V1.5446H66.5009V0.059082H67.3266V3.76805H66.5009Z" fill="#252526"/>
<path d="M73.5785 3.84216C72.1143 3.84216 70.9355 3.11068 70.9355 1.92108C70.9355 0.731483 72.1143 0 73.5785 0C75.0427 0 76.2215 0.716445 76.2215 1.92108C76.2215 3.12572 75.0504 3.84216 73.5785 3.84216ZM73.5785 0.709463C72.5575 0.709463 71.8142 1.16006 71.8142 1.92108C71.8142 2.6821 72.5575 3.1327 73.5785 3.1327C74.5996 3.1327 75.3429 2.6676 75.3429 1.92108C75.3429 1.17456 74.5996 0.709463 73.5785 0.709463Z" fill="#252526"/>
<path d="M81.0694 3.76805V0.753507H79.3574V0.059082H83.5994V0.753507H81.8874V3.76805H81.0694Z" fill="#252526"/>
<path d="M87.0293 3.76804V0.0590668H90.8358V0.701934H87.8479V1.60313H90.2955V2.18692H87.8479V3.13269H90.8358V3.76804H87.0293Z" fill="#252526"/>
<path d="M94.4746 3.76804V0.0590668H95.2932V3.07361H98.041V3.76804H94.4746Z" fill="#252526"/>
</g>
<defs>
<clipPath id="clip0_2023_2225">
<rect width="129" height="71" fill="white"/>
</clipPath>
</defs>
</svg>
