<svg width="84" height="82" viewBox="0 0 84 82" fill="none" xmlns="http://www.w3.org/2000/svg">
<g clip-path="url(#clip0_4201_9779)">
<path d="M45.9223 15.2987L42.5196 10.4402H37.4977V15.2987H33.6289V-0.0179672H44.4685C48.8316 -0.0179672 50.1489 3.24811 50.1489 5.19752C50.1489 6.67975 49.2433 8.87543 46.6365 9.89095L50.3683 15.2983H45.9227L45.9223 15.2987ZM37.4972 3.27624V7.14647H43.4796C45.6747 7.14647 46.1141 5.91096 46.1141 5.19752C46.1141 4.48407 45.6751 3.27578 43.4796 3.27578H37.4972V3.27624Z" fill="#252526"/>
<path d="M38.0452 76.6555V81.8987H34.2031V66.582H49.7899V69.8757H38.0724V73.3618H47.4025V76.6555H38.0447H38.0452Z" fill="#252526"/>
<path d="M80.1573 33.145H83.9993V41.1599C83.9993 46.4026 80.2674 48.7357 75.3548 48.7357C70.4422 48.7357 66.7656 46.4026 66.7656 41.1599V33.145H70.6077V41.1599C70.6077 44.426 72.9397 45.4696 75.3548 45.4696C77.7699 45.4696 80.1573 44.4264 80.1573 41.1599V33.145Z" fill="#252526"/>
<path d="M3.84205 43.3556V48.5987H0V33.282H15.5868V36.5757H3.86879V40.0618H13.1989V43.3556H3.84205Z" fill="#252526"/>
<path d="M41.9995 38.9677L40.0273 40.9403L41.9995 42.9129L43.9716 40.9403L41.9995 38.9677Z" fill="#252526"/>
</g>
<defs>
<clipPath id="clip0_4201_9779">
<rect width="84" height="81.8895" fill="white"/>
</clipPath>
</defs>
</svg>
