<svg width="30" height="31" viewBox="0 0 30 31" fill="none" xmlns="http://www.w3.org/2000/svg">
<path d="M18.9737 19.8198L20.9321 27.9842L20.9322 27.9846L20.7377 28.0312C20.7881 28.2396 20.662 28.4479 20.4603 28.5L18.9737 19.8198ZM18.9737 19.8198H24.6217C24.9399 19.8198 25.2 19.5419 25.2 19.2292L25.2 19.2281L25.1617 19.2283C25.2 19.2281 25.2 19.2281 25.2 19.228L25.2 19.2277L25.2 19.2264L25.2 19.2211L25.1999 19.2002L25.1994 19.1187L25.1978 18.8094L25.1921 17.7043L25.1748 14.3421C25.1622 11.8902 25.1496 9.42379 25.1496 9.35938V6.18229C25.1496 5.86959 24.8895 5.59167 24.5712 5.59167H15.5405M18.9737 19.8198L15.5405 5.59167M15.5405 5.59167V3.89062C15.5405 3.57792 15.2804 3.3 14.9622 3.3C14.644 3.3 14.3839 3.57792 14.3839 3.89062V5.59167H5.37831C5.0601 5.59167 4.8 5.86959 4.8 6.18229V9.35938V9.35999V9.3606V9.36122V9.36184V9.36246V9.36309V9.36372V9.36435V9.36499V9.36563V9.36627V9.36691V9.36756V9.36821V9.36886V9.36952V9.37017V9.37084V9.3715V9.37217V9.37284V9.37351V9.37418V9.37486V9.37554V9.37623V9.37691V9.3776V9.3783V9.37899V9.37969V9.38039V9.38109V9.3818V9.3825V9.38322V9.38393V9.38465V9.38536V9.38609V9.38681V9.38754V9.38827V9.389V9.38973V9.39047V9.39121V9.39195V9.3927V9.39345V9.3942V9.39495V9.39571V9.39647V9.39723V9.39799V9.39876V9.39952V9.40029V9.40107V9.40184V9.40262V9.4034V9.40418V9.40497V9.40576V9.40655V9.40734V9.40814V9.40894V9.40974V9.41054V9.41134V9.41215V9.41296V9.41377V9.41459V9.4154V9.41622V9.41704V9.41787V9.41869V9.41952V9.42035V9.42119V9.42202V9.42286V9.4237V9.42454V9.42539V9.42623V9.42708V9.42793V9.42879V9.42964V9.4305V9.43136V9.43222V9.43309V9.43395V9.43482V9.43569V9.43657V9.43744V9.43832V9.4392V9.44008V9.44096V9.44185V9.44274V9.44363V9.44452V9.44541V9.44631V9.44721V9.44811V9.44901V9.44991V9.45082V9.45173V9.45264V9.45355V9.45446V9.45538V9.4563V9.45722V9.45814V9.45907V9.45999V9.46092V9.46185V9.46278V9.46372V9.46465V9.46559V9.46653V9.46747V9.46841V9.46936V9.4703V9.47125V9.4722V9.47316V9.47411V9.47506V9.47602V9.47698V9.47794V9.47891V9.47987V9.48084V9.48181V9.48278V9.48375V9.48472V9.4857V9.48667V9.48765V9.48863V9.48961V9.4906V9.49158V9.49257V9.49356V9.49455V9.49554V9.49654V9.49753V9.49853V9.49953V9.50053V9.50153V9.50253V9.50354V9.50454V9.50555V9.50656V9.50757V9.50858V9.5096V9.51061V9.51163V9.51265V9.51367V9.51469V9.51571V9.51674V9.51776V9.51879V9.51982V9.52085V9.52188V9.52291V9.52395V9.52498V9.52602V9.52706V9.5281V9.52914V9.53018V9.53123V9.53227V9.53332V9.53437V9.53542V9.53647V9.53752V9.53857V9.53963V9.54068V9.54174V9.5428V9.54386V9.54492V9.54598V9.54705V9.54811V9.54918V9.55024V9.55131V9.55238V9.55345V9.55452V9.5556V9.55667V9.55775V9.55882V9.5599V9.56098V9.56206V9.56314V9.56422V9.5653V9.56639V9.56747V9.56856V9.56965V9.57073V9.57182V9.57291V9.57401V9.5751V9.57619V9.57729V9.57838V9.57948V9.58058V9.58167V9.58277V9.58387V9.58497V9.58608V9.58718V9.58828V9.58939V9.59049V9.5916V9.59271V9.59382V9.59493V9.59604V9.59715V9.59826V9.59937V9.60049V9.6016V9.60272V9.60383V9.60495V9.60607V9.60718V9.6083V9.60942V9.61054V9.61167V9.61279V9.61391V9.61503V9.61616V9.61728V9.61841V9.61954V9.62066V9.62179V9.62292V9.62405V9.62518V9.62631V9.62744V9.62857V9.6297V9.63084V9.63197V9.6331V9.63424V9.63537V9.63651V9.63765V9.63878V9.63992V9.64106V9.6422V9.64334V9.64447V9.64562V9.64676V9.6479V9.64904V9.65018V9.65132V9.65247V9.65361V9.65475V9.6559V9.65704V9.65819V9.65933V9.66048V9.66162V9.66277V9.66392V9.66506V9.66621V9.66736V9.66851V9.66966V9.67081V9.67196V9.67311V9.67426V9.67541V9.67656V9.67771V9.67886V9.68001V9.68116V9.68231V9.68347V9.68462V9.68577V9.68692V9.68808V9.68923V9.69038V9.69154V9.69269V9.69384V9.695V9.69615V9.69731V9.69846V9.69961V9.70077V9.70192V9.70308V9.70423V9.70539V9.70654V9.7077V9.70885V9.71001V9.71116V9.71232V9.71347V9.71463V9.71579V9.71694V9.7181V9.71925V9.72041V9.72156V9.72272V9.72387V9.72503V9.72618V9.72734V9.72849V9.72965V9.7308V9.73196V9.73311V9.73426V9.73542V9.73657V9.73773V9.73888V9.74003V9.74119V9.74234V9.74349V9.74465V9.7458V9.74695V9.7481V9.74925V9.75041V9.75156V9.75271V9.75386V9.75501V9.75616V9.75731V9.75846V9.75961V9.76076V9.76191V9.76306V9.7642V9.76535V9.7665V9.76765V9.76879V9.76994V9.77109V9.77223V9.77338V9.77452V9.77567V9.77681V9.77795V9.7791V9.78024V9.78138V9.78252V9.78367V9.78481V9.78595V9.78709V9.78823V9.78936V9.7905V9.79164V9.79278V9.79391V9.79505V9.79618V9.79732V9.79845V9.79959V9.80072V9.80185V9.80299V9.80412V9.80525V9.80638V9.80751V9.80864V9.80976V9.81089V9.81202V9.81314V9.81427V9.81539V9.81652V9.81764V9.81876V9.81988V9.82101V9.82213V9.82325V9.82436V9.82548V9.8266V9.82772V9.82883V9.82995V9.83106V9.83217V9.83328V9.8344V9.83551V9.83662V9.83773V9.83883V9.83994V9.84105V9.84215V9.84326V9.84436V9.84546V9.84656V9.84766V9.84876V9.84986V9.85096V9.85206V9.85315V9.85425V9.85534V9.85644V9.85753V9.85862V9.85971V9.8608V9.86188V9.86297V9.86406V9.86514V9.86622V9.86731V9.86839V9.86947V9.87055V9.87163V9.8727V9.87378V9.87485V9.87593V9.877V9.87807V9.87914V9.88021V19.2292C4.8 19.5419 5.0601 19.8198 5.37831 19.8198H10.9781L9.09313 27.9842C9.09304 27.9846 9.09295 27.9849 9.09286 27.9853L15.5405 5.59167ZM23.9929 6.77292V9.02917H5.95662V6.77292H23.9929ZM5.95662 18.6385V10.2104H23.9929V18.6385H5.95662Z" fill="#8C331B" stroke="#8C331B" stroke-width="0.4"/>
</svg>
