<svg width="30" height="31" viewBox="0 0 30 31" fill="none" xmlns="http://www.w3.org/2000/svg">
<path d="M26.25 20.5V9.5C26.25 8.09987 26.25 7.3998 25.9775 6.86503C25.7379 6.39461 25.3554 6.01216 24.885 5.77249C24.3503 5.5 23.6501 5.5 22.25 5.5H7.75C6.34986 5.5 5.6498 5.5 5.11503 5.77249C4.64461 6.01216 4.26216 6.39461 4.02249 6.86503C3.75 7.3998 3.75 8.09987 3.75 9.5V20.5M5.83334 25.5H24.1666C24.9416 25.5 25.3291 25.5 25.647 25.4149C26.5097 25.1836 27.1836 24.5097 27.4149 23.647C27.5 23.3291 27.5 22.9416 27.5 22.1666C27.5 21.7791 27.5 21.5854 27.4574 21.4265C27.3419 20.9951 27.0049 20.6581 26.5735 20.5426C26.4146 20.5 26.2209 20.5 25.8334 20.5H4.16666C3.77917 20.5 3.58544 20.5 3.42647 20.5426C2.99511 20.6581 2.65818 20.9951 2.54259 21.4265C2.5 21.5854 2.5 21.7791 2.5 22.1666C2.5 22.9416 2.5 23.3291 2.58519 23.647C2.81635 24.5097 3.49022 25.1836 4.35295 25.4149C4.67086 25.5 5.05836 25.5 5.83334 25.5Z" stroke="#8C331B" stroke-width="2" stroke-linecap="round" stroke-linejoin="round"/>
</svg>
