<svg width="30" height="31" viewBox="0 0 30 31" fill="none" xmlns="http://www.w3.org/2000/svg">
<path d="M18.1094 12.575C18.401 12.575 18.6375 12.3385 18.6375 12.0469V8.10938C18.6375 7.81779 18.401 7.58125 18.1094 7.58125H7.60938C7.31779 7.58125 7.08125 7.81779 7.08125 8.10938V12.0469C7.08125 12.3385 7.31779 12.575 7.60938 12.575H18.1094ZM8.1375 8.6375H17.5813V11.5187H8.1375V8.6375Z" fill="#8C331B" stroke="#8C331B" stroke-width="0.4"/>
<path d="M6.75312 15.3281C6.75312 15.6197 6.98967 15.8562 7.28125 15.8562H17.7812C18.0728 15.8562 18.3094 15.6197 18.3094 15.3281C18.3094 15.0365 18.0728 14.8 17.7812 14.8H7.28125C6.98967 14.8 6.75312 15.0365 6.75312 15.3281Z" fill="#8C331B" stroke="#8C331B" stroke-width="0.4"/>
<path d="M7.28125 19.1375H17.7812C18.0728 19.1375 18.3094 18.901 18.3094 18.6094C18.3094 18.3178 18.0728 18.0812 17.7812 18.0812H7.28125C6.98967 18.0812 6.75312 18.3178 6.75312 18.6094C6.75312 18.901 6.98967 19.1375 7.28125 19.1375Z" fill="#8C331B" stroke="#8C331B" stroke-width="0.4"/>
<path d="M7.28125 21.7625H17.7812C18.0728 21.7625 18.3094 21.526 18.3094 21.2344C18.3094 20.9428 18.0728 20.7062 17.7812 20.7062H7.28125C6.98967 20.7062 6.75312 20.9428 6.75312 21.2344C6.75312 21.526 6.98967 21.7625 7.28125 21.7625Z" fill="#8C331B" stroke="#8C331B" stroke-width="0.4"/>
<path d="M24.0156 8.89375H22.6349C22.3433 8.89375 22.1067 9.13029 22.1067 9.42188C22.1067 9.71346 22.3433 9.95 22.6349 9.95H24.0156C24.086 9.95 24.1437 10.0079 24.1437 10.0781V24.5156C24.1437 24.5859 24.086 24.6437 24.0156 24.6437H21.2625V5.48438C21.2625 4.8312 20.7313 4.3 20.0781 4.3H4.98438C4.3312 4.3 3.8 4.8312 3.8 5.48438V24.095C3.8 24.9805 4.51954 25.7 5.40503 25.7H17.7812C18.0728 25.7 18.3094 25.4635 18.3094 25.1719C18.3094 24.8803 18.0728 24.6437 17.7812 24.6437H5.40503C5.10271 24.6437 4.85625 24.3973 4.85625 24.095V5.48438C4.85625 5.4141 4.91397 5.35625 4.98438 5.35625H20.0781C20.1485 5.35625 20.2062 5.4141 20.2062 5.48438V25.1719C20.2062 25.4635 20.4428 25.7 20.7344 25.7H24.0156C24.6688 25.7 25.2 25.1688 25.2 24.5156V10.0781C25.2 9.42495 24.6688 8.89375 24.0156 8.89375Z" fill="#8C331B" stroke="#8C331B" stroke-width="0.4"/>
</svg>
