<svg width="30" height="31" viewBox="0 0 30 31" fill="none" xmlns="http://www.w3.org/2000/svg">
<g clip-path="url(#clip0_1947_18349)">
<path d="M15.8787 22.4096V20.3108H29.3213C29.5488 20.3108 29.7622 20.2403 29.9229 20.1171C30.0838 19.9938 30.2 19.8093 30.2 19.5905V19.5904C30.1999 19.3715 30.0837 19.1871 29.9228 19.0638C29.7621 18.9406 29.5487 18.8701 29.3212 18.8701H28.8424V6.06107C28.8424 5.84219 28.7262 5.65775 28.5653 5.5344C28.4046 5.41121 28.1912 5.3407 27.9637 5.3407H15.8787V5.02037C15.8787 4.80149 15.7624 4.61705 15.6016 4.4937C15.4409 4.3705 15.2275 4.3 14.9999 4.3C14.7724 4.3 14.559 4.3705 14.3983 4.4937C14.2374 4.61705 14.1212 4.80149 14.1212 5.02037V5.34075H2.03624C1.80869 5.34075 1.59532 5.41125 1.43462 5.53445C1.27374 5.6578 1.15749 5.84224 1.15749 6.06112V18.8701H0.678771C0.678763 18.8701 0.678755 18.8701 0.678747 18.8701C0.451221 18.8701 0.237855 18.9406 0.0771598 19.0638C-0.0837316 19.1871 -0.2 19.3716 -0.2 19.5905C-0.2 19.8093 -0.0837589 19.9938 0.0771289 20.1171C0.237823 20.2403 0.451196 20.3108 0.678747 20.3108H14.1213V22.4096L9.10253 26.4659L9.22824 26.6215L9.10252 26.4659C8.93104 26.6045 8.83527 26.7965 8.84228 27.0002C8.84926 27.2033 8.95742 27.389 9.13593 27.5189C9.4796 27.7689 10.0092 27.7597 10.3388 27.4932C10.3388 27.4932 10.3388 27.4932 10.3388 27.4932L14.1213 24.4362V26.9796C14.1213 27.1985 14.2375 27.3829 14.3984 27.5063C14.5591 27.6295 14.7724 27.7 15 27.7C15.2276 27.7 15.4409 27.6295 15.6016 27.5063C15.7625 27.3829 15.8787 27.1985 15.8787 26.9796V24.4362L19.6612 27.4932C19.8361 27.6346 20.0622 27.7 20.2795 27.7C20.4826 27.7 20.6935 27.6429 20.8641 27.5189C21.0426 27.389 21.1507 27.2033 21.1577 27.0002C21.1647 26.7965 21.069 26.6045 20.8975 26.4659L20.7718 26.6215L20.8975 26.4659L15.8787 22.4096ZM27.085 6.78145V18.8701H2.91493V6.78145H27.085Z" fill="#8C331B" stroke="#8C331B" stroke-width="0.4"/>
</g>
<defs>
<clipPath id="clip0_1947_18349">
<rect width="30" height="30" fill="white" transform="translate(0 0.5)"/>
</clipPath>
</defs>
</svg>
