<svg width="30" height="31" viewBox="0 0 30 31" fill="none" xmlns="http://www.w3.org/2000/svg">
<path fill-rule="evenodd" clip-rule="evenodd" d="M13.2353 8.58169C12.577 9.46626 12.1875 10.5627 12.1875 11.75C12.1875 14.684 14.566 17.0625 17.5 17.0625C20.434 17.0625 22.8125 14.684 22.8125 11.75C22.8125 10.6116 22.4544 9.55683 21.8448 8.69216C21.7751 8.62413 21.7163 8.5454 21.6705 8.45874C20.6975 7.22759 19.191 6.4375 17.5 6.4375C15.7708 6.4375 14.2344 7.26375 13.2644 8.54301C13.255 8.55616 13.2453 8.56905 13.2353 8.58169ZM10.8836 8.9375C10.5159 9.80135 10.3125 10.7519 10.3125 11.75C10.3125 15.7195 13.5305 18.9375 17.5 18.9375C21.4695 18.9375 24.6875 15.7195 24.6875 11.75C24.6875 10.8123 24.508 9.9166 24.1814 9.0953C24.9678 9.2214 25.4113 9.43372 25.7388 9.76126C26.0848 10.1072 26.3103 10.5929 26.4336 11.5101C26.5605 12.4543 26.5625 13.7057 26.5625 15.5C26.5625 17.2943 26.5605 18.5456 26.4336 19.4899C26.3103 20.4071 26.0848 20.8927 25.7388 21.2388C25.3928 21.5847 24.9071 21.8102 23.9899 21.9336C23.0456 22.0605 21.7943 22.0625 20 22.0625H10C8.20573 22.0625 6.95434 22.0605 6.01015 21.9336C5.09294 21.8102 4.60721 21.5847 4.26126 21.2388C3.91531 20.8927 3.68975 20.4071 3.56644 19.4899C3.43949 18.5456 3.4375 17.2943 3.4375 15.5C3.4375 13.7057 3.43949 12.4543 3.56644 11.5101C3.68975 10.5929 3.91531 10.1072 4.26126 9.76126C4.60721 9.41531 5.09294 9.18975 6.01015 9.06644C6.95434 8.93949 8.20573 8.9375 10 8.9375H10.8836ZM12.0512 7.0625H9.93141C8.22193 7.06247 6.84403 7.06245 5.76031 7.20815C4.63518 7.35942 3.68784 7.68304 2.93544 8.43544C2.18304 9.18784 1.85943 10.1352 1.70815 11.2603C1.56245 12.344 1.56248 13.7219 1.5625 15.4314V15.5686C1.56248 17.2781 1.56245 18.656 1.70815 19.7397C1.85943 20.8649 2.18304 21.8121 2.93544 22.5646C3.68784 23.317 4.63518 23.6406 5.76031 23.7919C5.85116 23.804 5.94409 23.8153 6.03909 23.8255L5.41148 25.0807C5.17993 25.5439 5.36764 26.107 5.83074 26.3385C6.29384 26.5701 6.85698 26.3824 7.08853 25.9193L8.08369 23.9289C8.65083 23.9375 9.266 23.9375 9.93141 23.9375H20.0686C20.734 23.9375 21.3491 23.9375 21.9164 23.9289L22.9115 25.9193C23.143 26.3824 23.7061 26.5701 24.1693 26.3385C24.6324 26.107 24.8201 25.5439 24.5885 25.0807L23.9609 23.8255C24.0559 23.8153 24.1489 23.804 24.2398 23.7919C25.3649 23.6406 26.3121 23.317 27.0646 22.5646C27.817 21.8121 28.1406 20.8649 28.2919 19.7397C28.4375 18.656 28.4375 17.2781 28.4375 15.5686V15.4314C28.4375 13.7219 28.4375 12.344 28.2919 11.2603C28.1406 10.1352 27.817 9.18784 27.0646 8.43544C26.0616 7.43246 24.6958 7.1807 22.9823 7.10164C21.6639 5.54828 19.697 4.5625 17.5 4.5625C15.3215 4.5625 13.3693 5.53173 12.0512 7.0625ZM16.5625 9.25C16.5625 8.73224 16.9823 8.3125 17.5 8.3125C19.3985 8.3125 20.9375 9.85152 20.9375 11.75C20.9375 13.6485 19.3985 15.1875 17.5 15.1875C15.6015 15.1875 14.0625 13.6485 14.0625 11.75C14.0625 11.2322 14.4823 10.8125 15 10.8125C15.5178 10.8125 15.9375 11.2322 15.9375 11.75C15.9375 12.613 16.637 13.3125 17.5 13.3125C18.363 13.3125 19.0625 12.613 19.0625 11.75C19.0625 10.8871 18.363 10.1875 17.5 10.1875C16.9823 10.1875 16.5625 9.76776 16.5625 9.25ZM6.87488 11.4375C7.39265 11.4374 7.81244 11.8571 7.8125 12.3749L7.81275 14.25C7.81281 14.7677 7.39314 15.1875 6.87536 15.1876C6.3576 15.1877 5.93781 14.768 5.93775 14.2502L5.9375 12.3751C5.93744 11.8574 6.35711 11.4376 6.87488 11.4375Z" fill="#8C331B"/>
</svg>
