<svg width="30" height="31" viewBox="0 0 30 31" fill="none" xmlns="http://www.w3.org/2000/svg">
<path d="M26.0514 5.23682H3.94613C3.0785 5.23682 2.36719 5.94704 2.36719 6.8151V20.2352C2.36719 21.1025 3.07771 21.8127 3.94613 21.8127H14.2093V24.1849H10.2619C9.82614 24.1849 9.47245 24.5384 9.47245 24.974C9.47245 25.4096 9.82614 25.7631 10.2619 25.7631H19.7356C20.1714 25.7631 20.5251 25.4096 20.5251 24.974C20.5251 24.5384 20.1714 24.1849 19.7356 24.1849H15.7882V21.8127H26.0514C26.919 21.8127 27.6303 21.1025 27.6303 20.2352V6.8151C27.6303 5.94704 26.919 5.23682 26.0514 5.23682ZM26.0514 20.2352H3.94613V6.8151H26.0514V20.2352Z" fill="#8C331B"/>
</svg>
