<svg width="20" height="20" viewBox="0 0 20 20" fill="none" xmlns="http://www.w3.org/2000/svg">
<path d="M17.5 9.99998V6.66665C17.5 4.8257 16.0076 3.33331 14.1667 3.33331H5.83333C3.99238 3.33331 2.5 4.8257 2.5 6.66665V14.1666C2.5 16.0076 3.99238 17.5 5.83333 17.5H10" stroke="white" stroke-linecap="round"/>
<path d="M6.66797 2.5V5" stroke="white" stroke-linecap="round"/>
<path d="M14.1654 8.33331H5.83203" stroke="white" stroke-linecap="round"/>
<path d="M13.332 2.5V5" stroke="white" stroke-linecap="round"/>
<path d="M17.5 15C17.5 16.3807 16.3807 17.5 15 17.5C13.6193 17.5 12.5 16.3807 12.5 15C12.5 13.6193 13.6193 12.5 15 12.5C16.3807 12.5 17.5 13.6193 17.5 15Z" stroke="white"/>
</svg>
