<svg width="22" height="22" viewBox="0 0 22 22" fill="none" xmlns="http://www.w3.org/2000/svg">
<path d="M17.1875 2.75C18.2791 2.75 19.1727 3.59807 19.2452 4.67129L19.25 4.8125V17.1875C19.25 18.2791 18.4019 19.1727 17.3287 19.2452L17.1875 19.25H4.8125C3.72088 19.25 2.82733 18.4019 2.75476 17.3287L2.75 17.1875V4.8125C2.75 3.72088 3.59807 2.82733 4.67129 2.75476L4.8125 2.75H17.1875ZM17.1875 4.125H4.8125C4.46445 4.125 4.1768 4.38364 4.13128 4.71921L4.125 4.8125V17.1875C4.125 17.5355 4.38364 17.8232 4.71921 17.8687L4.8125 17.875H17.1875C17.5355 17.875 17.8232 17.6163 17.8687 17.2808L17.875 17.1875V4.8125C17.875 4.46445 17.6163 4.1768 17.2808 4.13128L17.1875 4.125ZM7.10417 13.5208C7.61042 13.5208 8.02083 13.9312 8.02083 14.4375C8.02083 14.9438 7.61042 15.3542 7.10417 15.3542C6.59791 15.3542 6.1875 14.9438 6.1875 14.4375C6.1875 13.9312 6.59791 13.5208 7.10417 13.5208ZM15.3541 13.75C15.7339 13.75 16.0416 14.0578 16.0416 14.4375C16.0416 14.7855 15.783 15.0732 15.4474 15.1187L15.3541 15.125H10.3126C9.93282 15.125 9.62509 14.8172 9.62509 14.4375C9.62509 14.0895 9.88367 13.8018 10.2193 13.7563L10.3126 13.75H15.3541ZM7.10417 10.0833C7.61042 10.0833 8.02083 10.4937 8.02083 11C8.02083 11.5063 7.61042 11.9167 7.10417 11.9167C6.59791 11.9167 6.1875 11.5063 6.1875 11C6.1875 10.4937 6.59791 10.0833 7.10417 10.0833ZM15.3541 10.3125C15.7339 10.3125 16.0416 10.6203 16.0416 11C16.0416 11.3797 15.7339 11.6875 15.3541 11.6875H10.3126C9.93282 11.6875 9.62509 11.3797 9.62509 11C9.62509 10.6203 9.93282 10.3125 10.3126 10.3125H15.3541ZM7.10417 6.64583C7.61042 6.64583 8.02083 7.05624 8.02083 7.5625C8.02083 8.06876 7.61042 8.47917 7.10417 8.47917C6.59791 8.47917 6.1875 8.06876 6.1875 7.5625C6.1875 7.05624 6.59791 6.64583 7.10417 6.64583ZM15.3542 6.875C15.7339 6.875 16.0417 7.18281 16.0417 7.5625C16.0417 7.94219 15.7339 8.25 15.3542 8.25H10.3125C9.93282 8.25 9.625 7.94219 9.625 7.5625C9.625 7.18281 9.93282 6.875 10.3125 6.875H15.3542Z" fill="#8C331B"/>
</svg>
